<svg xmlns="http://www.w3.org/2000/svg" xmlns:xlink="http://www.w3.org/1999/xlink" viewBox="0 0 215.52 142.28">
  <defs>
    <style>
      .cls-1 {
        fill: url(#linear-gradient);
      }

      .cls-2 {
        fill: #363556;
      }

      .cls-3 {
        fill: url(#linear-gradient-2);
      }

      .cls-4 {
        fill: #4d4d4d;
      }
    </style>
    <linearGradient id="linear-gradient" x1="107.76" y1="142.28" x2="107.76" gradientUnits="userSpaceOnUse">
      <stop offset="0" stop-color="#5e5b86"/>
      <stop offset="1" stop-color="#9287b4"/>
    </linearGradient>
    <linearGradient id="linear-gradient-2" x1="107.76" y1="15" x2="107.76" y2="127.28" gradientUnits="userSpaceOnUse">
      <stop offset="0" stop-color="#f7f6fb"/>
      <stop offset="0.26" stop-color="#b4b4b4"/>
      <stop offset="0.88" stop-color="#b4b4b4"/>
      <stop offset="1" stop-color="#c0c0c1"/>
    </linearGradient>
  </defs>
  <g id="Layer_2" data-name="Layer 2">
    <g id="buttons">
      <g>
        <g>
          <path class="cls-1" d="M200.52,15V127.28H55a40,40,0,0,1-40-40V55A40,40,0,0,1,55,15H200.52m0-15H55A55.06,55.06,0,0,0,0,55V87.28a55.06,55.06,0,0,0,55,55H200.52a15,15,0,0,0,15-15V15a15,15,0,0,0-15-15Z"/>
          <g>
            <g>
              <path class="cls-2" d="M206.52,121.28H61a40,40,0,0,1-40-40V49A40,40,0,0,1,61,9H206.52Z"/>
              <path class="cls-2" d="M206.52,126.28H61a40,40,0,0,1-40-40V54A40,40,0,0,1,61,14H206.52Z"/>
              <path class="cls-2" d="M201.52,121.28H56a40,40,0,0,1-40-40V49A40,40,0,0,1,56,9H201.52Z"/>
              <path class="cls-2" d="M201.52,126.28H56a40,40,0,0,1-40-40V54A40,40,0,0,1,56,14H201.52Z"/>
              <path class="cls-2" d="M206.52,119.28H61a40,40,0,0,1-40-40V47A40,40,0,0,1,61,7H206.52Z"/>
              <path class="cls-2" d="M206.52,124.28H61a40,40,0,0,1-40-40V52A40,40,0,0,1,61,12H206.52Z"/>
              <path class="cls-2" d="M201.52,119.28H56a40,40,0,0,1-40-40V47A40,40,0,0,1,56,7H201.52Z"/>
              <path class="cls-2" d="M201.52,124.28H56a40,40,0,0,1-40-40V52A40,40,0,0,1,56,12H201.52Z"/>
              <path class="cls-2" d="M203.52,121.28H58a40,40,0,0,1-40-40V49A40,40,0,0,1,58,9H203.52Z"/>
              <path class="cls-2" d="M203.52,126.28H58a40,40,0,0,1-40-40V54A40,40,0,0,1,58,14H203.52Z"/>
              <path class="cls-2" d="M198.52,121.28H53a40,40,0,0,1-40-40V49A40,40,0,0,1,53,9H198.52Z"/>
              <path class="cls-2" d="M198.52,126.28H53a40,40,0,0,1-40-40V54A40,40,0,0,1,53,14H198.52Z"/>
              <path class="cls-2" d="M203.52,119.28H58a40,40,0,0,1-40-40V47A40,40,0,0,1,58,7H203.52Z"/>
              <path class="cls-2" d="M203.52,124.28H58a40,40,0,0,1-40-40V52A40,40,0,0,1,58,12H203.52Z"/>
              <path class="cls-2" d="M198.52,119.28H53a40,40,0,0,1-40-40V47A40,40,0,0,1,53,7H198.52Z"/>
              <path class="cls-2" d="M198.52,124.28H53a40,40,0,0,1-40-40V52A40,40,0,0,1,53,12H198.52Z"/>
              <path class="cls-2" d="M206.52,124.28H61a40,40,0,0,1-40-40V52A40,40,0,0,1,61,12H206.52Z"/>
              <path class="cls-2" d="M206.52,129.28H61a40,40,0,0,1-40-40V57A40,40,0,0,1,61,17H206.52Z"/>
              <path class="cls-2" d="M201.52,124.28H56a40,40,0,0,1-40-40V52A40,40,0,0,1,56,12H201.52Z"/>
              <path class="cls-2" d="M201.52,129.28H56a40,40,0,0,1-40-40V57A40,40,0,0,1,56,17H201.52Z"/>
              <path class="cls-2" d="M206.52,122.28H61a40,40,0,0,1-40-40V50A40,40,0,0,1,61,10H206.52Z"/>
              <path class="cls-2" d="M206.52,127.28H61a40,40,0,0,1-40-40V55A40,40,0,0,1,61,15H206.52Z"/>
              <path class="cls-2" d="M201.52,122.28H56a40,40,0,0,1-40-40V50A40,40,0,0,1,56,10H201.52Z"/>
              <path class="cls-2" d="M201.52,127.28H56a40,40,0,0,1-40-40V55A40,40,0,0,1,56,15H201.52Z"/>
              <path class="cls-2" d="M203.52,124.28H58a40,40,0,0,1-40-40V52A40,40,0,0,1,58,12H203.52Z"/>
              <path class="cls-2" d="M203.52,129.28H58a40,40,0,0,1-40-40V57A40,40,0,0,1,58,17H203.52Z"/>
              <path class="cls-2" d="M198.52,124.28H53a40,40,0,0,1-40-40V52A40,40,0,0,1,53,12H198.52Z"/>
              <path class="cls-2" d="M198.52,129.28H53a40,40,0,0,1-40-40V57A40,40,0,0,1,53,17H198.52Z"/>
              <path class="cls-2" d="M203.52,122.28H58a40,40,0,0,1-40-40V50A40,40,0,0,1,58,10H203.52Z"/>
              <path class="cls-2" d="M203.52,127.28H58a40,40,0,0,1-40-40V55A40,40,0,0,1,58,15H203.52Z"/>
              <path class="cls-2" d="M198.52,122.28H53a40,40,0,0,1-40-40V50A40,40,0,0,1,53,10H198.52Z"/>
              <path class="cls-2" d="M198.52,127.28H53a40,40,0,0,1-40-40V55A40,40,0,0,1,53,15H198.52Z"/>
            </g>
            <g>
              <g>
                <path class="cls-2" d="M208.52,121.28H63a40,40,0,0,1-40-40V49A40,40,0,0,1,63,9H208.52Z"/>
                <path class="cls-2" d="M208.52,126.28H63a40,40,0,0,1-40-40V54A40,40,0,0,1,63,14H208.52Z"/>
                <path class="cls-2" d="M203.52,121.28H58a40,40,0,0,1-40-40V49A40,40,0,0,1,58,9H203.52Z"/>
                <path class="cls-2" d="M203.52,126.28H58a40,40,0,0,1-40-40V54A40,40,0,0,1,58,14H203.52Z"/>
                <path class="cls-2" d="M208.52,119.28H63a40,40,0,0,1-40-40V47A40,40,0,0,1,63,7H208.52Z"/>
                <path class="cls-2" d="M208.52,124.28H63a40,40,0,0,1-40-40V52A40,40,0,0,1,63,12H208.52Z"/>
                <path class="cls-2" d="M203.52,119.28H58a40,40,0,0,1-40-40V47A40,40,0,0,1,58,7H203.52Z"/>
                <path class="cls-2" d="M203.52,124.28H58a40,40,0,0,1-40-40V52A40,40,0,0,1,58,12H203.52Z"/>
                <path class="cls-2" d="M205.52,121.28H60a40,40,0,0,1-40-40V49A40,40,0,0,1,60,9H205.52Z"/>
                <path class="cls-2" d="M205.52,126.28H60a40,40,0,0,1-40-40V54A40,40,0,0,1,60,14H205.52Z"/>
                <path class="cls-2" d="M200.52,121.28H55a40,40,0,0,1-40-40V49A40,40,0,0,1,55,9H200.52Z"/>
                <path class="cls-2" d="M200.52,126.28H55a40,40,0,0,1-40-40V54A40,40,0,0,1,55,14H200.52Z"/>
                <path class="cls-2" d="M205.52,119.28H60a40,40,0,0,1-40-40V47A40,40,0,0,1,60,7H205.52Z"/>
                <path class="cls-2" d="M205.52,124.28H60a40,40,0,0,1-40-40V52A40,40,0,0,1,60,12H205.52Z"/>
                <path class="cls-2" d="M200.52,119.28H55a40,40,0,0,1-40-40V47A40,40,0,0,1,55,7H200.52Z"/>
                <path class="cls-2" d="M200.52,124.28H55a40,40,0,0,1-40-40V52A40,40,0,0,1,55,12H200.52Z"/>
              </g>
              <g>
                <g>
                  <path class="cls-2" d="M208.52,124.28H63a40,40,0,0,1-40-40V52A40,40,0,0,1,63,12H208.52Z"/>
                  <path class="cls-2" d="M208.52,129.28H63a40,40,0,0,1-40-40V57A40,40,0,0,1,63,17H208.52Z"/>
                  <path class="cls-2" d="M203.52,124.28H58a40,40,0,0,1-40-40V52A40,40,0,0,1,58,12H203.52Z"/>
                  <path class="cls-2" d="M203.52,129.28H58a40,40,0,0,1-40-40V57A40,40,0,0,1,58,17H203.52Z"/>
                  <path class="cls-2" d="M208.52,122.28H63a40,40,0,0,1-40-40V50A40,40,0,0,1,63,10H208.52Z"/>
                  <path class="cls-2" d="M208.52,127.28H63a40,40,0,0,1-40-40V55A40,40,0,0,1,63,15H208.52Z"/>
                  <path class="cls-2" d="M203.52,122.28H58a40,40,0,0,1-40-40V50A40,40,0,0,1,58,10H203.52Z"/>
                  <path class="cls-2" d="M203.52,127.28H58a40,40,0,0,1-40-40V55A40,40,0,0,1,58,15H203.52Z"/>
                </g>
                <g>
                  <g>
                    <path class="cls-2" d="M205.52,124.28H60a40,40,0,0,1-40-40V52A40,40,0,0,1,60,12H205.52Z"/>
                    <path class="cls-2" d="M205.52,129.28H60a40,40,0,0,1-40-40V57A40,40,0,0,1,60,17H205.52Z"/>
                    <path class="cls-2" d="M200.52,124.28H55a40,40,0,0,1-40-40V52A40,40,0,0,1,55,12H200.52Z"/>
                    <path class="cls-2" d="M200.52,129.28H55a40,40,0,0,1-40-40V57A40,40,0,0,1,55,17H200.52Z"/>
                  </g>
                  <g>
                    <g>
                      <path d="M205.52,122.28H60a40,40,0,0,1-40-40V50A40,40,0,0,1,60,10H205.52Z"/>
                      <path d="M205.52,127.28H60a40,40,0,0,1-40-40V55A40,40,0,0,1,60,15H205.52Z"/>
                    </g>
                    <g>
                      <path d="M200.52,122.28H55a40,40,0,0,1-40-40V50A40,40,0,0,1,55,10H200.52Z"/>
                      <path class="cls-3" d="M200.52,127.28H55a40,40,0,0,1-40-40V55A40,40,0,0,1,55,15H200.52Z"/>
                    </g>
                  </g>
                </g>
              </g>
            </g>
          </g>
        </g>
        <polygon class="cls-4" points="88.4 71.22 127.08 93.55 127.08 48.89 88.4 71.22"/>
      </g>
    </g>
  </g>
</svg>
