<svg xmlns="http://www.w3.org/2000/svg" xmlns:xlink="http://www.w3.org/1999/xlink" viewBox="0 0 215.52 142.28">
  <defs>
    <style>
      .cls-1 {
        fill: url(#linear-gradient);
      }

      .cls-2 {
        fill: #363556;
      }

      .cls-3 {
        fill: url(#linear-gradient-2);
      }

      .cls-4 {
        fill: #4d4d4d;
      }
    </style>
    <linearGradient id="linear-gradient" x1="107.76" y1="142.28" x2="107.76" gradientUnits="userSpaceOnUse">
      <stop offset="0" stop-color="#5e5b86"/>
      <stop offset="1" stop-color="#9287b4"/>
    </linearGradient>
    <linearGradient id="linear-gradient-2" x1="107.76" y1="15" x2="107.76" y2="127.28" gradientUnits="userSpaceOnUse">
      <stop offset="0" stop-color="#f7f6fb"/>
      <stop offset="0.26" stop-color="#b4b4b4"/>
      <stop offset="0.88" stop-color="#b4b4b4"/>
      <stop offset="1" stop-color="#c0c0c1"/>
    </linearGradient>
  </defs>
  <g id="Layer_2" data-name="Layer 2">
    <g id="buttons">
      <g>
        <g>
          <path class="cls-1" d="M160.52,15a40,40,0,0,1,40,40V87.28a40,40,0,0,1-40,40H15V15H160.52m0-15H15A15,15,0,0,0,0,15V127.28a15,15,0,0,0,15,15H160.52a55.06,55.06,0,0,0,55-55V55a55.06,55.06,0,0,0-55-55Z"/>
          <g>
            <g>
              <path class="cls-2" d="M154.52,121.28H9V9H154.52a40,40,0,0,1,40,40V81.28A40,40,0,0,1,154.52,121.28Z"/>
              <path class="cls-2" d="M154.52,126.28H9V14H154.52a40,40,0,0,1,40,40V86.28A40,40,0,0,1,154.52,126.28Z"/>
              <path class="cls-2" d="M159.52,121.28H14V9H159.52a40,40,0,0,1,40,40V81.28A40,40,0,0,1,159.52,121.28Z"/>
              <path class="cls-2" d="M159.52,126.28H14V14H159.52a40,40,0,0,1,40,40V86.28A40,40,0,0,1,159.52,126.28Z"/>
              <path class="cls-2" d="M154.52,119.28H9V7H154.52a40,40,0,0,1,40,40V79.28A40,40,0,0,1,154.52,119.28Z"/>
              <path class="cls-2" d="M154.52,124.28H9V12H154.52a40,40,0,0,1,40,40V84.28A40,40,0,0,1,154.52,124.28Z"/>
              <path class="cls-2" d="M159.52,119.28H14V7H159.52a40,40,0,0,1,40,40V79.28A40,40,0,0,1,159.52,119.28Z"/>
              <path class="cls-2" d="M159.52,124.28H14V12H159.52a40,40,0,0,1,40,40V84.28A40,40,0,0,1,159.52,124.28Z"/>
              <path class="cls-2" d="M157.52,121.28H12V9H157.52a40,40,0,0,1,40,40V81.28A40,40,0,0,1,157.52,121.28Z"/>
              <path class="cls-2" d="M157.52,126.28H12V14H157.52a40,40,0,0,1,40,40V86.28A40,40,0,0,1,157.52,126.28Z"/>
              <path class="cls-2" d="M162.52,121.28H17V9H162.52a40,40,0,0,1,40,40V81.28A40,40,0,0,1,162.52,121.28Z"/>
              <path class="cls-2" d="M162.52,126.28H17V14H162.52a40,40,0,0,1,40,40V86.28A40,40,0,0,1,162.52,126.28Z"/>
              <path class="cls-2" d="M157.52,119.28H12V7H157.52a40,40,0,0,1,40,40V79.28A40,40,0,0,1,157.52,119.28Z"/>
              <path class="cls-2" d="M157.52,124.28H12V12H157.52a40,40,0,0,1,40,40V84.28A40,40,0,0,1,157.52,124.28Z"/>
              <path class="cls-2" d="M162.52,119.28H17V7H162.52a40,40,0,0,1,40,40V79.28A40,40,0,0,1,162.52,119.28Z"/>
              <path class="cls-2" d="M162.52,124.28H17V12H162.52a40,40,0,0,1,40,40V84.28A40,40,0,0,1,162.52,124.28Z"/>
              <path class="cls-2" d="M154.52,124.28H9V12H154.52a40,40,0,0,1,40,40V84.28A40,40,0,0,1,154.52,124.28Z"/>
              <path class="cls-2" d="M154.52,129.28H9V17H154.52a40,40,0,0,1,40,40V89.28A40,40,0,0,1,154.52,129.28Z"/>
              <path class="cls-2" d="M159.52,124.28H14V12H159.52a40,40,0,0,1,40,40V84.28A40,40,0,0,1,159.52,124.28Z"/>
              <path class="cls-2" d="M159.52,129.28H14V17H159.52a40,40,0,0,1,40,40V89.28A40,40,0,0,1,159.52,129.28Z"/>
              <path class="cls-2" d="M154.52,122.28H9V10H154.52a40,40,0,0,1,40,40V82.28A40,40,0,0,1,154.52,122.28Z"/>
              <path class="cls-2" d="M154.52,127.28H9V15H154.52a40,40,0,0,1,40,40V87.28A40,40,0,0,1,154.52,127.28Z"/>
              <path class="cls-2" d="M159.52,122.28H14V10H159.52a40,40,0,0,1,40,40V82.28A40,40,0,0,1,159.52,122.28Z"/>
              <path class="cls-2" d="M159.52,127.28H14V15H159.52a40,40,0,0,1,40,40V87.28A40,40,0,0,1,159.52,127.28Z"/>
              <path class="cls-2" d="M157.52,124.28H12V12H157.52a40,40,0,0,1,40,40V84.28A40,40,0,0,1,157.52,124.28Z"/>
              <path class="cls-2" d="M157.52,129.28H12V17H157.52a40,40,0,0,1,40,40V89.28A40,40,0,0,1,157.52,129.28Z"/>
              <path class="cls-2" d="M162.52,124.28H17V12H162.52a40,40,0,0,1,40,40V84.28A40,40,0,0,1,162.52,124.28Z"/>
              <path class="cls-2" d="M162.52,129.28H17V17H162.52a40,40,0,0,1,40,40V89.28A40,40,0,0,1,162.52,129.28Z"/>
              <path class="cls-2" d="M157.52,122.28H12V10H157.52a40,40,0,0,1,40,40V82.28A40,40,0,0,1,157.52,122.28Z"/>
              <path class="cls-2" d="M157.52,127.28H12V15H157.52a40,40,0,0,1,40,40V87.28A40,40,0,0,1,157.52,127.28Z"/>
              <path class="cls-2" d="M162.52,122.28H17V10H162.52a40,40,0,0,1,40,40V82.28A40,40,0,0,1,162.52,122.28Z"/>
              <path class="cls-2" d="M162.52,127.28H17V15H162.52a40,40,0,0,1,40,40V87.28A40,40,0,0,1,162.52,127.28Z"/>
            </g>
            <g>
              <g>
                <path class="cls-2" d="M152.52,121.28H7V9H152.52a40,40,0,0,1,40,40V81.28A40,40,0,0,1,152.52,121.28Z"/>
                <path class="cls-2" d="M152.52,126.28H7V14H152.52a40,40,0,0,1,40,40V86.28A40,40,0,0,1,152.52,126.28Z"/>
                <path class="cls-2" d="M157.52,121.28H12V9H157.52a40,40,0,0,1,40,40V81.28A40,40,0,0,1,157.52,121.28Z"/>
                <path class="cls-2" d="M157.52,126.28H12V14H157.52a40,40,0,0,1,40,40V86.28A40,40,0,0,1,157.52,126.28Z"/>
                <path class="cls-2" d="M152.52,119.28H7V7H152.52a40,40,0,0,1,40,40V79.28A40,40,0,0,1,152.52,119.28Z"/>
                <path class="cls-2" d="M152.52,124.28H7V12H152.52a40,40,0,0,1,40,40V84.28A40,40,0,0,1,152.52,124.28Z"/>
                <path class="cls-2" d="M157.52,119.28H12V7H157.52a40,40,0,0,1,40,40V79.28A40,40,0,0,1,157.52,119.28Z"/>
                <path class="cls-2" d="M157.52,124.28H12V12H157.52a40,40,0,0,1,40,40V84.28A40,40,0,0,1,157.52,124.28Z"/>
                <path class="cls-2" d="M155.52,121.28H10V9H155.52a40,40,0,0,1,40,40V81.28A40,40,0,0,1,155.52,121.28Z"/>
                <path class="cls-2" d="M155.52,126.28H10V14H155.52a40,40,0,0,1,40,40V86.28A40,40,0,0,1,155.52,126.28Z"/>
                <path class="cls-2" d="M160.52,121.28H15V9H160.52a40,40,0,0,1,40,40V81.28A40,40,0,0,1,160.52,121.28Z"/>
                <path class="cls-2" d="M160.52,126.28H15V14H160.52a40,40,0,0,1,40,40V86.28A40,40,0,0,1,160.52,126.28Z"/>
                <path class="cls-2" d="M155.52,119.28H10V7H155.52a40,40,0,0,1,40,40V79.28A40,40,0,0,1,155.52,119.28Z"/>
                <path class="cls-2" d="M155.52,124.28H10V12H155.52a40,40,0,0,1,40,40V84.28A40,40,0,0,1,155.52,124.28Z"/>
                <path class="cls-2" d="M160.52,119.28H15V7H160.52a40,40,0,0,1,40,40V79.28A40,40,0,0,1,160.52,119.28Z"/>
                <path class="cls-2" d="M160.52,124.28H15V12H160.52a40,40,0,0,1,40,40V84.28A40,40,0,0,1,160.52,124.28Z"/>
              </g>
              <g>
                <g>
                  <path class="cls-2" d="M152.52,124.28H7V12H152.52a40,40,0,0,1,40,40V84.28A40,40,0,0,1,152.52,124.28Z"/>
                  <path class="cls-2" d="M152.52,129.28H7V17H152.52a40,40,0,0,1,40,40V89.28A40,40,0,0,1,152.52,129.28Z"/>
                  <path class="cls-2" d="M157.52,124.28H12V12H157.52a40,40,0,0,1,40,40V84.28A40,40,0,0,1,157.52,124.28Z"/>
                  <path class="cls-2" d="M157.52,129.28H12V17H157.52a40,40,0,0,1,40,40V89.28A40,40,0,0,1,157.52,129.28Z"/>
                  <path class="cls-2" d="M152.52,122.28H7V10H152.52a40,40,0,0,1,40,40V82.28A40,40,0,0,1,152.52,122.28Z"/>
                  <path class="cls-2" d="M152.52,127.28H7V15H152.52a40,40,0,0,1,40,40V87.28A40,40,0,0,1,152.52,127.28Z"/>
                  <path class="cls-2" d="M157.52,122.28H12V10H157.52a40,40,0,0,1,40,40V82.28A40,40,0,0,1,157.52,122.28Z"/>
                  <path class="cls-2" d="M157.52,127.28H12V15H157.52a40,40,0,0,1,40,40V87.28A40,40,0,0,1,157.52,127.28Z"/>
                </g>
                <g>
                  <g>
                    <path class="cls-2" d="M155.52,124.28H10V12H155.52a40,40,0,0,1,40,40V84.28A40,40,0,0,1,155.52,124.28Z"/>
                    <path class="cls-2" d="M155.52,129.28H10V17H155.52a40,40,0,0,1,40,40V89.28A40,40,0,0,1,155.52,129.28Z"/>
                    <path class="cls-2" d="M160.52,124.28H15V12H160.52a40,40,0,0,1,40,40V84.28A40,40,0,0,1,160.52,124.28Z"/>
                    <path class="cls-2" d="M160.52,129.28H15V17H160.52a40,40,0,0,1,40,40V89.28A40,40,0,0,1,160.52,129.28Z"/>
                  </g>
                  <g>
                    <g>
                      <path d="M155.52,122.28H10V10H155.52a40,40,0,0,1,40,40V82.28A40,40,0,0,1,155.52,122.28Z"/>
                      <path d="M155.52,127.28H10V15H155.52a40,40,0,0,1,40,40V87.28A40,40,0,0,1,155.52,127.28Z"/>
                    </g>
                    <g>
                      <path d="M160.52,122.28H15V10H160.52a40,40,0,0,1,40,40V82.28A40,40,0,0,1,160.52,122.28Z"/>
                      <path class="cls-3" d="M160.52,127.28H15V15H160.52a40,40,0,0,1,40,40V87.28A40,40,0,0,1,160.52,127.28Z"/>
                    </g>
                  </g>
                </g>
              </g>
            </g>
          </g>
        </g>
        <polygon class="cls-4" points="126.38 71.22 87.7 93.55 87.7 48.89 126.38 71.22"/>
      </g>
    </g>
  </g>
</svg>
