<svg xmlns="http://www.w3.org/2000/svg" xmlns:xlink="http://www.w3.org/1999/xlink" viewBox="0 0 144 144">
  <defs>
    <style>
      .cls-1 {
        fill: url(#linear-gradient);
      }

      .cls-2 {
        fill: url(#linear-gradient-2);
      }

      .cls-3 {
        fill: #1a1a1a;
      }
    </style>
    <linearGradient id="linear-gradient" x1="72" y1="144" x2="72" gradientUnits="userSpaceOnUse">
      <stop offset="0" stop-color="#5e5b86"/>
      <stop offset="1" stop-color="#9287b4"/>
    </linearGradient>
    <linearGradient id="linear-gradient-2" x1="72" y1="15" x2="72" y2="129" gradientUnits="userSpaceOnUse">
      <stop offset="0" stop-color="#757575"/>
      <stop offset="0.37" stop-color="#6b6b6b"/>
      <stop offset="0.46" stop-color="#6d6d6d"/>
      <stop offset="1" stop-color="#757575"/>
    </linearGradient>
  </defs>
  <g id="Layer_2" data-name="Layer 2">
    <g id="buttons">
      <g>
        <path class="cls-1" d="M72,15A57,57,0,1,1,15,72,57,57,0,0,1,72,15M72,0a72,72,0,1,0,72,72A72.08,72.08,0,0,0,72,0Z"/>
        <circle class="cls-2" cx="72" cy="72" r="57"/>
        <path class="cls-3" d="M72,15A57,57,0,1,1,15,72,57,57,0,0,1,72,15m0-1a58,58,0,1,0,58,58A58.07,58.07,0,0,0,72,14Z"/>
      </g>
    </g>
  </g>
</svg>
