<svg xmlns="http://www.w3.org/2000/svg" xmlns:xlink="http://www.w3.org/1999/xlink" viewBox="0 0 104 104">
  <defs>
    <style>
      .cls-1 {
        fill: none;
      }

      .cls-2 {
        fill: url(#linear-gradient);
      }

      .cls-3 {
        clip-path: url(#clip-path);
      }

      .cls-4 {
        fill: #0b0d0c;
      }

      .cls-5 {
        fill: #090a09;
      }

      .cls-6 {
        fill: #070807;
      }

      .cls-7 {
        fill: #050605;
      }

      .cls-8 {
        fill: #040404;
      }

      .cls-9 {
        fill: #020303;
      }

      .cls-10 {
        fill: #020202;
      }

      .cls-11 {
        fill: #010101;
      }

      .cls-12 {
        fill: url(#linear-gradient-2);
      }

      .cls-13 {
        fill: #b2b2b2;
      }

      .cls-14 {
        clip-path: url(#clip-path-2);
      }

      .cls-15 {
        fill: #232626;
      }

      .cls-16 {
        fill: #212424;
      }

      .cls-17 {
        fill: #202323;
      }

      .cls-18 {
        fill: #1f2222;
      }

      .cls-19 {
        clip-path: url(#clip-path-3);
      }

      .cls-20 {
        clip-path: url(#clip-path-4);
      }
    </style>
    <linearGradient id="linear-gradient" x1="34.21" y1="100.87" x2="69.79" y2="3.13" gradientUnits="userSpaceOnUse">
      <stop offset="0" stop-color="#b2b2b2"/>
      <stop offset="0.02" stop-color="#919191"/>
      <stop offset="0.05" stop-color="#717171"/>
      <stop offset="0.09" stop-color="#565656"/>
      <stop offset="0.13" stop-color="#404040"/>
      <stop offset="0.17" stop-color="#2f2f2f"/>
      <stop offset="0.22" stop-color="#232323"/>
      <stop offset="0.3" stop-color="#1c1c1c"/>
      <stop offset="0.5" stop-color="#1a1a1a"/>
      <stop offset="0.7" stop-color="#1c1c1c"/>
      <stop offset="0.78" stop-color="#232323"/>
      <stop offset="0.83" stop-color="#2f2f2f"/>
      <stop offset="0.87" stop-color="#404040"/>
      <stop offset="0.91" stop-color="#565656"/>
      <stop offset="0.95" stop-color="#727272"/>
      <stop offset="0.98" stop-color="#929292"/>
      <stop offset="1" stop-color="#b2b2b2"/>
    </linearGradient>
    <clipPath id="clip-path">
      <circle class="cls-1" cx="52" cy="52" r="46"/>
    </clipPath>
    <linearGradient id="linear-gradient-2" x1="36.71" y1="94.01" x2="67.29" y2="9.99" gradientUnits="userSpaceOnUse">
      <stop offset="0" stop-color="#0e0e0f"/>
      <stop offset="0.5" stop-color="#1a1a1a"/>
      <stop offset="0.84" stop-color="#181818"/>
      <stop offset="0.97" stop-color="#111112"/>
      <stop offset="1" stop-color="#0e0e0f"/>
    </linearGradient>
    <clipPath id="clip-path-2">
      <polygon class="cls-1" points="61.2 51.85 30.06 42.96 30.06 60.74 61.2 51.85"/>
    </clipPath>
    <clipPath id="clip-path-3">
      <rect class="cls-1" x="61.2" y="42.83" width="4.25" height="18.05"/>
    </clipPath>
    <clipPath id="clip-path-4">
      <rect class="cls-1" x="69.7" y="42.83" width="4.25" height="18.05"/>
    </clipPath>
  </defs>
  <g id="Layer_2" data-name="Layer 2">
    <g id="Layer_1-2" data-name="Layer 1">
      <g>
        <g>
          <path class="cls-2" d="M52,104a52,52,0,1,1,52-52A52.06,52.06,0,0,1,52,104Zm0-92A40,40,0,1,0,92,52,40,40,0,0,0,52,12Z"/>
          <path d="M52,103a51,51,0,1,1,51-51A51.06,51.06,0,0,1,52,103Zm0-92A41,41,0,1,0,93,52,41,41,0,0,0,52,11Z"/>
          <g class="cls-3">
            <rect class="cls-4" x="6" y="6" width="92" height="92"/>
            <circle class="cls-4" cx="52" cy="52" r="46"/>
            <circle class="cls-5" cx="52" cy="52" r="42.46"/>
            <circle class="cls-6" cx="52" cy="52" r="38.92"/>
            <circle class="cls-7" cx="52" cy="52" r="35.38"/>
            <circle class="cls-8" cx="52" cy="52" r="31.85"/>
            <circle class="cls-9" cx="52" cy="52" r="28.31"/>
            <circle class="cls-10" cx="52" cy="52" r="24.77"/>
            <circle class="cls-11" cx="52" cy="52" r="21.23"/>
            <circle class="cls-11" cx="52" cy="52" r="17.69"/>
            <circle cx="52" cy="52" r="14.15"/>
            <circle cx="52" cy="52" r="10.62"/>
            <circle cx="52" cy="52" r="7.08"/>
            <circle cx="52" cy="52" r="3.54"/>
          </g>
          <path class="cls-12" d="M52,96.7A44.7,44.7,0,1,1,96.7,52,44.75,44.75,0,0,1,52,96.7ZM52,9.3A42.7,42.7,0,1,0,94.7,52,42.75,42.75,0,0,0,52,9.3Z"/>
        </g>
        <g>
          <g>
            <polygon class="cls-13" points="61.2 51.85 30.06 42.96 30.06 60.74 61.2 51.85"/>
            <rect class="cls-13" x="61.2" y="42.83" width="4.25" height="18.05"/>
            <rect class="cls-13" x="69.7" y="42.83" width="4.25" height="18.05"/>
          </g>
          <g>
            <g class="cls-14">
              <rect class="cls-15" x="30.06" y="42.96" width="31.15" height="17.78"/>
              <circle class="cls-15" cx="52" cy="51.85" r="16.78"/>
              <circle class="cls-16" cx="52" cy="51.85" r="12.58"/>
              <circle class="cls-17" cx="52" cy="51.85" r="8.39"/>
              <circle class="cls-18" cx="52" cy="51.85" r="4.19"/>
            </g>
            <g class="cls-19">
              <rect class="cls-15" x="61.2" y="42.83" width="4.25" height="18.05"/>
              <path class="cls-15" d="M68.78,51.85a16.7,16.7,0,0,1-4.92,11.86V61.88H60.2V41.83h3.66V40A16.7,16.7,0,0,1,68.78,51.85Z"/>
              <path class="cls-16" d="M64.58,51.85A12.56,12.56,0,0,1,56.9,63.44l3.3-1.56V41.83l-3.3-1.57a12.56,12.56,0,0,1,7.68,11.59Z"/>
              <path class="cls-17" d="M60.39,51.85a8.35,8.35,0,0,1-2.46,5.93H60.2V45.92H57.93A8.35,8.35,0,0,1,60.39,51.85Z"/>
              <path class="cls-18" d="M60.2,51.85v0Z"/>
            </g>
            <g class="cls-20">
              <rect class="cls-15" x="69.7" y="42.83" width="4.25" height="18.05"/>
              <path class="cls-15" d="M68.78,51.85a16.7,16.7,0,0,1-4.92,11.86l4.84-1.83V41.83L63.86,40A16.7,16.7,0,0,1,68.78,51.85Z"/>
              <path class="cls-16" d="M68.7,51.85v0Z"/>
              <path class="cls-17" d="M68.7,51.85v0Z"/>
              <path class="cls-18" d="M68.7,51.85v0Z"/>
            </g>
          </g>
        </g>
      </g>
    </g>
  </g>
</svg>
