<svg xmlns="http://www.w3.org/2000/svg" xmlns:xlink="http://www.w3.org/1999/xlink" viewBox="0 0 104 104">
  <defs>
    <style>
      .cls-1 {
        fill: none;
      }

      .cls-2 {
        fill: url(#Button_Gradient);
      }

      .cls-3 {
        clip-path: url(#clip-path);
      }

      .cls-4 {
        fill: #1a1a1a;
      }

      .cls-5 {
        fill: #191919;
      }

      .cls-6 {
        fill: #181818;
      }

      .cls-7 {
        fill: #171717;
      }

      .cls-8 {
        fill: #161616;
      }

      .cls-9 {
        fill: #151515;
      }

      .cls-10 {
        fill: #141414;
      }

      .cls-11 {
        fill: #131313;
      }

      .cls-12 {
        fill: #121212;
      }

      .cls-13 {
        fill: #111;
      }

      .cls-14 {
        fill: #101010;
      }

      .cls-15 {
        fill: #0f0f0f;
      }

      .cls-16 {
        fill: #0e0e0e;
      }

      .cls-17 {
        fill: #0c0c0c;
      }

      .cls-18 {
        fill: #0b0b0b;
      }

      .cls-19 {
        fill: #0a0a0a;
      }

      .cls-20 {
        fill: #080808;
      }

      .cls-21 {
        fill: #070707;
      }

      .cls-22 {
        fill: #050505;
      }

      .cls-23 {
        fill: #030303;
      }

      .cls-24 {
        fill: #020202;
      }

      .cls-25 {
        fill: url(#linear-gradient);
      }

      .cls-26 {
        fill: #b2b2b2;
      }

      .cls-27 {
        clip-path: url(#clip-path-2);
      }

      .cls-28 {
        fill: #b0b0b0;
      }

      .cls-29 {
        fill: #afafaf;
      }

      .cls-30 {
        fill: #adadad;
      }

      .cls-31 {
        fill: #ababab;
      }

      .cls-32 {
        fill: #aaa;
      }

      .cls-33 {
        fill: #a8a8a8;
      }

      .cls-34 {
        fill: #a7a7a7;
      }

      .cls-35 {
        fill: #a5a5a5;
      }

      .cls-36 {
        fill: #a4a4a4;
      }

      .cls-37 {
        fill: #a3a3a3;
      }

      .cls-38 {
        fill: #a2a2a2;
      }

      .cls-39 {
        fill: #a0a0a0;
      }

      .cls-40 {
        fill: #9f9f9f;
      }

      .cls-41 {
        fill: #9e9e9e;
      }

      .cls-42 {
        fill: #9d9d9d;
      }

      .cls-43 {
        fill: #9c9c9c;
      }

      .cls-44 {
        fill: #9b9b9b;
      }

      .cls-45 {
        fill: #9a9a9a;
      }

      .cls-46 {
        fill: #999;
      }

      .cls-47 {
        fill: #989898;
      }

      .cls-48 {
        clip-path: url(#clip-path-3);
      }

      .cls-49 {
        clip-path: url(#clip-path-4);
      }
    </style>
    <linearGradient id="Button_Gradient" data-name="Button Gradient" x1="34.21" y1="100.87" x2="69.79" y2="3.13" gradientUnits="userSpaceOnUse">
      <stop offset="0" stop-color="#b2b2b2"/>
      <stop offset="0.02" stop-color="#919191"/>
      <stop offset="0.05" stop-color="#717171"/>
      <stop offset="0.09" stop-color="#565656"/>
      <stop offset="0.13" stop-color="#404040"/>
      <stop offset="0.17" stop-color="#2f2f2f"/>
      <stop offset="0.22" stop-color="#232323"/>
      <stop offset="0.3" stop-color="#1c1c1c"/>
      <stop offset="0.5" stop-color="#1a1a1a"/>
      <stop offset="0.7" stop-color="#1c1c1c"/>
      <stop offset="0.78" stop-color="#232323"/>
      <stop offset="0.83" stop-color="#2f2f2f"/>
      <stop offset="0.87" stop-color="#404040"/>
      <stop offset="0.91" stop-color="#565656"/>
      <stop offset="0.95" stop-color="#727272"/>
      <stop offset="0.98" stop-color="#929292"/>
      <stop offset="1" stop-color="#b2b2b2"/>
    </linearGradient>
    <clipPath id="clip-path">
      <circle class="cls-1" cx="52" cy="52" r="46"/>
    </clipPath>
    <linearGradient id="linear-gradient" x1="35.92" y1="96.17" x2="68.08" y2="7.83" xlink:href="#Button_Gradient"/>
    <clipPath id="clip-path-2">
      <polygon class="cls-1" points="61.69 52 28.9 42.64 28.9 61.36 61.69 52"/>
    </clipPath>
    <clipPath id="clip-path-3">
      <rect class="cls-1" x="61.69" y="42.5" width="4.47" height="19"/>
    </clipPath>
    <clipPath id="clip-path-4">
      <rect class="cls-1" x="70.63" y="42.5" width="4.47" height="19"/>
    </clipPath>
  </defs>
  <g id="Layer_2" data-name="Layer 2">
    <g id="Layer_1-2" data-name="Layer 1">
      <g>
        <g>
          <path class="cls-2" d="M52,104a52,52,0,1,1,52-52A52.06,52.06,0,0,1,52,104Zm0-92A40,40,0,1,0,92,52,40,40,0,0,0,52,12Z"/>
          <path d="M52,103a51,51,0,1,1,51-51A51.06,51.06,0,0,1,52,103Zm0-92A41,41,0,1,0,93,52,41,41,0,0,0,52,11Z"/>
          <g class="cls-3">
            <rect class="cls-4" x="6" y="6" width="92" height="92"/>
            <circle class="cls-4" cx="52" cy="52" r="46"/>
            <circle class="cls-4" cx="52" cy="52" r="44.23"/>
            <circle class="cls-4" cx="52" cy="52" r="42.46"/>
            <circle class="cls-5" cx="52" cy="52" r="40.69"/>
            <circle class="cls-5" cx="52" cy="52" r="38.92"/>
            <circle class="cls-6" cx="52" cy="52" r="37.15"/>
            <circle class="cls-6" cx="52" cy="52" r="35.38"/>
            <circle class="cls-7" cx="52" cy="52" r="33.62"/>
            <circle class="cls-8" cx="52" cy="52" r="31.85"/>
            <circle class="cls-9" cx="52" cy="52" r="30.08"/>
            <circle class="cls-10" cx="52" cy="52" r="28.31"/>
            <circle class="cls-11" cx="52" cy="52" r="26.54"/>
            <circle class="cls-12" cx="52" cy="52" r="24.77"/>
            <circle class="cls-13" cx="52" cy="52" r="23"/>
            <circle class="cls-14" cx="52" cy="52" r="21.23"/>
            <circle class="cls-15" cx="52" cy="52" r="19.46"/>
            <circle class="cls-16" cx="52" cy="52" r="17.69"/>
            <circle class="cls-17" cx="52" cy="52" r="15.92"/>
            <circle class="cls-18" cx="52" cy="52" r="14.15"/>
            <circle class="cls-19" cx="52" cy="52" r="12.38"/>
            <circle class="cls-20" cx="52" cy="52" r="10.62"/>
            <circle class="cls-21" cx="52" cy="52" r="8.85"/>
            <circle class="cls-22" cx="52" cy="52" r="7.08"/>
            <circle class="cls-23" cx="52" cy="52" r="5.31"/>
            <circle class="cls-24" cx="52" cy="52" r="3.54"/>
            <circle cx="52" cy="52" r="1.77"/>
          </g>
          <path class="cls-25" d="M52,99A47,47,0,1,1,99,52,47,47,0,0,1,52,99ZM52,7A45,45,0,1,0,97,52,45.05,45.05,0,0,0,52,7Z"/>
        </g>
        <g>
          <g>
            <polygon class="cls-26" points="61.69 52 28.9 42.64 28.9 61.36 61.69 52"/>
            <rect class="cls-26" x="61.69" y="42.5" width="4.47" height="19"/>
            <rect class="cls-26" x="70.63" y="42.5" width="4.47" height="19"/>
          </g>
          <g>
            <g class="cls-27">
              <rect class="cls-26" x="28.9" y="42.64" width="32.78" height="18.71"/>
              <path class="cls-26" d="M62.69,52V62.36H39.51v2.13a17.67,17.67,0,0,1,0-25v2.13H62.69Z"/>
              <circle class="cls-28" cx="52" cy="52" r="16.98"/>
              <circle class="cls-29" cx="52" cy="52" r="16.3"/>
              <circle class="cls-30" cx="52" cy="52" r="15.62"/>
              <circle class="cls-31" cx="52" cy="52" r="14.94"/>
              <circle class="cls-32" cx="52" cy="52" r="14.26"/>
              <circle class="cls-33" cx="52" cy="52" r="13.58"/>
              <circle class="cls-34" cx="52" cy="52" r="12.91"/>
              <circle class="cls-35" cx="52" cy="52" r="12.23"/>
              <circle class="cls-36" cx="52" cy="52" r="11.55"/>
              <circle class="cls-37" cx="52" cy="52" r="10.87"/>
              <circle class="cls-38" cx="52" cy="52" r="10.19"/>
              <circle class="cls-39" cx="52" cy="52" r="9.51"/>
              <circle class="cls-40" cx="52" cy="52" r="8.83"/>
              <circle class="cls-41" cx="52" cy="52" r="8.15"/>
              <circle class="cls-42" cx="52" cy="52" r="7.47"/>
              <circle class="cls-43" cx="52" cy="52" r="6.79"/>
              <circle class="cls-43" cx="52" cy="52" r="6.11"/>
              <circle class="cls-44" cx="52" cy="52" r="5.43"/>
              <circle class="cls-45" cx="52" cy="52" r="4.75"/>
              <circle class="cls-45" cx="52" cy="52" r="4.08"/>
              <circle class="cls-46" cx="52" cy="52" r="3.4"/>
              <circle class="cls-46" cx="52" cy="52" r="2.72"/>
              <circle class="cls-47" cx="52" cy="52" r="2.04"/>
              <circle class="cls-47" cx="52" cy="52" r="1.36"/>
              <circle class="cls-47" cx="52" cy="52" r="0.68"/>
            </g>
            <g class="cls-48">
              <rect class="cls-26" x="61.69" y="42.5" width="4.47" height="19"/>
              <path class="cls-26" d="M69.66,52a17.63,17.63,0,0,1-5.17,12.49v-2h-3.8v-21h3.8v-2A17.63,17.63,0,0,1,69.66,52Z"/>
              <path class="cls-28" d="M69,52a17,17,0,0,1-5,12V62.5H60.69v-21H64V40A17,17,0,0,1,69,52Z"/>
              <path class="cls-29" d="M68.3,52a16.26,16.26,0,0,1-4.77,11.53v-1H60.69v-21h2.84v-1A16.26,16.26,0,0,1,68.3,52Z"/>
              <path class="cls-30" d="M67.62,52a15.62,15.62,0,0,1-4.57,11V62.5H60.69v-21h2.36V41A15.62,15.62,0,0,1,67.62,52Z"/>
              <path class="cls-31" d="M66.94,52a14.92,14.92,0,0,1-4.37,10.57V62.5H60.69v-21h1.88v-.07A14.92,14.92,0,0,1,66.94,52Z"/>
              <path class="cls-32" d="M66.26,52a14.22,14.22,0,0,1-8.71,13.14l3.14-2.64v-21l-3.14-2.64A14.22,14.22,0,0,1,66.26,52Z"/>
              <path class="cls-33" d="M65.58,52a13.57,13.57,0,0,1-8.29,12.52l3.4-2v-21l-3.4-2a13.88,13.88,0,0,1,4.32,2.91A13.58,13.58,0,0,1,65.58,52Z"/>
              <path class="cls-34" d="M64.91,52A12.88,12.88,0,0,1,57,63.89l3.67-1.39v-21L57,40.11A12.88,12.88,0,0,1,64.91,52Z"/>
              <path class="cls-35" d="M64.23,52a12.22,12.22,0,0,1-3.58,8.65h0V43.36h0A12.17,12.17,0,0,1,64.23,52Z"/>
              <path class="cls-36" d="M63.55,52a11.53,11.53,0,0,1-3.39,8.17h.53V43.84h-.53A11.49,11.49,0,0,1,63.55,52Z"/>
              <path class="cls-37" d="M62.87,52a10.85,10.85,0,0,1-3.19,7.69h1V44.32h-1A10.81,10.81,0,0,1,62.87,52Z"/>
              <path class="cls-38" d="M62.19,52a10.13,10.13,0,0,1-3,7.2h1.49V44.8H59.2A10.13,10.13,0,0,1,62.19,52Z"/>
              <path class="cls-39" d="M61.51,52a9.47,9.47,0,0,1-2.79,6.72h2V45.28h-2A9.47,9.47,0,0,1,61.51,52Z"/>
              <path class="cls-40" d="M60.83,52a8.77,8.77,0,0,1-2.59,6.24h2.45V45.76H58.24A8.77,8.77,0,0,1,60.83,52Z"/>
              <path class="cls-41" d="M60.69,52v0Z"/>
              <path class="cls-42" d="M60.69,52v0Z"/>
              <path class="cls-43" d="M60.69,52v0Z"/>
              <path class="cls-43" d="M60.69,52v0Z"/>
              <path class="cls-44" d="M60.69,52v0Z"/>
              <path class="cls-45" d="M60.69,52v0Z"/>
              <path class="cls-45" d="M60.69,52v0Z"/>
              <path class="cls-46" d="M60.69,52v0Z"/>
              <path class="cls-46" d="M60.69,52v0Z"/>
              <path class="cls-47" d="M60.69,52v0Z"/>
              <path class="cls-47" d="M60.69,52v0Z"/>
              <path class="cls-47" d="M60.69,52v0Z"/>
            </g>
            <g class="cls-49">
              <rect class="cls-26" x="70.63" y="42.5" width="4.47" height="19"/>
              <path class="cls-26" d="M69.66,52a17.63,17.63,0,0,1-5.17,12.49l5.14-2v-21l-5.14-2A17.63,17.63,0,0,1,69.66,52Z"/>
              <path class="cls-28" d="M69.63,52v0Z"/>
              <path class="cls-29" d="M69.63,52v0Z"/>
              <path class="cls-30" d="M69.63,52v0Z"/>
              <path class="cls-31" d="M69.63,52v0Z"/>
              <path class="cls-32" d="M69.63,52v0Z"/>
              <path class="cls-33" d="M69.63,52v0Z"/>
              <path class="cls-34" d="M69.63,52v0Z"/>
              <path class="cls-35" d="M69.63,52v0Z"/>
              <path class="cls-36" d="M69.63,52v0Z"/>
              <path class="cls-37" d="M69.63,52v0Z"/>
              <path class="cls-38" d="M69.63,52v0Z"/>
              <path class="cls-39" d="M69.63,52v0Z"/>
              <path class="cls-40" d="M69.63,52v0Z"/>
              <path class="cls-41" d="M69.63,52v0Z"/>
              <path class="cls-42" d="M69.63,52v0Z"/>
              <path class="cls-43" d="M69.63,52v0Z"/>
              <path class="cls-43" d="M69.63,52v0Z"/>
              <path class="cls-44" d="M69.63,52v0Z"/>
              <path class="cls-45" d="M69.63,52v0Z"/>
              <path class="cls-45" d="M69.63,52v0Z"/>
              <path class="cls-46" d="M69.63,52v0Z"/>
              <path class="cls-46" d="M69.63,52v0Z"/>
              <path class="cls-47" d="M69.63,52v0Z"/>
              <path class="cls-47" d="M69.63,52v0Z"/>
              <path class="cls-47" d="M69.63,52v0Z"/>
            </g>
          </g>
        </g>
      </g>
    </g>
  </g>
</svg>
