<svg xmlns="http://www.w3.org/2000/svg" xmlns:xlink="http://www.w3.org/1999/xlink" viewBox="0 0 229 229">
  <defs>
    <style>
      .cls-1 {
        fill: url(#linear-gradient);
      }

      .cls-2 {
        fill: #363556;
      }

      .cls-3 {
        fill: url(#linear-gradient-2);
      }
    </style>
    <linearGradient id="linear-gradient" x1="114.5" y1="229" x2="114.5" gradientUnits="userSpaceOnUse">
      <stop offset="0" stop-color="#5e5b86"/>
      <stop offset="1" stop-color="#9287b4"/>
    </linearGradient>
    <linearGradient id="linear-gradient-2" x1="114.5" y1="15" x2="114.5" y2="214" gradientUnits="userSpaceOnUse">
      <stop offset="0" stop-color="#f7f6fb"/>
      <stop offset="0.26" stop-color="#b4b4b4"/>
      <stop offset="0.88" stop-color="#b4b4b4"/>
      <stop offset="1" stop-color="#c0c0c1"/>
    </linearGradient>
  </defs>
  <g id="Layer_2" data-name="Layer 2">
    <g id="buttons">
      <g>
        <path class="cls-1" d="M114.5,15A99.5,99.5,0,1,1,15,114.5,99.5,99.5,0,0,1,114.5,15m0-15a114.49,114.49,0,0,0-81,195.46A114.49,114.49,0,1,0,195.46,33.54,113.73,113.73,0,0,0,114.5,0Z"/>
        <g>
          <g>
            <circle class="cls-2" cx="114.5" cy="108.5" r="99.5"/>
            <circle class="cls-2" cx="114.5" cy="113.5" r="99.5"/>
            <circle class="cls-2" cx="114.5" cy="106.5" r="99.5"/>
            <circle class="cls-2" cx="114.5" cy="111.5" r="99.5"/>
            <circle class="cls-2" cx="112.5" cy="108.5" r="99.5"/>
            <circle class="cls-2" cx="112.5" cy="113.5" r="99.5"/>
            <circle class="cls-2" cx="112.5" cy="106.5" r="99.5"/>
            <circle class="cls-2" cx="112.5" cy="111.5" r="99.5"/>
            <circle class="cls-2" cx="114.5" cy="111.5" r="99.5"/>
            <circle class="cls-2" cx="114.5" cy="116.5" r="99.5"/>
            <circle class="cls-2" cx="114.5" cy="109.5" r="99.5"/>
            <circle class="cls-2" cx="114.5" cy="114.5" r="99.5"/>
            <circle class="cls-2" cx="112.5" cy="111.5" r="99.5"/>
            <circle class="cls-2" cx="112.5" cy="116.5" r="99.5"/>
            <circle class="cls-2" cx="112.5" cy="109.5" r="99.5"/>
            <circle class="cls-2" cx="112.5" cy="114.5" r="99.5"/>
          </g>
          <g>
            <g>
              <circle class="cls-2" cx="116.5" cy="108.5" r="99.5"/>
              <circle class="cls-2" cx="116.5" cy="113.5" r="99.5"/>
              <circle class="cls-2" cx="116.5" cy="106.5" r="99.5"/>
              <circle class="cls-2" cx="116.5" cy="111.5" r="99.5"/>
              <circle class="cls-2" cx="114.5" cy="108.5" r="99.5"/>
              <circle class="cls-2" cx="114.5" cy="113.5" r="99.5"/>
              <circle class="cls-2" cx="114.5" cy="106.5" r="99.5"/>
              <circle class="cls-2" cx="114.5" cy="111.5" r="99.5"/>
            </g>
            <g>
              <g>
                <circle class="cls-2" cx="116.5" cy="111.5" r="99.5"/>
                <circle class="cls-2" cx="116.5" cy="116.5" r="99.5"/>
                <circle class="cls-2" cx="116.5" cy="109.5" r="99.5"/>
                <circle class="cls-2" cx="116.5" cy="114.5" r="99.5"/>
              </g>
              <g>
                <g>
                  <circle class="cls-2" cx="114.5" cy="111.5" r="99.5"/>
                  <circle class="cls-2" cx="114.5" cy="116.5" r="99.5"/>
                </g>
                <g>
                  <circle cx="114.5" cy="109.5" r="99.5"/>
                  <circle class="cls-3" cx="114.5" cy="114.5" r="99.5"/>
                </g>
              </g>
            </g>
          </g>
        </g>
      </g>
    </g>
  </g>
</svg>
