<svg xmlns="http://www.w3.org/2000/svg" xmlns:xlink="http://www.w3.org/1999/xlink" viewBox="0 0 245.52 142.28">
  <defs>
    <style>
      .cls-1 {
        fill: url(#linear-gradient);
      }

      .cls-2 {
        fill: #363556;
      }

      .cls-3 {
        fill: url(#linear-gradient-2);
      }

      .cls-4 {
        fill: url(#New_Gradient_Swatch_copy_3);
      }

      .cls-5 {
        fill: url(#New_Gradient_Swatch_copy_3-2);
      }

      .cls-6 {
        fill: url(#New_Gradient_Swatch_copy_3-3);
      }
    </style>
    <linearGradient id="linear-gradient" x1="122.76" y1="142.28" x2="122.76" gradientUnits="userSpaceOnUse">
      <stop offset="0" stop-color="#5e5b86"/>
      <stop offset="1" stop-color="#9287b4"/>
    </linearGradient>
    <linearGradient id="linear-gradient-2" x1="122.76" y1="15" x2="122.76" y2="127.28" gradientUnits="userSpaceOnUse">
      <stop offset="0" stop-color="#f7f6fb"/>
      <stop offset="0.26" stop-color="#b4b4b4"/>
      <stop offset="0.88" stop-color="#b4b4b4"/>
      <stop offset="1" stop-color="#c0c0c1"/>
    </linearGradient>
    <linearGradient id="New_Gradient_Swatch_copy_3" data-name="New Gradient Swatch copy 3" x1="96.83" y1="45.3" x2="96.83" y2="96.69" gradientUnits="userSpaceOnUse">
      <stop offset="0" stop-color="#444362"/>
      <stop offset="0.68" stop-color="#212121"/>
      <stop offset="1" stop-color="#444362"/>
    </linearGradient>
    <linearGradient id="New_Gradient_Swatch_copy_3-2" x1="125.64" y1="45.86" x2="125.64" y2="96.13" xlink:href="#New_Gradient_Swatch_copy_3"/>
    <linearGradient id="New_Gradient_Swatch_copy_3-3" x1="151.85" y1="45.3" x2="151.85" y2="96.69" xlink:href="#New_Gradient_Swatch_copy_3"/>
  </defs>
  <g id="Layer_2" data-name="Layer 2">
    <g id="buttons">
      <g id="cds_rect" data-name="cds rect">
        <path class="cls-1" d="M230.52,15V127.28H15V15H230.52m0-15H15A15,15,0,0,0,0,15V127.28a15,15,0,0,0,15,15H230.52a15,15,0,0,0,15-15V15a15,15,0,0,0-15-15Z"/>
        <g>
          <g>
            <rect class="cls-2" x="21" y="9" width="215.52" height="112.28"/>
            <rect class="cls-2" x="21" y="14" width="215.52" height="112.28"/>
            <rect class="cls-2" x="16" y="9" width="215.52" height="112.28"/>
            <rect class="cls-2" x="16" y="14" width="215.52" height="112.28"/>
            <rect class="cls-2" x="21" y="7" width="215.52" height="112.28"/>
            <rect class="cls-2" x="21" y="12" width="215.52" height="112.28"/>
            <rect class="cls-2" x="16" y="7" width="215.52" height="112.28"/>
            <rect class="cls-2" x="16" y="12" width="215.52" height="112.28"/>
            <rect class="cls-2" x="18" y="9" width="215.52" height="112.28"/>
            <rect class="cls-2" x="18" y="14" width="215.52" height="112.28"/>
            <rect class="cls-2" x="13" y="9" width="215.52" height="112.28"/>
            <rect class="cls-2" x="13" y="14" width="215.52" height="112.28"/>
            <rect class="cls-2" x="18" y="7" width="215.52" height="112.28"/>
            <rect class="cls-2" x="18" y="12" width="215.52" height="112.28"/>
            <rect class="cls-2" x="13" y="7" width="215.52" height="112.28"/>
            <rect class="cls-2" x="13" y="12" width="215.52" height="112.28"/>
            <rect class="cls-2" x="21" y="12" width="215.52" height="112.28"/>
            <rect class="cls-2" x="21" y="17" width="215.52" height="112.28"/>
            <rect class="cls-2" x="16" y="12" width="215.52" height="112.28"/>
            <rect class="cls-2" x="16" y="17" width="215.52" height="112.28"/>
            <rect class="cls-2" x="21" y="10" width="215.52" height="112.28"/>
            <rect class="cls-2" x="21" y="15" width="215.52" height="112.28"/>
            <rect class="cls-2" x="16" y="10" width="215.52" height="112.28"/>
            <rect class="cls-2" x="16" y="15" width="215.52" height="112.28"/>
            <rect class="cls-2" x="18" y="12" width="215.52" height="112.28"/>
            <rect class="cls-2" x="18" y="17" width="215.52" height="112.28"/>
            <rect class="cls-2" x="13" y="12" width="215.52" height="112.28"/>
            <rect class="cls-2" x="13" y="17" width="215.52" height="112.28"/>
            <rect class="cls-2" x="18" y="10" width="215.52" height="112.28"/>
            <rect class="cls-2" x="18" y="15" width="215.52" height="112.28"/>
            <rect class="cls-2" x="13" y="10" width="215.52" height="112.28"/>
            <rect class="cls-2" x="13" y="15" width="215.52" height="112.28"/>
          </g>
          <g>
            <g>
              <rect class="cls-2" x="23" y="9" width="215.52" height="112.28"/>
              <rect class="cls-2" x="23" y="14" width="215.52" height="112.28"/>
              <rect class="cls-2" x="18" y="9" width="215.52" height="112.28"/>
              <rect class="cls-2" x="18" y="14" width="215.52" height="112.28"/>
              <rect class="cls-2" x="23" y="7" width="215.52" height="112.28"/>
              <rect class="cls-2" x="23" y="12" width="215.52" height="112.28"/>
              <rect class="cls-2" x="18" y="7" width="215.52" height="112.28"/>
              <rect class="cls-2" x="18" y="12" width="215.52" height="112.28"/>
              <rect class="cls-2" x="20" y="9" width="215.52" height="112.28"/>
              <rect class="cls-2" x="20" y="14" width="215.52" height="112.28"/>
              <rect class="cls-2" x="15" y="9" width="215.52" height="112.28"/>
              <rect class="cls-2" x="15" y="14" width="215.52" height="112.28"/>
              <rect class="cls-2" x="20" y="7" width="215.52" height="112.28"/>
              <rect class="cls-2" x="20" y="12" width="215.52" height="112.28"/>
              <rect class="cls-2" x="15" y="7" width="215.52" height="112.28"/>
              <rect class="cls-2" x="15" y="12" width="215.52" height="112.28"/>
            </g>
            <g>
              <g>
                <rect class="cls-2" x="23" y="12" width="215.52" height="112.28"/>
                <rect class="cls-2" x="23" y="17" width="215.52" height="112.28"/>
                <rect class="cls-2" x="18" y="12" width="215.52" height="112.28"/>
                <rect class="cls-2" x="18" y="17" width="215.52" height="112.28"/>
                <rect class="cls-2" x="23" y="10" width="215.52" height="112.28"/>
                <rect class="cls-2" x="23" y="15" width="215.52" height="112.28"/>
                <rect class="cls-2" x="18" y="10" width="215.52" height="112.28"/>
                <rect class="cls-2" x="18" y="15" width="215.52" height="112.28"/>
              </g>
              <g>
                <g>
                  <rect class="cls-2" x="20" y="12" width="215.52" height="112.28"/>
                  <rect class="cls-2" x="20" y="17" width="215.52" height="112.28"/>
                  <rect class="cls-2" x="15" y="12" width="215.52" height="112.28"/>
                  <rect class="cls-2" x="15" y="17" width="215.52" height="112.28"/>
                </g>
                <g>
                  <g>
                    <rect x="20" y="10" width="215.52" height="112.28"/>
                    <rect x="20" y="15" width="215.52" height="112.28"/>
                  </g>
                  <g>
                    <rect x="15" y="10" width="215.52" height="112.28"/>
                    <rect class="cls-3" x="15" y="15" width="215.52" height="112.28"/>
                  </g>
                </g>
              </g>
            </g>
          </g>
        </g>
      </g>
      <g>
        <path class="cls-4" d="M108.35,78.7c-.35,11.34-3.43,18-11.2,18-9,0-11.83-8.75-11.83-25.83,0-15.54,2.52-25.56,11.83-25.56,7.63,0,10.64,6.38,10.92,16.39h-5.32c-.42-7.42-2.1-11.07-5.53-11.07-4.48,0-6,6-6,20.24,0,14.91,1.54,20.58,6,20.58,3.85,0,5.46-4.41,5.81-12.74Z"/>
        <path class="cls-5" d="M114,96.13V45.86h6.37c12.18,0,16.87,6.45,16.87,24.72,0,17.08-3.85,25.55-16,25.55Zm7.63-5.32c6.93,0,9.73-6,9.73-20.23,0-14.49-2.8-19.39-10.29-19.39h-1.33V90.81Z"/>
        <path class="cls-6" d="M156.86,59.31c-.28-5.81-1.82-9-5.25-9-3.15,0-4.55,2.1-4.55,5.74,0,11.69,15.54,13.44,15.54,28.35,0,7.56-3.85,12.25-10.85,12.25S141.6,92.21,141.11,83l5.32-.21c.49,6.37,1.89,8.89,5.46,8.89,3.29,0,5.18-2.52,5.18-6.58,0-12.11-15.47-13.93-15.47-28.42,0-7,3.57-11.35,9.87-11.35,7.28,0,10.15,5.12,10.5,13.8Z"/>
      </g>
    </g>
  </g>
</svg>
