<svg xmlns="http://www.w3.org/2000/svg" xmlns:xlink="http://www.w3.org/1999/xlink" viewBox="0 0 246.52 199.83">
  <defs>
    <style>
      .cls-1 {
        fill: url(#linear-gradient);
      }

      .cls-2 {
        fill: #363556;
      }

      .cls-3 {
        fill: url(#linear-gradient-2);
      }

      .cls-4 {
        fill: url(#New_Gradient_Swatch_copy_3);
      }

      .cls-5 {
        fill: url(#New_Gradient_Swatch_copy_3-2);
      }

      .cls-6 {
        fill: url(#New_Gradient_Swatch_copy_3-3);
      }

      .cls-7 {
        fill: url(#New_Gradient_Swatch_copy_3-4);
      }

      .cls-8 {
        fill: url(#New_Gradient_Swatch_copy_3-5);
      }

      .cls-9 {
        fill: url(#New_Gradient_Swatch_copy_3-6);
      }

      .cls-10 {
        fill: url(#New_Gradient_Swatch_copy_3-7);
      }
    </style>
    <linearGradient id="linear-gradient" x1="123.26" y1="199.83" x2="123.26" gradientUnits="userSpaceOnUse">
      <stop offset="0" stop-color="#626a79"/>
      <stop offset="1" stop-color="#d1d4d8"/>
    </linearGradient>
    <linearGradient id="linear-gradient-2" x1="123.26" y1="15" x2="123.26" y2="184.83" gradientTransform="translate(148.39 -56.75) rotate(60.08)" gradientUnits="userSpaceOnUse">
      <stop offset="0" stop-color="#f7f6fb"/>
      <stop offset="0.26" stop-color="#b4b4b4"/>
      <stop offset="0.88" stop-color="#b4b4b4"/>
      <stop offset="1" stop-color="#c0c0c1"/>
    </linearGradient>
    <linearGradient id="New_Gradient_Swatch_copy_3" data-name="New Gradient Swatch copy 3" x1="46.17" y1="85.3" x2="71.86" y2="40.8" gradientUnits="userSpaceOnUse">
      <stop offset="0" stop-color="#444362"/>
      <stop offset="0.68" stop-color="#212121"/>
      <stop offset="1" stop-color="#444362"/>
    </linearGradient>
    <linearGradient id="New_Gradient_Swatch_copy_3-2" x1="69.61" y1="98.16" x2="94.75" y2="54.62" xlink:href="#New_Gradient_Swatch_copy_3"/>
    <linearGradient id="New_Gradient_Swatch_copy_3-3" x1="89.54" y1="110.26" x2="115.23" y2="65.76" xlink:href="#New_Gradient_Swatch_copy_3"/>
    <linearGradient id="New_Gradient_Swatch_copy_3-4" x1="110.45" y1="121.65" x2="135.59" y2="78.1" xlink:href="#New_Gradient_Swatch_copy_3"/>
    <linearGradient id="New_Gradient_Swatch_copy_3-5" x1="132.92" y1="134.59" x2="158.07" y2="91.03" xlink:href="#New_Gradient_Swatch_copy_3"/>
    <linearGradient id="New_Gradient_Swatch_copy_3-6" x1="156.86" y1="148.36" x2="182" y2="104.81" xlink:href="#New_Gradient_Swatch_copy_3"/>
    <linearGradient id="New_Gradient_Swatch_copy_3-7" x1="176.62" y1="160.36" x2="202.31" y2="115.86" xlink:href="#New_Gradient_Swatch_copy_3"/>
  </defs>
  <g id="Layer_2" data-name="Layer 2">
    <g id="buttons">
      <g>
        <g id="clothes_left_rect" data-name="clothes left rect">
          <path class="cls-1" d="M77.67,15c24.49,0,53.24,7.88,80.79,23.73C215,71.26,245,125,225.6,158.8c-10,17.32-31,26-56.75,26-24.49,0-53.24-7.88-80.8-23.73C31.53,128.58,1.48,74.82,20.92,41c10-17.32,31-26,56.75-26m0-15V0h0C62.48,0,48.88,2.63,37.26,7.83c-13,5.79-22.86,14.45-29.34,25.72C1.59,44.55-1,57.11.33,70.87c1.15,12.35,5.39,25.13,12.58,38,14,25,38,48.18,67.66,65.24,28.84,16.59,60.19,25.73,88.28,25.73,15.19,0,28.79-2.63,40.41-7.82,13-5.8,22.85-14.46,29.34-25.73,6.33-11,8.89-23.56,7.59-37.32-1.16-12.35-5.39-25.13-12.58-38-14-25-38-48.18-67.66-65.24C137.11,9.14,105.76,0,77.67,0Z"/>
          <g>
            <g>
              <ellipse class="cls-2" cx="129.26" cy="93.92" rx="70.59" ry="118.07" transform="translate(-16.61 159.11) rotate(-60.08)"/>
              <ellipse class="cls-2" cx="129.26" cy="98.92" rx="70.59" ry="118.07" transform="translate(-20.94 161.62) rotate(-60.08)"/>
              <ellipse class="cls-2" cx="124.26" cy="93.92" rx="70.59" ry="118.07" transform="translate(-19.12 154.78) rotate(-60.08)"/>
              <ellipse class="cls-2" cx="124.26" cy="98.92" rx="70.59" ry="118.07" transform="translate(-23.45 157.29) rotate(-60.08)"/>
              <ellipse class="cls-2" cx="129.26" cy="91.92" rx="70.59" ry="118.07" transform="translate(-14.88 158.11) rotate(-60.08)"/>
              <ellipse class="cls-2" cx="129.26" cy="96.92" rx="70.59" ry="118.07" transform="translate(-19.21 160.62) rotate(-60.08)"/>
              <ellipse class="cls-2" cx="124.26" cy="91.92" rx="70.59" ry="118.07" transform="translate(-17.38 153.78) rotate(-60.08)"/>
              <ellipse class="cls-2" cx="124.26" cy="96.92" rx="70.59" ry="118.07" transform="translate(-21.72 156.28) rotate(-60.08)"/>
              <ellipse class="cls-2" cx="126.26" cy="93.92" rx="70.59" ry="118.07" transform="translate(-18.11 156.51) rotate(-60.08)"/>
              <ellipse class="cls-2" cx="126.26" cy="98.92" rx="70.59" ry="118.07" transform="translate(-22.45 159.02) rotate(-60.08)"/>
              <ellipse class="cls-2" cx="121.26" cy="93.92" rx="70.59" ry="118.07" transform="translate(-20.62 152.18) rotate(-60.08)"/>
              <ellipse class="cls-2" cx="121.26" cy="98.92" rx="70.59" ry="118.07" transform="translate(-24.95 154.69) rotate(-60.08)"/>
              <ellipse class="cls-2" cx="126.26" cy="91.92" rx="70.59" ry="118.07" transform="translate(-16.38 155.51) rotate(-60.08)"/>
              <ellipse class="cls-2" cx="126.26" cy="96.92" rx="70.59" ry="118.07" transform="translate(-20.71 158.02) rotate(-60.08)"/>
              <ellipse class="cls-2" cx="121.26" cy="91.92" rx="70.59" ry="118.07" transform="translate(-18.89 151.18) rotate(-60.08)"/>
              <ellipse class="cls-2" cx="121.26" cy="96.92" rx="70.59" ry="118.07" transform="translate(-23.22 153.68) rotate(-60.08)"/>
              <ellipse class="cls-2" cx="129.26" cy="96.92" rx="70.59" ry="118.07" transform="translate(-19.21 160.62) rotate(-60.08)"/>
              <ellipse class="cls-2" cx="129.26" cy="101.92" rx="70.59" ry="118.07" transform="translate(-23.54 163.12) rotate(-60.08)"/>
              <ellipse class="cls-2" cx="124.26" cy="96.92" rx="70.59" ry="118.07" transform="translate(-21.72 156.28) rotate(-60.08)"/>
              <ellipse class="cls-2" cx="124.26" cy="101.92" rx="70.59" ry="118.07" transform="translate(-26.05 158.79) rotate(-60.08)"/>
              <ellipse class="cls-2" cx="129.26" cy="94.92" rx="70.59" ry="118.07" transform="translate(-17.48 159.61) rotate(-60.08)"/>
              <ellipse class="cls-2" cx="129.26" cy="99.92" rx="70.59" ry="118.07" transform="translate(-21.81 162.12) rotate(-60.08)"/>
              <ellipse class="cls-2" cx="124.26" cy="94.92" rx="70.59" ry="118.07" transform="translate(-19.98 155.28) rotate(-60.08)"/>
              <ellipse class="cls-2" cx="124.26" cy="99.92" rx="70.59" ry="118.07" transform="translate(-24.32 157.79) rotate(-60.08)"/>
              <ellipse class="cls-2" cx="126.26" cy="96.92" rx="70.59" ry="118.07" transform="translate(-20.71 158.02) rotate(-60.08)"/>
              <ellipse class="cls-2" cx="126.26" cy="101.92" rx="70.59" ry="118.07" transform="translate(-25.05 160.52) rotate(-60.08)"/>
              <ellipse class="cls-2" cx="121.26" cy="96.92" rx="70.59" ry="118.07" transform="translate(-23.22 153.68) rotate(-60.08)"/>
              <ellipse class="cls-2" cx="121.26" cy="101.92" rx="70.59" ry="118.07" transform="translate(-27.55 156.19) rotate(-60.08)"/>
              <ellipse class="cls-2" cx="126.26" cy="94.92" rx="70.59" ry="118.07" transform="translate(-18.98 157.01) rotate(-60.08)"/>
              <ellipse class="cls-2" cx="126.26" cy="99.92" rx="70.59" ry="118.07" transform="translate(-23.31 159.52) rotate(-60.08)"/>
              <ellipse class="cls-2" cx="121.26" cy="94.92" rx="70.59" ry="118.07" transform="translate(-21.49 152.68) rotate(-60.08)"/>
              <ellipse class="cls-2" cx="121.26" cy="99.92" rx="70.59" ry="118.07" transform="translate(-25.82 155.19) rotate(-60.08)"/>
            </g>
            <g>
              <g>
                <ellipse class="cls-2" cx="131.26" cy="93.92" rx="70.59" ry="118.07" transform="translate(-15.61 160.85) rotate(-60.08)"/>
                <ellipse class="cls-2" cx="131.26" cy="98.92" rx="70.59" ry="118.07" transform="translate(-19.94 163.35) rotate(-60.08)"/>
                <ellipse class="cls-2" cx="126.26" cy="93.92" rx="70.59" ry="118.07" transform="translate(-18.11 156.51) rotate(-60.08)"/>
                <ellipse class="cls-2" cx="126.26" cy="98.92" rx="70.59" ry="118.07" transform="translate(-22.45 159.02) rotate(-60.08)"/>
                <ellipse class="cls-2" cx="131.26" cy="91.92" rx="70.59" ry="118.07" transform="translate(-13.87 159.84) rotate(-60.08)"/>
                <ellipse class="cls-2" cx="131.26" cy="96.92" rx="70.59" ry="118.07" transform="translate(-18.21 162.35) rotate(-60.08)"/>
                <ellipse class="cls-2" cx="126.26" cy="91.92" rx="70.59" ry="118.07" transform="translate(-16.38 155.51) rotate(-60.08)"/>
                <ellipse class="cls-2" cx="126.26" cy="96.92" rx="70.59" ry="118.07" transform="translate(-20.71 158.02) rotate(-60.08)"/>
                <ellipse class="cls-2" cx="128.26" cy="93.92" rx="70.59" ry="118.07" transform="translate(-17.11 158.25) rotate(-60.08)"/>
                <ellipse class="cls-2" cx="128.26" cy="98.92" rx="70.59" ry="118.07" transform="translate(-21.44 160.75) rotate(-60.08)"/>
                <ellipse class="cls-2" cx="123.26" cy="93.92" rx="70.59" ry="118.07" transform="translate(-19.62 153.91) rotate(-60.08)"/>
                <ellipse class="cls-2" cx="123.26" cy="98.92" rx="70.59" ry="118.07" transform="translate(-23.95 156.42) rotate(-60.08)"/>
                <ellipse class="cls-2" cx="128.26" cy="91.92" rx="70.59" ry="118.07" transform="translate(-15.38 157.24) rotate(-60.08)"/>
                <ellipse class="cls-2" cx="128.26" cy="96.92" rx="70.59" ry="118.07" transform="translate(-19.71 159.75) rotate(-60.08)"/>
                <ellipse class="cls-2" cx="123.26" cy="91.92" rx="70.59" ry="118.07" transform="translate(-17.88 152.91) rotate(-60.08)"/>
                <ellipse class="cls-2" cx="123.26" cy="96.92" rx="70.59" ry="118.07" transform="translate(-22.22 155.42) rotate(-60.08)"/>
              </g>
              <g>
                <g>
                  <ellipse class="cls-2" cx="131.26" cy="96.92" rx="70.59" ry="118.07" transform="translate(-18.21 162.35) rotate(-60.08)"/>
                  <ellipse class="cls-2" cx="131.26" cy="101.92" rx="70.59" ry="118.07" transform="translate(-22.54 164.86) rotate(-60.08)"/>
                  <ellipse class="cls-2" cx="126.26" cy="96.92" rx="70.59" ry="118.07" transform="translate(-20.71 158.02) rotate(-60.08)"/>
                  <ellipse class="cls-2" cx="126.26" cy="101.92" rx="70.59" ry="118.07" transform="translate(-25.05 160.52) rotate(-60.08)"/>
                  <ellipse class="cls-2" cx="131.26" cy="94.92" rx="70.59" ry="118.07" transform="translate(-16.47 161.35) rotate(-60.08)"/>
                  <ellipse class="cls-2" cx="131.26" cy="99.92" rx="70.59" ry="118.07" transform="translate(-20.81 163.85) rotate(-60.08)"/>
                  <ellipse class="cls-2" cx="126.26" cy="94.92" rx="70.59" ry="118.07" transform="translate(-18.98 157.01) rotate(-60.08)"/>
                  <ellipse class="cls-2" cx="126.26" cy="99.92" rx="70.59" ry="118.07" transform="translate(-23.31 159.52) rotate(-60.08)"/>
                </g>
                <g>
                  <g>
                    <ellipse class="cls-2" cx="128.26" cy="96.92" rx="70.59" ry="118.07" transform="translate(-19.71 159.75) rotate(-60.08)"/>
                    <ellipse class="cls-2" cx="128.26" cy="101.92" rx="70.59" ry="118.07" transform="translate(-24.05 162.26) rotate(-60.08)"/>
                    <ellipse class="cls-2" cx="123.26" cy="96.92" rx="70.59" ry="118.07" transform="translate(-22.22 155.42) rotate(-60.08)"/>
                    <ellipse class="cls-2" cx="123.26" cy="101.92" rx="70.59" ry="118.07" transform="translate(-26.55 157.92) rotate(-60.08)"/>
                  </g>
                  <g>
                    <g>
                      <ellipse cx="128.26" cy="94.92" rx="70.59" ry="118.07" transform="translate(-17.98 158.75) rotate(-60.08)"/>
                      <ellipse cx="128.26" cy="99.92" rx="70.59" ry="118.07" transform="translate(-22.31 161.25) rotate(-60.08)"/>
                    </g>
                    <g>
                      <ellipse cx="123.26" cy="94.92" rx="70.59" ry="118.07" transform="translate(-20.48 154.41) rotate(-60.08)"/>
                      <ellipse class="cls-3" cx="123.26" cy="99.92" rx="70.59" ry="118.07" transform="translate(-24.82 156.92) rotate(-60.08)"/>
                    </g>
                  </g>
                </g>
              </g>
            </g>
          </g>
        </g>
        <g>
          <path class="cls-4" d="M65.15,75.46c-6,9.66-12,13.89-18.68,10C38.7,81,40.57,72,49.09,57.18c7.76-13.47,14.93-20.89,23-16.25,6.62,3.81,6,10.83,1.3,19.65l-4.61-2.65c3.33-6.65,3.69-10.64.72-12.35-3.88-2.24-8.13,2.19-15.25,14.57C46.82,73.07,45.32,78.76,49.14,81c3.34,1.92,6.94-1.1,11.4-8.15Z"/>
          <path class="cls-5" d="M61.36,93.4,86.43,49.83l4.92,2.83-22.45,39,11.65,6.7-2.62,4.55Z"/>
          <path class="cls-6" d="M92.17,82c9.08-15.78,15.72-20.44,23.06-16.22S121.82,78,112.74,93.8C104,109,97,114.52,89.6,110.29S83.41,97.2,92.17,82Zm15.47,8.9c7.34-12.74,8.71-18.49,5-20.62s-8,1.94-15.32,14.69-8.7,18.9-5.18,20.92S100.35,103.55,107.64,90.87Z"/>
          <path class="cls-7" d="M108.08,120.28l22.45-39-7.1-4.08,2.62-4.55,19.06,11-2.62,4.55-7-4-22.45,39Z"/>
          <path class="cls-8" d="M137.33,137.11l11.83-20.57-8.67-5-11.84,20.57-4.91-2.83,25.07-43.57,4.91,2.83-10.65,18.51,8.68,5L162.4,93.54l4.85,2.8L142.18,139.9Z"/>
          <path class="cls-9" d="M148.37,143.46l25.07-43.57,16.32,9.4-2.62,4.55-11.41-6.57-8.17,14.2,8.8,5.07L173.78,131,165,126l-9.08,15.78,12.14,7-2.62,4.55Z"/>
          <path class="cls-10" d="M199.62,130.47c2.65-5.18,2.89-8.68-.08-10.39-2.73-1.57-5-.45-6.81,2.71-5.83,10.13,6.77,19.4-.67,32.32-3.77,6.56-9.45,8.7-15.51,5.21s-6.57-8.95-2.39-17.2l4.72,2.47c-2.75,5.77-2.79,8.65.3,10.43,2.85,1.64,5.75.4,7.77-3.12,6-10.5-6.46-19.79.77-32.35,3.49-6.07,8.75-8,14.21-4.91,6.31,3.63,6.25,9.49,2.22,17.19Z"/>
        </g>
      </g>
    </g>
  </g>
</svg>
