<svg xmlns="http://www.w3.org/2000/svg" xmlns:xlink="http://www.w3.org/1999/xlink" viewBox="0 0 245.11 201.6">
  <defs>
    <style>
      .cls-1 {
        fill: url(#linear-gradient);
      }

      .cls-2 {
        fill: #363556;
      }

      .cls-3 {
        fill: url(#linear-gradient-2);
      }

      .cls-4 {
        fill: url(#New_Gradient_Swatch_copy_3);
      }

      .cls-5 {
        fill: url(#New_Gradient_Swatch_copy_3-2);
      }

      .cls-6 {
        fill: url(#New_Gradient_Swatch_copy_3-3);
      }

      .cls-7 {
        fill: url(#New_Gradient_Swatch_copy_3-4);
      }

      .cls-8 {
        fill: url(#New_Gradient_Swatch_copy_3-5);
      }

      .cls-9 {
        fill: url(#New_Gradient_Swatch_copy_3-6);
      }

      .cls-10 {
        fill: url(#New_Gradient_Swatch_copy_3-7);
      }
    </style>
    <linearGradient id="linear-gradient" x1="122.56" y1="201.6" x2="122.56" gradientUnits="userSpaceOnUse">
      <stop offset="0" stop-color="#5e5b86"/>
      <stop offset="1" stop-color="#9287b4"/>
    </linearGradient>
    <linearGradient id="linear-gradient-2" x1="122.56" y1="15" x2="122.56" y2="186.6" gradientTransform="translate(69.48 -48.74) rotate(31.02)" gradientUnits="userSpaceOnUse">
      <stop offset="0" stop-color="#f7f6fb"/>
      <stop offset="0.26" stop-color="#b4b4b4"/>
      <stop offset="0.88" stop-color="#b4b4b4"/>
      <stop offset="1" stop-color="#c0c0c1"/>
    </linearGradient>
    <linearGradient id="New_Gradient_Swatch_copy_3" data-name="New Gradient Swatch copy 3" x1="46.3" y1="116.76" x2="72" y2="161.26" gradientUnits="userSpaceOnUse">
      <stop offset="0" stop-color="#444362"/>
      <stop offset="0.68" stop-color="#212121"/>
      <stop offset="1" stop-color="#444362"/>
    </linearGradient>
    <linearGradient id="New_Gradient_Swatch_copy_3-2" x1="69.49" y1="103.56" x2="94.67" y2="147.17" xlink:href="#New_Gradient_Swatch_copy_3"/>
    <linearGradient id="New_Gradient_Swatch_copy_3-3" x1="89.15" y1="91" x2="114.84" y2="135.5" xlink:href="#New_Gradient_Swatch_copy_3"/>
    <linearGradient id="New_Gradient_Swatch_copy_3-4" x1="109.41" y1="79.24" x2="134.66" y2="122.97" xlink:href="#New_Gradient_Swatch_copy_3"/>
    <linearGradient id="New_Gradient_Swatch_copy_3-5" x1="131.96" y1="65.69" x2="157.27" y2="109.55" xlink:href="#New_Gradient_Swatch_copy_3"/>
    <linearGradient id="New_Gradient_Swatch_copy_3-6" x1="155.64" y1="51.49" x2="180.93" y2="95.3" xlink:href="#New_Gradient_Swatch_copy_3"/>
    <linearGradient id="New_Gradient_Swatch_copy_3-7" x1="175.43" y1="39.13" x2="201.12" y2="83.62" xlink:href="#New_Gradient_Swatch_copy_3"/>
  </defs>
  <g id="Layer_2" data-name="Layer 2">
    <g id="buttons">
      <g>
        <g id="clothes_right_rect" data-name="clothes right rect">
          <path class="cls-1" d="M168.67,15c24.77,0,45.06,8.31,55.07,25,20.09,33.41-8.92,87.74-64.8,121.34-28.05,16.87-57.54,25.31-82.5,25.31-24.76,0-45.06-8.31-55.07-24.95C1.28,128.24,30.3,73.92,86.18,40.31,114.23,23.44,143.72,15,168.67,15m0-15h0c-28.74,0-60.78,9.75-90.22,27.46S25.55,68.71,12.06,94C5.11,107,1.13,119.85.21,132.21-.82,146,2,158.5,8.52,169.38s16.21,19.15,28.8,24.71c11.29,5,24.46,7.51,39.12,7.51,28.74,0,60.79-9.75,90.23-27.45s52.89-41.26,66.39-66.54c6.94-13,10.93-25.85,11.85-38.22,1-13.78-1.77-26.29-8.31-37.17S220.39,13.07,207.8,7.51C196.5,2.53,183.34,0,168.68,0Z"/>
          <g>
            <g>
              <ellipse class="cls-2" cx="116.56" cy="94.8" rx="118.07" ry="70.59" transform="translate(-32.19 73.63) rotate(-31.02)"/>
              <ellipse class="cls-2" cx="116.56" cy="99.8" rx="118.07" ry="70.59" transform="translate(-34.76 74.34) rotate(-31.02)"/>
              <ellipse class="cls-2" cx="121.56" cy="94.8" rx="118.07" ry="70.59" transform="translate(-31.47 76.21) rotate(-31.02)"/>
              <ellipse class="cls-2" cx="121.56" cy="99.8" rx="118.07" ry="70.59" transform="translate(-34.05 76.92) rotate(-31.02)"/>
              <ellipse class="cls-2" cx="116.56" cy="92.8" rx="118.07" ry="70.59" transform="translate(-31.16 73.34) rotate(-31.02)"/>
              <ellipse class="cls-2" cx="116.56" cy="97.8" rx="118.07" ry="70.59" transform="translate(-33.73 74.06) rotate(-31.02)"/>
              <ellipse class="cls-2" cx="121.56" cy="92.8" rx="118.07" ry="70.59" transform="translate(-30.44 75.92) rotate(-31.02)"/>
              <ellipse class="cls-2" cx="121.56" cy="97.8" rx="118.07" ry="70.59" transform="translate(-33.02 76.63) rotate(-31.02)"/>
              <ellipse class="cls-2" cx="119.56" cy="94.8" rx="118.07" ry="70.59" transform="translate(-31.76 75.18) rotate(-31.02)"/>
              <ellipse class="cls-2" cx="119.56" cy="99.8" rx="118.07" ry="70.59" transform="translate(-34.33 75.89) rotate(-31.02)"/>
              <ellipse class="cls-2" cx="124.56" cy="94.8" rx="118.07" ry="70.59" transform="translate(-31.04 77.75) rotate(-31.02)"/>
              <ellipse class="cls-2" cx="124.56" cy="99.8" rx="118.07" ry="70.59" transform="translate(-33.62 78.47) rotate(-31.02)"/>
              <ellipse class="cls-2" cx="119.56" cy="92.8" rx="118.07" ry="70.59" transform="translate(-30.73 74.89) rotate(-31.02)"/>
              <ellipse class="cls-2" cx="119.56" cy="97.8" rx="118.07" ry="70.59" transform="translate(-33.3 75.6) rotate(-31.02)"/>
              <ellipse class="cls-2" cx="124.56" cy="92.8" rx="118.07" ry="70.59" transform="translate(-30.01 77.47) rotate(-31.02)"/>
              <ellipse class="cls-2" cx="124.56" cy="97.8" rx="118.07" ry="70.59" transform="translate(-32.59 78.18) rotate(-31.02)"/>
              <ellipse class="cls-2" cx="116.56" cy="97.8" rx="118.07" ry="70.59" transform="translate(-33.73 74.06) rotate(-31.02)"/>
              <ellipse class="cls-2" cx="116.56" cy="102.8" rx="118.07" ry="70.59" transform="translate(-36.31 74.77) rotate(-31.02)"/>
              <ellipse class="cls-2" cx="121.56" cy="97.8" rx="118.07" ry="70.59" transform="translate(-33.02 76.63) rotate(-31.02)"/>
              <ellipse class="cls-2" cx="121.56" cy="102.8" rx="118.07" ry="70.59" transform="translate(-35.59 77.35) rotate(-31.02)"/>
              <ellipse class="cls-2" cx="116.56" cy="95.8" rx="118.07" ry="70.59" transform="translate(-32.7 73.77) rotate(-31.02)"/>
              <ellipse class="cls-2" cx="116.56" cy="100.8" rx="118.07" ry="70.59" transform="translate(-35.28 74.49) rotate(-31.02)"/>
              <ellipse class="cls-2" cx="121.56" cy="95.8" rx="118.07" ry="70.59" transform="translate(-31.99 76.35) rotate(-31.02)"/>
              <ellipse class="cls-2" cx="121.56" cy="100.8" rx="118.07" ry="70.59" transform="translate(-34.56 77.06) rotate(-31.02)"/>
              <ellipse class="cls-2" cx="119.56" cy="97.8" rx="118.07" ry="70.59" transform="translate(-33.3 75.6) rotate(-31.02)"/>
              <ellipse class="cls-2" cx="119.56" cy="102.8" rx="118.07" ry="70.59" transform="translate(-35.88 76.32) rotate(-31.02)"/>
              <ellipse class="cls-2" cx="124.56" cy="97.8" rx="118.07" ry="70.59" transform="translate(-32.59 78.18) rotate(-31.02)"/>
              <ellipse class="cls-2" cx="124.56" cy="102.8" rx="118.07" ry="70.59" transform="translate(-35.16 78.9) rotate(-31.02)"/>
              <ellipse class="cls-2" cx="119.56" cy="95.8" rx="118.07" ry="70.59" transform="translate(-32.27 75.32) rotate(-31.02)"/>
              <ellipse class="cls-2" cx="119.56" cy="100.8" rx="118.07" ry="70.59" transform="translate(-34.85 76.03) rotate(-31.02)"/>
              <ellipse class="cls-2" cx="124.56" cy="95.8" rx="118.07" ry="70.59" transform="translate(-31.56 77.89) rotate(-31.02)"/>
              <ellipse class="cls-2" cx="124.56" cy="100.8" rx="118.07" ry="70.59" transform="translate(-34.13 78.61) rotate(-31.02)"/>
            </g>
            <g>
              <g>
                <ellipse class="cls-2" cx="114.56" cy="94.8" rx="118.07" ry="70.59" transform="translate(-32.47 72.6) rotate(-31.02)"/>
                <ellipse class="cls-2" cx="114.56" cy="99.8" rx="118.07" ry="70.59" transform="translate(-35.05 73.31) rotate(-31.02)"/>
                <ellipse class="cls-2" cx="119.56" cy="94.8" rx="118.07" ry="70.59" transform="translate(-31.76 75.18) rotate(-31.02)"/>
                <ellipse class="cls-2" cx="119.56" cy="99.8" rx="118.07" ry="70.59" transform="translate(-34.33 75.89) rotate(-31.02)"/>
                <ellipse class="cls-2" cx="114.56" cy="92.8" rx="118.07" ry="70.59" transform="translate(-31.44 72.31) rotate(-31.02)"/>
                <ellipse class="cls-2" cx="114.56" cy="97.8" rx="118.07" ry="70.59" transform="translate(-34.02 73.03) rotate(-31.02)"/>
                <ellipse class="cls-2" cx="119.56" cy="92.8" rx="118.07" ry="70.59" transform="translate(-30.73 74.89) rotate(-31.02)"/>
                <ellipse class="cls-2" cx="119.56" cy="97.8" rx="118.07" ry="70.59" transform="translate(-33.3 75.6) rotate(-31.02)"/>
                <ellipse class="cls-2" cx="117.56" cy="94.8" rx="118.07" ry="70.59" transform="translate(-32.04 74.14) rotate(-31.02)"/>
                <ellipse class="cls-2" cx="117.56" cy="99.8" rx="118.07" ry="70.59" transform="translate(-34.62 74.86) rotate(-31.02)"/>
                <ellipse class="cls-2" cx="122.56" cy="94.8" rx="118.07" ry="70.59" transform="translate(-31.33 76.72) rotate(-31.02)"/>
                <ellipse class="cls-2" cx="122.56" cy="99.8" rx="118.07" ry="70.59" transform="translate(-33.9 77.44) rotate(-31.02)"/>
                <ellipse class="cls-2" cx="117.56" cy="92.8" rx="118.07" ry="70.59" transform="translate(-31.01 73.86) rotate(-31.02)"/>
                <ellipse class="cls-2" cx="117.56" cy="97.8" rx="118.07" ry="70.59" transform="translate(-33.59 74.57) rotate(-31.02)"/>
                <ellipse class="cls-2" cx="122.56" cy="92.8" rx="118.07" ry="70.59" transform="translate(-30.3 76.44) rotate(-31.02)"/>
                <ellipse class="cls-2" cx="122.56" cy="97.8" rx="118.07" ry="70.59" transform="translate(-32.87 77.15) rotate(-31.02)"/>
              </g>
              <g>
                <g>
                  <ellipse class="cls-2" cx="114.56" cy="97.8" rx="118.07" ry="70.59" transform="translate(-34.02 73.03) rotate(-31.02)"/>
                  <ellipse class="cls-2" cx="114.56" cy="102.8" rx="118.07" ry="70.59" transform="translate(-36.6 73.74) rotate(-31.02)"/>
                  <ellipse class="cls-2" cx="119.56" cy="97.8" rx="118.07" ry="70.59" transform="translate(-33.3 75.6) rotate(-31.02)"/>
                  <ellipse class="cls-2" cx="119.56" cy="102.8" rx="118.07" ry="70.59" transform="translate(-35.88 76.32) rotate(-31.02)"/>
                  <ellipse class="cls-2" cx="114.56" cy="95.8" rx="118.07" ry="70.59" transform="translate(-32.99 72.74) rotate(-31.02)"/>
                  <ellipse class="cls-2" cx="114.56" cy="100.8" rx="118.07" ry="70.59" transform="translate(-35.56 73.46) rotate(-31.02)"/>
                  <ellipse class="cls-2" cx="119.56" cy="95.8" rx="118.07" ry="70.59" transform="translate(-32.27 75.32) rotate(-31.02)"/>
                  <ellipse class="cls-2" cx="119.56" cy="100.8" rx="118.07" ry="70.59" transform="translate(-34.85 76.03) rotate(-31.02)"/>
                </g>
                <g>
                  <g>
                    <ellipse class="cls-2" cx="117.56" cy="97.8" rx="118.07" ry="70.59" transform="translate(-33.59 74.57) rotate(-31.02)"/>
                    <ellipse class="cls-2" cx="117.56" cy="102.8" rx="118.07" ry="70.59" transform="translate(-36.17 75.29) rotate(-31.02)"/>
                    <ellipse class="cls-2" cx="122.56" cy="97.8" rx="118.07" ry="70.59" transform="translate(-32.87 77.15) rotate(-31.02)"/>
                    <ellipse class="cls-2" cx="122.56" cy="102.8" rx="118.07" ry="70.59" transform="translate(-35.45 77.87) rotate(-31.02)"/>
                  </g>
                  <g>
                    <g>
                      <ellipse cx="117.56" cy="95.8" rx="118.07" ry="70.59" transform="translate(-32.56 74.29) rotate(-31.02)"/>
                      <ellipse cx="117.56" cy="100.8" rx="118.07" ry="70.59" transform="translate(-35.14 75) rotate(-31.02)"/>
                    </g>
                    <g>
                      <ellipse cx="122.56" cy="95.8" rx="118.07" ry="70.59" transform="translate(-31.84 76.86) rotate(-31.02)"/>
                      <ellipse class="cls-3" cx="122.56" cy="100.8" rx="118.07" ry="70.59" transform="translate(-34.42 77.58) rotate(-31.02)"/>
                    </g>
                  </g>
                </g>
              </g>
            </g>
          </g>
        </g>
        <g>
          <path class="cls-4" d="M72.94,139.71c5.55,9.9,6.33,17.19-.33,21.19-7.68,4.62-14.64-1.4-23.45-16-8-13.32-11-23.2-3-28,6.54-3.94,12.41,0,17.8,8.41L59.37,128c-4.18-6.15-7.5-8.4-10.44-6.63-3.84,2.31-2,8.16,5.33,20.4C62,154.57,66.19,158.64,70,156.37c3.3-2,2.41-6.6-1.59-13.92Z"/>
          <path class="cls-5" d="M86.78,151.73l-25.9-43.08,4.86-2.92,23.19,38.58,11.52-6.93,2.71,4.5Z"/>
          <path class="cls-6" d="M91.75,119.25c-9.38-15.6-10.23-23.67-3-28s13.93.2,23.31,15.8c9.06,15,10.43,23.87,3.17,28.23S100.81,134.31,91.75,119.25Zm15.3-9.2c-7.57-12.6-11.94-16.6-15.6-14.39s-2.17,7.92,5.4,20.52,12.3,16.78,15.78,14.69S114.59,122.59,107.05,110.05Z"/>
          <path class="cls-7" d="M133,124l-23.2-38.58-7,4.23-2.7-4.5,18.84-11.33,2.7,4.5-7,4.18L137.83,121Z"/>
          <path class="cls-8" d="M161.89,106.56,149.66,86.22l-8.58,5.16,12.23,20.34-4.86,2.92L122.54,71.57l4.86-2.92,11,18.29L147,81.78,136,63.49l4.8-2.89,25.91,43.08Z"/>
          <path class="cls-9" d="M172.8,100,146.9,56.92,163,47.22l2.7,4.5L154.46,58.5l8.45,14,8.7-5.23,2.66,4.43L165.58,77,175,92.57l12-7.21,2.71,4.5Z"/>
          <path class="cls-10" d="M186.34,48.89c-3.24-4.84-6.18-6.74-9.12-5-2.7,1.63-2.82,4.15-.94,7.27,6,10,20.25,3.51,27.93,16.29,3.9,6.47,3,12.48-3,16.09S190.22,85,185,77.28l4.45-2.92c3.7,5.21,6.2,6.65,9.26,4.81,2.82-1.7,3.14-4.83,1.05-8.31-6.25-10.38-20.44-4-27.91-16.39-3.61-6-2.79-11.56,2.61-14.8,6.24-3.76,11.34-.86,16.11,6.4Z"/>
        </g>
      </g>
    </g>
  </g>
</svg>
