<svg xmlns="http://www.w3.org/2000/svg" xmlns:xlink="http://www.w3.org/1999/xlink" viewBox="0 0 299.78 210.46">
  <defs>
    <style>
      .cls-1 {
        fill: url(#linear-gradient);
      }

      .cls-2 {
        fill: #363556;
      }

      .cls-3 {
        fill: url(#linear-gradient-2);
      }

      .cls-4 {
        fill: url(#New_Gradient_Swatch_copy_3);
      }

      .cls-5 {
        fill: url(#New_Gradient_Swatch_copy_3-2);
      }

      .cls-6 {
        fill: url(#New_Gradient_Swatch_copy_3-3);
      }

      .cls-7 {
        fill: url(#New_Gradient_Swatch_copy_3-4);
      }

      .cls-8 {
        fill: url(#New_Gradient_Swatch_copy_3-5);
      }
    </style>
    <linearGradient id="linear-gradient" x1="149.89" y1="210.46" x2="149.89" gradientUnits="userSpaceOnUse">
      <stop offset="0" stop-color="#5e5b86"/>
      <stop offset="1" stop-color="#9287b4"/>
    </linearGradient>
    <linearGradient id="linear-gradient-2" x1="149.89" y1="15" x2="149.89" y2="195.46" gradientUnits="userSpaceOnUse">
      <stop offset="0" stop-color="#f7f6fb"/>
      <stop offset="0.26" stop-color="#b4b4b4"/>
      <stop offset="0.88" stop-color="#b4b4b4"/>
      <stop offset="1" stop-color="#c0c0c1"/>
    </linearGradient>
    <linearGradient id="New_Gradient_Swatch_copy_3" data-name="New Gradient Swatch copy 3" x1="63.24" y1="113.31" x2="88.92" y2="157.78" gradientUnits="userSpaceOnUse">
      <stop offset="0" stop-color="#444362"/>
      <stop offset="0.68" stop-color="#212121"/>
      <stop offset="1" stop-color="#444362"/>
    </linearGradient>
    <linearGradient id="New_Gradient_Swatch_copy_3-2" x1="89.33" y1="98.36" x2="114.79" y2="142.45" xlink:href="#New_Gradient_Swatch_copy_3"/>
    <linearGradient id="New_Gradient_Swatch_copy_3-3" x1="114.68" y1="79.3" x2="141.29" y2="125.39" xlink:href="#New_Gradient_Swatch_copy_3"/>
    <linearGradient id="New_Gradient_Swatch_copy_3-4" x1="139.83" y1="59.71" x2="166.24" y2="105.45" xlink:href="#New_Gradient_Swatch_copy_3"/>
    <linearGradient id="New_Gradient_Swatch_copy_3-5" x1="157.85" y1="44.97" x2="183.21" y2="88.9" xlink:href="#New_Gradient_Swatch_copy_3"/>
  </defs>
  <g id="Layer_2" data-name="Layer 2">
    <g id="buttons">
      <g>
        <g id="games_right_rect" data-name="games right rect">
          <path class="cls-1" d="M284.77,15h0m0,0L193.63,99.75c-43.52,40.46-94.33,72.62-151.11,95.71L15,112.92C59.91,94,100.08,68.22,134.53,36.19L157.32,15H284.77m0-15H157.32a15,15,0,0,0-10.21,4L124.32,25.2C91.23,56,52.49,80.83,9.17,99.1a15,15,0,0,0-8.4,18.56l27.52,82.55a15,15,0,0,0,19.88,9.15c58.5-23.8,110.88-57,155.67-98.63l91-84.63A15,15,0,0,0,284.78,0Zm0,30h0Z"/>
          <g>
            <g>
              <path class="cls-2" d="M151.32,9,128.53,30.19C94.08,62.22,53.91,88,9,106.92l27.52,82.54c56.78-23.09,107.59-55.25,151.11-95.71L278.77,9Z"/>
              <path class="cls-2" d="M151.32,14,128.53,35.19C94.08,67.22,53.91,93,9,111.92l27.52,82.54c56.78-23.09,107.59-55.25,151.11-95.71L278.77,14Z"/>
              <path class="cls-2" d="M156.32,9,133.53,30.19C99.08,62.22,58.91,88,14,106.92l27.52,82.54c56.78-23.09,107.59-55.25,151.11-95.71L283.77,9Z"/>
              <path class="cls-2" d="M156.32,14,133.53,35.19C99.08,67.22,58.91,93,14,111.92l27.52,82.54c56.78-23.09,107.59-55.25,151.11-95.71L283.77,14Z"/>
              <path class="cls-2" d="M151.32,7,128.53,28.19C94.08,60.22,53.91,86,9,104.92l27.52,82.54c56.78-23.09,107.59-55.25,151.11-95.71L278.77,7Z"/>
              <path class="cls-2" d="M151.32,12,128.53,33.19C94.08,65.22,53.91,91,9,109.92l27.52,82.54c56.78-23.09,107.59-55.25,151.11-95.71L278.77,12Z"/>
              <path class="cls-2" d="M156.32,7,133.53,28.19C99.08,60.22,58.91,86,14,104.92l27.52,82.54c56.78-23.09,107.59-55.25,151.11-95.71L283.77,7Z"/>
              <path class="cls-2" d="M156.32,12,133.53,33.19C99.08,65.22,58.91,91,14,109.92l27.52,82.54c56.78-23.09,107.59-55.25,151.11-95.71L283.77,12Z"/>
              <path class="cls-2" d="M154.32,9,131.53,30.19C97.08,62.22,56.91,88,12,106.92l27.52,82.54c56.78-23.09,107.59-55.25,151.11-95.71L281.77,9Z"/>
              <path class="cls-2" d="M154.32,14,131.53,35.19C97.08,67.22,56.91,93,12,111.92l27.52,82.54c56.78-23.09,107.59-55.25,151.11-95.71L281.77,14Z"/>
              <path class="cls-2" d="M159.32,9,136.53,30.19C102.08,62.22,61.91,88,17,106.92l27.52,82.54c56.78-23.09,107.59-55.25,151.11-95.71L286.77,9Z"/>
              <path class="cls-2" d="M159.32,14,136.53,35.19C102.08,67.22,61.91,93,17,111.92l27.52,82.54c56.78-23.09,107.59-55.25,151.11-95.71L286.77,14Z"/>
              <path class="cls-2" d="M154.32,7,131.53,28.19C97.08,60.22,56.91,86,12,104.92l27.52,82.54c56.78-23.09,107.59-55.25,151.11-95.71L281.77,7Z"/>
              <path class="cls-2" d="M154.32,12,131.53,33.19C97.08,65.22,56.91,91,12,109.92l27.52,82.54c56.78-23.09,107.59-55.25,151.11-95.71L281.77,12Z"/>
              <path class="cls-2" d="M159.32,7,136.53,28.19C102.08,60.22,61.91,86,17,104.92l27.52,82.54c56.78-23.09,107.59-55.25,151.11-95.71L286.77,7Z"/>
              <path class="cls-2" d="M159.32,12,136.53,33.19C102.08,65.22,61.91,91,17,109.92l27.52,82.54c56.78-23.09,107.59-55.25,151.11-95.71L286.77,12Z"/>
              <path class="cls-2" d="M151.32,12,128.53,33.19C94.08,65.22,53.91,91,9,109.92l27.52,82.54c56.78-23.09,107.59-55.25,151.11-95.71L278.77,12Z"/>
              <path class="cls-2" d="M151.32,17,128.53,38.19C94.08,70.22,53.91,96,9,114.92l27.52,82.54c56.78-23.09,107.59-55.25,151.11-95.71L278.77,17Z"/>
              <path class="cls-2" d="M156.32,12,133.53,33.19C99.08,65.22,58.91,91,14,109.92l27.52,82.54c56.78-23.09,107.59-55.25,151.11-95.71L283.77,12Z"/>
              <path class="cls-2" d="M156.32,17,133.53,38.19C99.08,70.22,58.91,96,14,114.92l27.52,82.54c56.78-23.09,107.59-55.25,151.11-95.71L283.77,17Z"/>
              <path class="cls-2" d="M151.32,10,128.53,31.19C94.08,63.22,53.91,89,9,107.92l27.52,82.54c56.78-23.09,107.59-55.25,151.11-95.71L278.77,10Z"/>
              <path class="cls-2" d="M151.32,15,128.53,36.19C94.08,68.22,53.91,94,9,112.92l27.52,82.54c56.78-23.09,107.59-55.25,151.11-95.71L278.77,15Z"/>
              <path class="cls-2" d="M156.32,10,133.53,31.19C99.08,63.22,58.91,89,14,107.92l27.52,82.54c56.78-23.09,107.59-55.25,151.11-95.71L283.77,10Z"/>
              <path class="cls-2" d="M156.32,15,133.53,36.19C99.08,68.22,58.91,94,14,112.92l27.52,82.54c56.78-23.09,107.59-55.25,151.11-95.71L283.77,15Z"/>
              <path class="cls-2" d="M154.32,12,131.53,33.19C97.08,65.22,56.91,91,12,109.92l27.52,82.54c56.78-23.09,107.59-55.25,151.11-95.71L281.77,12Z"/>
              <path class="cls-2" d="M154.32,17,131.53,38.19C97.08,70.22,56.91,96,12,114.92l27.52,82.54c56.78-23.09,107.59-55.25,151.11-95.71L281.77,17Z"/>
              <path class="cls-2" d="M159.32,12,136.53,33.19C102.08,65.22,61.91,91,17,109.92l27.52,82.54c56.78-23.09,107.59-55.25,151.11-95.71L286.77,12Z"/>
              <path class="cls-2" d="M159.32,17,136.53,38.19C102.08,70.22,61.91,96,17,114.92l27.52,82.54c56.78-23.09,107.59-55.25,151.11-95.71L286.77,17Z"/>
              <path class="cls-2" d="M154.32,10,131.53,31.19C97.08,63.22,56.91,89,12,107.92l27.52,82.54c56.78-23.09,107.59-55.25,151.11-95.71L281.77,10Z"/>
              <path class="cls-2" d="M154.32,15,131.53,36.19C97.08,68.22,56.91,94,12,112.92l27.52,82.54c56.78-23.09,107.59-55.25,151.11-95.71L281.77,15Z"/>
              <path class="cls-2" d="M159.32,10,136.53,31.19C102.08,63.22,61.91,89,17,107.92l27.52,82.54c56.78-23.09,107.59-55.25,151.11-95.71L286.77,10Z"/>
              <path class="cls-2" d="M159.32,15,136.53,36.19C102.08,68.22,61.91,94,17,112.92l27.52,82.54c56.78-23.09,107.59-55.25,151.11-95.71L286.77,15Z"/>
            </g>
            <g>
              <g>
                <path class="cls-2" d="M149.32,9,126.53,30.19C92.08,62.22,51.91,88,7,106.92l27.52,82.54c56.78-23.09,107.59-55.25,151.11-95.71L276.77,9Z"/>
                <path class="cls-2" d="M149.32,14,126.53,35.19C92.08,67.22,51.91,93,7,111.92l27.52,82.54c56.78-23.09,107.59-55.25,151.11-95.71L276.77,14Z"/>
                <path class="cls-2" d="M154.32,9,131.53,30.19C97.08,62.22,56.91,88,12,106.92l27.52,82.54c56.78-23.09,107.59-55.25,151.11-95.71L281.77,9Z"/>
                <path class="cls-2" d="M154.32,14,131.53,35.19C97.08,67.22,56.91,93,12,111.92l27.52,82.54c56.78-23.09,107.59-55.25,151.11-95.71L281.77,14Z"/>
                <path class="cls-2" d="M149.32,7,126.53,28.19C92.08,60.22,51.91,86,7,104.92l27.52,82.54c56.78-23.09,107.59-55.25,151.11-95.71L276.77,7Z"/>
                <path class="cls-2" d="M149.32,12,126.53,33.19C92.08,65.22,51.91,91,7,109.92l27.52,82.54c56.78-23.09,107.59-55.25,151.11-95.71L276.77,12Z"/>
                <path class="cls-2" d="M154.32,7,131.53,28.19C97.08,60.22,56.91,86,12,104.92l27.52,82.54c56.78-23.09,107.59-55.25,151.11-95.71L281.77,7Z"/>
                <path class="cls-2" d="M154.32,12,131.53,33.19C97.08,65.22,56.91,91,12,109.92l27.52,82.54c56.78-23.09,107.59-55.25,151.11-95.71L281.77,12Z"/>
                <path class="cls-2" d="M152.32,9,129.53,30.19C95.08,62.22,54.91,88,10,106.92l27.52,82.54c56.78-23.09,107.59-55.25,151.11-95.71L279.77,9Z"/>
                <path class="cls-2" d="M152.32,14,129.53,35.19C95.08,67.22,54.91,93,10,111.92l27.52,82.54c56.78-23.09,107.59-55.25,151.11-95.71L279.77,14Z"/>
                <path class="cls-2" d="M157.32,9,134.53,30.19C100.08,62.22,59.91,88,15,106.92l27.52,82.54c56.78-23.09,107.59-55.25,151.11-95.71L284.77,9Z"/>
                <path class="cls-2" d="M157.32,14,134.53,35.19C100.08,67.22,59.91,93,15,111.92l27.52,82.54c56.78-23.09,107.59-55.25,151.11-95.71L284.77,14Z"/>
                <path class="cls-2" d="M152.32,7,129.53,28.19C95.08,60.22,54.91,86,10,104.92l27.52,82.54c56.78-23.09,107.59-55.25,151.11-95.71L279.77,7Z"/>
                <path class="cls-2" d="M152.32,12,129.53,33.19C95.08,65.22,54.91,91,10,109.92l27.52,82.54c56.78-23.09,107.59-55.25,151.11-95.71L279.77,12Z"/>
                <path class="cls-2" d="M157.32,7,134.53,28.19C100.08,60.22,59.91,86,15,104.92l27.52,82.54c56.78-23.09,107.59-55.25,151.11-95.71L284.77,7Z"/>
                <path class="cls-2" d="M157.32,12,134.53,33.19C100.08,65.22,59.91,91,15,109.92l27.52,82.54c56.78-23.09,107.59-55.25,151.11-95.71L284.77,12Z"/>
              </g>
              <g>
                <g>
                  <path class="cls-2" d="M149.32,12,126.53,33.19C92.08,65.22,51.91,91,7,109.92l27.52,82.54c56.78-23.09,107.59-55.25,151.11-95.71L276.77,12Z"/>
                  <path class="cls-2" d="M149.32,17,126.53,38.19C92.08,70.22,51.91,96,7,114.92l27.52,82.54c56.78-23.09,107.59-55.25,151.11-95.71L276.77,17Z"/>
                  <path class="cls-2" d="M154.32,12,131.53,33.19C97.08,65.22,56.91,91,12,109.92l27.52,82.54c56.78-23.09,107.59-55.25,151.11-95.71L281.77,12Z"/>
                  <path class="cls-2" d="M154.32,17,131.53,38.19C97.08,70.22,56.91,96,12,114.92l27.52,82.54c56.78-23.09,107.59-55.25,151.11-95.71L281.77,17Z"/>
                  <path class="cls-2" d="M149.32,10,126.53,31.19C92.08,63.22,51.91,89,7,107.92l27.52,82.54c56.78-23.09,107.59-55.25,151.11-95.71L276.77,10Z"/>
                  <path class="cls-2" d="M149.32,15,126.53,36.19C92.08,68.22,51.91,94,7,112.92l27.52,82.54c56.78-23.09,107.59-55.25,151.11-95.71L276.77,15Z"/>
                  <path class="cls-2" d="M154.32,10,131.53,31.19C97.08,63.22,56.91,89,12,107.92l27.52,82.54c56.78-23.09,107.59-55.25,151.11-95.71L281.77,10Z"/>
                  <path class="cls-2" d="M154.32,15,131.53,36.19C97.08,68.22,56.91,94,12,112.92l27.52,82.54c56.78-23.09,107.59-55.25,151.11-95.71L281.77,15Z"/>
                </g>
                <g>
                  <g>
                    <path class="cls-2" d="M152.32,12,129.53,33.19C95.08,65.22,54.91,91,10,109.92l27.52,82.54c56.78-23.09,107.59-55.25,151.11-95.71L279.77,12Z"/>
                    <path class="cls-2" d="M152.32,17,129.53,38.19C95.08,70.22,54.91,96,10,114.92l27.52,82.54c56.78-23.09,107.59-55.25,151.11-95.71L279.77,17Z"/>
                    <path class="cls-2" d="M157.32,12,134.53,33.19C100.08,65.22,59.91,91,15,109.92l27.52,82.54c56.78-23.09,107.59-55.25,151.11-95.71L284.77,12Z"/>
                    <path class="cls-2" d="M157.32,17,134.53,38.19C100.08,70.22,59.91,96,15,114.92l27.52,82.54c56.78-23.09,107.59-55.25,151.11-95.71L284.77,17Z"/>
                  </g>
                  <g>
                    <g>
                      <path d="M152.32,10,129.53,31.19C95.08,63.22,54.91,89,10,107.92l27.52,82.54c56.78-23.09,107.59-55.25,151.11-95.71L279.77,10Z"/>
                      <path d="M152.32,15,129.53,36.19C95.08,68.22,54.91,94,10,112.92l27.52,82.54c56.78-23.09,107.59-55.25,151.11-95.71L279.77,15Z"/>
                    </g>
                    <g>
                      <path d="M157.32,10,134.53,31.19C100.08,63.22,59.91,89,15,107.92l27.52,82.54c56.78-23.09,107.59-55.25,151.11-95.71L284.77,10Z"/>
                      <path class="cls-3" d="M157.32,15,134.53,36.19C100.08,68.22,59.91,94,15,112.92l27.52,82.54c56.78-23.09,107.59-55.25,151.11-95.71L284.77,15Z"/>
                    </g>
                  </g>
                </g>
              </g>
            </g>
          </g>
        </g>
        <g>
          <path class="cls-4" d="M94.31,154.19l-1.72-3.13-.13.07c-.41,3.75-2,5.82-4.62,7.27-6.68,3.69-13.15-1.22-22-17.34-7.64-13.85-9.64-23.86-1.74-28.23,7.17-4,12.65.62,17.6,9L77,124.41c-3.92-6.24-7.08-8.65-10.33-6.86-4.05,2.24-2.35,8.5,4.34,20.63,7.34,13.3,10.92,17.48,15.34,15,3.67-2,2.72-7.1.35-11.39A42.13,42.13,0,0,0,84.41,138l-5.33,2.94-2.4-4.35,10.24-5.65,11.56,21Z"/>
          <path class="cls-5" d="M120.56,138.17l-9.29-10.61-8.4,5.32,5.62,12.93-4.84,3.08L84.19,101.71l6.74-4.27,34.47,37.65Zm-19.78-10,7-4.46-17.48-20-.18.11Z"/>
          <path class="cls-6" d="M150.59,116.9,126.45,84.17l-.11.08,18.17,37.14-3.21,2.36L111.13,95.47l-.12.08,24.14,32.73-4.05,3L101.27,90.83,107.8,86l26.35,24.75.11-.08L118.39,78.2l6.48-4.78,29.83,40.45Z"/>
          <path class="cls-7" d="M161.73,108.05,129.25,69.69l14.37-12.17,3.39,4L137,70l10.58,12.5L155.3,76l3.35,4-7.75,6.56,11.76,13.89,10.69-9,3.39,4Z"/>
          <path class="cls-8" d="M166.09,55c-4.15-4.07-7.42-5.34-9.94-3-2.31,2.14-1.91,4.63.56,7.3,7.94,8.58,20.54-.69,30.67,10.25,5.13,5.54,5.49,11.6.36,16.36S177.25,89.49,170.61,83l3.76-3.77c4.69,4.34,7.43,5.24,10,2.81,2.41-2.23,2.08-5.37-.67-8.34-8.23-8.89-20.82.29-30.66-10.35-4.76-5.13-5.09-10.74-.47-15,5.34-4.95,10.92-3.15,17.08,3Z"/>
        </g>
      </g>
    </g>
  </g>
</svg>
