<svg xmlns="http://www.w3.org/2000/svg" xmlns:xlink="http://www.w3.org/1999/xlink" viewBox="0 0 299.77 210.46">
  <defs>
    <style>
      .cls-1 {
        fill: url(#linear-gradient);
      }

      .cls-2 {
        fill: #363556;
      }

      .cls-3 {
        fill: url(#linear-gradient-2);
      }

      .cls-4 {
        fill: url(#New_Gradient_Swatch_copy_3);
      }

      .cls-5 {
        fill: url(#New_Gradient_Swatch_copy_3-2);
      }

      .cls-6 {
        fill: url(#New_Gradient_Swatch_copy_3-3);
      }

      .cls-7 {
        fill: url(#New_Gradient_Swatch_copy_3-4);
      }

      .cls-8 {
        fill: url(#New_Gradient_Swatch_copy_3-5);
      }
    </style>
    <linearGradient id="linear-gradient" x1="149.89" y1="210.46" x2="149.89" gradientUnits="userSpaceOnUse">
      <stop offset="0" stop-color="#5e5b86"/>
      <stop offset="1" stop-color="#9287b4"/>
    </linearGradient>
    <linearGradient id="linear-gradient-2" x1="149.89" y1="15" x2="149.89" y2="195.46" gradientUnits="userSpaceOnUse">
      <stop offset="0" stop-color="#f7f6fb"/>
      <stop offset="0.26" stop-color="#b4b4b4"/>
      <stop offset="0.88" stop-color="#b4b4b4"/>
      <stop offset="1" stop-color="#c0c0c1"/>
    </linearGradient>
    <linearGradient id="New_Gradient_Swatch_copy_3" data-name="New Gradient Swatch copy 3" x1="106.47" y1="82.97" x2="132.64" y2="37.64" gradientUnits="userSpaceOnUse">
      <stop offset="0" stop-color="#444362"/>
      <stop offset="0.68" stop-color="#212121"/>
      <stop offset="1" stop-color="#444362"/>
    </linearGradient>
    <linearGradient id="New_Gradient_Swatch_copy_3-2" x1="123.63" y1="100.1" x2="149.92" y2="54.55" xlink:href="#New_Gradient_Swatch_copy_3"/>
    <linearGradient id="New_Gradient_Swatch_copy_3-3" x1="152.94" y1="122.5" x2="179.68" y2="76.19" xlink:href="#New_Gradient_Swatch_copy_3"/>
    <linearGradient id="New_Gradient_Swatch_copy_3-4" x1="179.24" y1="139.67" x2="204.89" y2="95.24" xlink:href="#New_Gradient_Swatch_copy_3"/>
    <linearGradient id="New_Gradient_Swatch_copy_3-5" x1="199.45" y1="152.15" x2="225.14" y2="107.65" xlink:href="#New_Gradient_Swatch_copy_3"/>
  </defs>
  <g id="Layer_2" data-name="Layer 2">
    <g id="buttons">
      <g>
        <g id="games_left_rect" data-name="games left rect">
          <path class="cls-1" d="M142.46,15l22.78,21.19c34.46,32,74.62,57.79,119.53,76.73l-27.51,82.54c-56.79-23.09-107.6-55.25-151.12-95.71L15,15H142.46m0-15H15A15,15,0,0,0,4.79,26l91.14,84.74c44.8,41.65,97.17,74.83,155.68,98.63a15,15,0,0,0,19.88-9.15L299,117.66a15,15,0,0,0-8.4-18.56C247.28,80.83,208.54,56,175.46,25.2L152.67,4a15,15,0,0,0-10.21-4Z"/>
          <g>
            <g>
              <path class="cls-2" d="M290.77,106.92C245.86,88,205.7,62.22,171.24,30.19L148.46,9H21l91.14,84.75c43.52,40.46,94.33,72.62,151.12,95.71Z"/>
              <path class="cls-2" d="M290.77,111.92C245.86,93,205.7,67.22,171.24,35.19L148.46,14H21l91.14,84.75c43.52,40.46,94.33,72.62,151.12,95.71Z"/>
              <path class="cls-2" d="M285.77,106.92C240.86,88,200.7,62.22,166.24,30.19L143.46,9H16l91.14,84.75c43.52,40.46,94.33,72.62,151.12,95.71Z"/>
              <path class="cls-2" d="M285.77,111.92C240.86,93,200.7,67.22,166.24,35.19L143.46,14H16l91.14,84.75c43.52,40.46,94.33,72.62,151.12,95.71Z"/>
              <path class="cls-2" d="M290.77,104.92C245.86,86,205.7,60.22,171.24,28.19L148.46,7H21l91.14,84.75c43.52,40.46,94.33,72.62,151.12,95.71Z"/>
              <path class="cls-2" d="M290.77,109.92C245.86,91,205.7,65.22,171.24,33.19L148.46,12H21l91.14,84.75c43.52,40.46,94.33,72.62,151.12,95.71Z"/>
              <path class="cls-2" d="M285.77,104.92C240.86,86,200.7,60.22,166.24,28.19L143.46,7H16l91.14,84.75c43.52,40.46,94.33,72.62,151.12,95.71Z"/>
              <path class="cls-2" d="M285.77,109.92C240.86,91,200.7,65.22,166.24,33.19L143.46,12H16l91.14,84.75c43.52,40.46,94.33,72.62,151.12,95.71Z"/>
              <path class="cls-2" d="M287.77,106.92C242.86,88,202.7,62.22,168.24,30.19L145.46,9H18l91.14,84.75c43.52,40.46,94.33,72.62,151.12,95.71Z"/>
              <path class="cls-2" d="M287.77,111.92C242.86,93,202.7,67.22,168.24,35.19L145.46,14H18l91.14,84.75c43.52,40.46,94.33,72.62,151.12,95.71Z"/>
              <path class="cls-2" d="M282.77,106.92C237.86,88,197.7,62.22,163.24,30.19L140.46,9H13l91.14,84.75c43.52,40.46,94.33,72.62,151.12,95.71Z"/>
              <path class="cls-2" d="M282.77,111.92C237.86,93,197.7,67.22,163.24,35.19L140.46,14H13l91.14,84.75c43.52,40.46,94.33,72.62,151.12,95.71Z"/>
              <path class="cls-2" d="M287.77,104.92C242.86,86,202.7,60.22,168.24,28.19L145.46,7H18l91.14,84.75c43.52,40.46,94.33,72.62,151.12,95.71Z"/>
              <path class="cls-2" d="M287.77,109.92C242.86,91,202.7,65.22,168.24,33.19L145.46,12H18l91.14,84.75c43.52,40.46,94.33,72.62,151.12,95.71Z"/>
              <path class="cls-2" d="M282.77,104.92C237.86,86,197.7,60.22,163.24,28.19L140.46,7H13l91.14,84.75c43.52,40.46,94.33,72.62,151.12,95.71Z"/>
              <path class="cls-2" d="M282.77,109.92C237.86,91,197.7,65.22,163.24,33.19L140.46,12H13l91.14,84.75c43.52,40.46,94.33,72.62,151.12,95.71Z"/>
              <path class="cls-2" d="M290.77,109.92C245.86,91,205.7,65.22,171.24,33.19L148.46,12H21l91.14,84.75c43.52,40.46,94.33,72.62,151.12,95.71Z"/>
              <path class="cls-2" d="M290.77,114.92C245.86,96,205.7,70.22,171.24,38.19L148.46,17H21l91.14,84.75c43.52,40.46,94.33,72.62,151.12,95.71Z"/>
              <path class="cls-2" d="M285.77,109.92C240.86,91,200.7,65.22,166.24,33.19L143.46,12H16l91.14,84.75c43.52,40.46,94.33,72.62,151.12,95.71Z"/>
              <path class="cls-2" d="M285.77,114.92C240.86,96,200.7,70.22,166.24,38.19L143.46,17H16l91.14,84.75c43.52,40.46,94.33,72.62,151.12,95.71Z"/>
              <path class="cls-2" d="M290.77,107.92C245.86,89,205.7,63.22,171.24,31.19L148.46,10H21l91.14,84.75c43.52,40.46,94.33,72.62,151.12,95.71Z"/>
              <path class="cls-2" d="M290.77,112.92C245.86,94,205.7,68.22,171.24,36.19L148.46,15H21l91.14,84.75c43.52,40.46,94.33,72.62,151.12,95.71Z"/>
              <path class="cls-2" d="M285.77,107.92C240.86,89,200.7,63.22,166.24,31.19L143.46,10H16l91.14,84.75c43.52,40.46,94.33,72.62,151.12,95.71Z"/>
              <path class="cls-2" d="M285.77,112.92C240.86,94,200.7,68.22,166.24,36.19L143.46,15H16l91.14,84.75c43.52,40.46,94.33,72.62,151.12,95.71Z"/>
              <path class="cls-2" d="M287.77,109.92C242.86,91,202.7,65.22,168.24,33.19L145.46,12H18l91.14,84.75c43.52,40.46,94.33,72.62,151.12,95.71Z"/>
              <path class="cls-2" d="M287.77,114.92C242.86,96,202.7,70.22,168.24,38.19L145.46,17H18l91.14,84.75c43.52,40.46,94.33,72.62,151.12,95.71Z"/>
              <path class="cls-2" d="M282.77,109.92C237.86,91,197.7,65.22,163.24,33.19L140.46,12H13l91.14,84.75c43.52,40.46,94.33,72.62,151.12,95.71Z"/>
              <path class="cls-2" d="M282.77,114.92C237.86,96,197.7,70.22,163.24,38.19L140.46,17H13l91.14,84.75c43.52,40.46,94.33,72.62,151.12,95.71Z"/>
              <path class="cls-2" d="M287.77,107.92C242.86,89,202.7,63.22,168.24,31.19L145.46,10H18l91.14,84.75c43.52,40.46,94.33,72.62,151.12,95.71Z"/>
              <path class="cls-2" d="M287.77,112.92C242.86,94,202.7,68.22,168.24,36.19L145.46,15H18l91.14,84.75c43.52,40.46,94.33,72.62,151.12,95.71Z"/>
              <path class="cls-2" d="M282.77,107.92C237.86,89,197.7,63.22,163.24,31.19L140.46,10H13l91.14,84.75c43.52,40.46,94.33,72.62,151.12,95.71Z"/>
              <path class="cls-2" d="M282.77,112.92C237.86,94,197.7,68.22,163.24,36.19L140.46,15H13l91.14,84.75c43.52,40.46,94.33,72.62,151.12,95.71Z"/>
            </g>
            <g>
              <g>
                <path class="cls-2" d="M292.77,106.92C247.86,88,207.7,62.22,173.24,30.19L150.46,9H23l91.14,84.75c43.52,40.46,94.33,72.62,151.12,95.71Z"/>
                <path class="cls-2" d="M292.77,111.92C247.86,93,207.7,67.22,173.24,35.19L150.46,14H23l91.14,84.75c43.52,40.46,94.33,72.62,151.12,95.71Z"/>
                <path class="cls-2" d="M287.77,106.92C242.86,88,202.7,62.22,168.24,30.19L145.46,9H18l91.14,84.75c43.52,40.46,94.33,72.62,151.12,95.71Z"/>
                <path class="cls-2" d="M287.77,111.92C242.86,93,202.7,67.22,168.24,35.19L145.46,14H18l91.14,84.75c43.52,40.46,94.33,72.62,151.12,95.71Z"/>
                <path class="cls-2" d="M292.77,104.92C247.86,86,207.7,60.22,173.24,28.19L150.46,7H23l91.14,84.75c43.52,40.46,94.33,72.62,151.12,95.71Z"/>
                <path class="cls-2" d="M292.77,109.92C247.86,91,207.7,65.22,173.24,33.19L150.46,12H23l91.14,84.75c43.52,40.46,94.33,72.62,151.12,95.71Z"/>
                <path class="cls-2" d="M287.77,104.92C242.86,86,202.7,60.22,168.24,28.19L145.46,7H18l91.14,84.75c43.52,40.46,94.33,72.62,151.12,95.71Z"/>
                <path class="cls-2" d="M287.77,109.92C242.86,91,202.7,65.22,168.24,33.19L145.46,12H18l91.14,84.75c43.52,40.46,94.33,72.62,151.12,95.71Z"/>
                <path class="cls-2" d="M289.77,106.92C244.86,88,204.7,62.22,170.24,30.19L147.46,9H20l91.14,84.75c43.52,40.46,94.33,72.62,151.12,95.71Z"/>
                <path class="cls-2" d="M289.77,111.92C244.86,93,204.7,67.22,170.24,35.19L147.46,14H20l91.14,84.75c43.52,40.46,94.33,72.62,151.12,95.71Z"/>
                <path class="cls-2" d="M284.77,106.92C239.86,88,199.7,62.22,165.24,30.19L142.46,9H15l91.14,84.75c43.52,40.46,94.33,72.62,151.12,95.71Z"/>
                <path class="cls-2" d="M284.77,111.92C239.86,93,199.7,67.22,165.24,35.19L142.46,14H15l91.14,84.75c43.52,40.46,94.33,72.62,151.12,95.71Z"/>
                <path class="cls-2" d="M289.77,104.92C244.86,86,204.7,60.22,170.24,28.19L147.46,7H20l91.14,84.75c43.52,40.46,94.33,72.62,151.12,95.71Z"/>
                <path class="cls-2" d="M289.77,109.92C244.86,91,204.7,65.22,170.24,33.19L147.46,12H20l91.14,84.75c43.52,40.46,94.33,72.62,151.12,95.71Z"/>
                <path class="cls-2" d="M284.77,104.92C239.86,86,199.7,60.22,165.24,28.19L142.46,7H15l91.14,84.75c43.52,40.46,94.33,72.62,151.12,95.71Z"/>
                <path class="cls-2" d="M284.77,109.92C239.86,91,199.7,65.22,165.24,33.19L142.46,12H15l91.14,84.75c43.52,40.46,94.33,72.62,151.12,95.71Z"/>
              </g>
              <g>
                <g>
                  <path class="cls-2" d="M292.77,109.92C247.86,91,207.7,65.22,173.24,33.19L150.46,12H23l91.14,84.75c43.52,40.46,94.33,72.62,151.12,95.71Z"/>
                  <path class="cls-2" d="M292.77,114.92C247.86,96,207.7,70.22,173.24,38.19L150.46,17H23l91.14,84.75c43.52,40.46,94.33,72.62,151.12,95.71Z"/>
                  <path class="cls-2" d="M287.77,109.92C242.86,91,202.7,65.22,168.24,33.19L145.46,12H18l91.14,84.75c43.52,40.46,94.33,72.62,151.12,95.71Z"/>
                  <path class="cls-2" d="M287.77,114.92C242.86,96,202.7,70.22,168.24,38.19L145.46,17H18l91.14,84.75c43.52,40.46,94.33,72.62,151.12,95.71Z"/>
                  <path class="cls-2" d="M292.77,107.92C247.86,89,207.7,63.22,173.24,31.19L150.46,10H23l91.14,84.75c43.52,40.46,94.33,72.62,151.12,95.71Z"/>
                  <path class="cls-2" d="M292.77,112.92C247.86,94,207.7,68.22,173.24,36.19L150.46,15H23l91.14,84.75c43.52,40.46,94.33,72.62,151.12,95.71Z"/>
                  <path class="cls-2" d="M287.77,107.92C242.86,89,202.7,63.22,168.24,31.19L145.46,10H18l91.14,84.75c43.52,40.46,94.33,72.62,151.12,95.71Z"/>
                  <path class="cls-2" d="M287.77,112.92C242.86,94,202.7,68.22,168.24,36.19L145.46,15H18l91.14,84.75c43.52,40.46,94.33,72.62,151.12,95.71Z"/>
                </g>
                <g>
                  <g>
                    <path class="cls-2" d="M289.77,109.92C244.86,91,204.7,65.22,170.24,33.19L147.46,12H20l91.14,84.75c43.52,40.46,94.33,72.62,151.12,95.71Z"/>
                    <path class="cls-2" d="M289.77,114.92C244.86,96,204.7,70.22,170.24,38.19L147.46,17H20l91.14,84.75c43.52,40.46,94.33,72.62,151.12,95.71Z"/>
                    <path class="cls-2" d="M284.77,109.92C239.86,91,199.7,65.22,165.24,33.19L142.46,12H15l91.14,84.75c43.52,40.46,94.33,72.62,151.12,95.71Z"/>
                    <path class="cls-2" d="M284.77,114.92C239.86,96,199.7,70.22,165.24,38.19L142.46,17H15l91.14,84.75c43.52,40.46,94.33,72.62,151.12,95.71Z"/>
                  </g>
                  <g>
                    <g>
                      <path d="M289.77,107.92C244.86,89,204.7,63.22,170.24,31.19L147.46,10H20l91.14,84.75c43.52,40.46,94.33,72.62,151.12,95.71Z"/>
                      <path d="M289.77,112.92C244.86,94,204.7,68.22,170.24,36.19L147.46,15H20l91.14,84.75c43.52,40.46,94.33,72.62,151.12,95.71Z"/>
                    </g>
                    <g>
                      <path d="M284.77,107.92C239.86,89,199.7,63.22,165.24,31.19L142.46,10H15l91.14,84.75c43.52,40.46,94.33,72.62,151.12,95.71Z"/>
                      <path class="cls-3" d="M284.77,112.92C239.86,94,199.7,68.22,165.24,36.19L142.46,15H15l91.14,84.75c43.52,40.46,94.33,72.62,151.12,95.71Z"/>
                    </g>
                  </g>
                </g>
              </g>
            </g>
          </g>
        </g>
        <g>
          <path class="cls-4" d="M107.77,82.49l2.43-2.61-.1-.1c-3.69.78-6.15-.07-8.35-2.12-5.59-5.2-3-12.87,9.59-26.36C122.11,39.72,131,34.69,137.61,40.84c6,5.57,3.37,12.21-3.05,19.53l-3.9-3.63c4.7-5.67,6-9.43,3.28-12-3.38-3.14-8.8.42-18.24,10.58-10.34,11.12-13.19,15.83-9.5,19.26,3.07,2.86,7.59.37,10.93-3.22,1-1.13,2.14-2.31,2.94-3.37l-4.46-4.15L119,60.24l8.56,8-16.3,17.53Z"/>
          <path class="cls-5" d="M129.85,102.4l7.53-11.91L129.9,84l-10.8,9-4.33-3.77,39.72-32,6,5.25-26.33,43.74Zm4-21.8,6.27,5.49,14.22-22.44-.16-.14Z"/>
          <path class="cls-6" d="M158.8,125.15,183.3,92.7l-.11-.09-30.43,28-3.18-2.4,18.53-37-.12-.09-24.5,32.46-4-3,30.28-40.11,6.48,4.89L160,107.65l.11.08,26.62-24.46,6.43,4.85-30.28,40.11Z"/>
          <path class="cls-7" d="M170.43,133.29l27.55-42,15.75,10.33L210.85,106l-11-7.22-9,13.7,8.49,5.57-2.84,4.33L188,116.79l-10,15.22,11.71,7.67-2.88,4.4Z"/>
          <path class="cls-8" d="M222.54,122.34c2.68-5.16,2.93-8.66,0-10.39-2.72-1.58-5-.47-6.82,2.68-5.88,10.1,6.67,19.43-.83,32.32-3.81,6.53-9.5,8.65-15.54,5.13s-6.52-9-2.3-17.21l4.71,2.49c-2.79,5.75-2.84,8.64.24,10.43,2.85,1.66,5.75.43,7.79-3.08,6.09-10.47-6.36-19.82.93-32.35,3.52-6,8.79-8,14.23-4.83,6.29,3.66,6.2,9.52,2.14,17.2Z"/>
        </g>
      </g>
    </g>
  </g>
</svg>
