<svg xmlns="http://www.w3.org/2000/svg" xmlns:xlink="http://www.w3.org/1999/xlink" viewBox="0 0 383.22 141.58">
  <defs>
    <style>
      .cls-1 {
        fill: url(#linear-gradient);
      }

      .cls-2 {
        fill: #363556;
      }

      .cls-3 {
        fill: url(#linear-gradient-2);
      }

      .cls-4 {
        fill: url(#New_Gradient_Swatch_copy_3);
      }

      .cls-5 {
        fill: url(#New_Gradient_Swatch_copy_3-2);
      }

      .cls-6 {
        fill: url(#New_Gradient_Swatch_copy_3-3);
      }

      .cls-7 {
        fill: url(#New_Gradient_Swatch_copy_3-4);
      }

      .cls-8 {
        fill: url(#New_Gradient_Swatch_copy_3-5);
      }
    </style>
    <linearGradient id="linear-gradient" x1="191.61" y1="141.58" x2="191.61" gradientUnits="userSpaceOnUse">
      <stop offset="0" stop-color="#5e5b86"/>
      <stop offset="1" stop-color="#9287b4"/>
    </linearGradient>
    <linearGradient id="linear-gradient-2" x1="191.61" y1="15" x2="191.61" y2="126.58" gradientUnits="userSpaceOnUse">
      <stop offset="0" stop-color="#f7f6fb"/>
      <stop offset="0.26" stop-color="#b4b4b4"/>
      <stop offset="0.88" stop-color="#b4b4b4"/>
      <stop offset="1" stop-color="#c0c0c1"/>
    </linearGradient>
    <linearGradient id="New_Gradient_Swatch_copy_3" data-name="New Gradient Swatch copy 3" x1="138.29" y1="56.19" x2="138.29" y2="107.94" gradientUnits="userSpaceOnUse">
      <stop offset="0" stop-color="#444362"/>
      <stop offset="0.68" stop-color="#212121"/>
      <stop offset="1" stop-color="#444362"/>
    </linearGradient>
    <linearGradient id="New_Gradient_Swatch_copy_3-2" x1="164.78" y1="58.25" x2="164.78" y2="109.42" xlink:href="#New_Gradient_Swatch_copy_3"/>
    <linearGradient id="New_Gradient_Swatch_copy_3-3" x1="190.22" y1="59.31" x2="190.22" y2="109.62" xlink:href="#New_Gradient_Swatch_copy_3"/>
    <linearGradient id="New_Gradient_Swatch_copy_3-4" x1="217.05" y1="58.2" x2="217.05" y2="109.54" xlink:href="#New_Gradient_Swatch_copy_3"/>
    <linearGradient id="New_Gradient_Swatch_copy_3-5" x1="241.99" y1="56.48" x2="241.99" y2="107.74" xlink:href="#New_Gradient_Swatch_copy_3"/>
  </defs>
  <g id="Layer_2" data-name="Layer 2">
    <g id="buttons">
      <g>
        <g id="glass_rect" data-name="glass rect">
          <path class="cls-1" d="M340.77,15l27.45,82.34a540.66,540.66,0,0,1-176.61,29.24A540.61,540.61,0,0,1,15,97.34L42.45,15A454,454,0,0,0,191.61,39.79,454,454,0,0,0,340.77,15m0-15a14.77,14.77,0,0,0-4.91.83,439.48,439.48,0,0,1-144.25,24A439.48,439.48,0,0,1,47.36.83,14.81,14.81,0,0,0,42.45,0,15,15,0,0,0,28.22,10.26L.77,92.59a15,15,0,0,0,9.35,18.93,556.2,556.2,0,0,0,181.49,30.06A556.2,556.2,0,0,0,373.1,111.52a15,15,0,0,0,9.35-18.93L355,10.26A15,15,0,0,0,340.77,0Z"/>
          <g>
            <g>
              <path class="cls-2" d="M368.22,91.34,340.77,9A454,454,0,0,1,191.61,33.79,454,454,0,0,1,42.45,9L15,91.34a540.61,540.61,0,0,0,176.61,29.24A540.66,540.66,0,0,0,368.22,91.34Z"/>
              <path class="cls-2" d="M368.22,96.34,340.77,14A454,454,0,0,1,191.61,38.79,454,454,0,0,1,42.45,14L15,96.34a540.61,540.61,0,0,0,176.61,29.24A540.66,540.66,0,0,0,368.22,96.34Z"/>
              <path class="cls-2" d="M368.22,89.34,340.77,7A454,454,0,0,1,191.61,31.79,454,454,0,0,1,42.45,7L15,89.34a540.61,540.61,0,0,0,176.61,29.24A540.66,540.66,0,0,0,368.22,89.34Z"/>
              <path class="cls-2" d="M368.22,94.34,340.77,12A454,454,0,0,1,191.61,36.79,454,454,0,0,1,42.45,12L15,94.34a540.61,540.61,0,0,0,176.61,29.24A540.66,540.66,0,0,0,368.22,94.34Z"/>
              <path class="cls-2" d="M366.22,91.34,338.77,9A454,454,0,0,1,189.61,33.79,454,454,0,0,1,40.45,9L13,91.34a540.61,540.61,0,0,0,176.61,29.24A540.66,540.66,0,0,0,366.22,91.34Z"/>
              <path class="cls-2" d="M366.22,96.34,338.77,14A454,454,0,0,1,189.61,38.79,454,454,0,0,1,40.45,14L13,96.34a540.61,540.61,0,0,0,176.61,29.24A540.66,540.66,0,0,0,366.22,96.34Z"/>
              <path class="cls-2" d="M366.22,89.34,338.77,7A454,454,0,0,1,189.61,31.79,454,454,0,0,1,40.45,7L13,89.34a540.61,540.61,0,0,0,176.61,29.24A540.66,540.66,0,0,0,366.22,89.34Z"/>
              <path class="cls-2" d="M366.22,94.34,338.77,12A454,454,0,0,1,189.61,36.79,454,454,0,0,1,40.45,12L13,94.34a540.61,540.61,0,0,0,176.61,29.24A540.66,540.66,0,0,0,366.22,94.34Z"/>
              <path class="cls-2" d="M368.22,94.34,340.77,12A454,454,0,0,1,191.61,36.79,454,454,0,0,1,42.45,12L15,94.34a540.61,540.61,0,0,0,176.61,29.24A540.66,540.66,0,0,0,368.22,94.34Z"/>
              <path class="cls-2" d="M368.22,99.34,340.77,17A454,454,0,0,1,191.61,41.79,454,454,0,0,1,42.45,17L15,99.34a540.61,540.61,0,0,0,176.61,29.24A540.66,540.66,0,0,0,368.22,99.34Z"/>
              <path class="cls-2" d="M368.22,92.34,340.77,10A454,454,0,0,1,191.61,34.79,454,454,0,0,1,42.45,10L15,92.34a540.61,540.61,0,0,0,176.61,29.24A540.66,540.66,0,0,0,368.22,92.34Z"/>
              <path class="cls-2" d="M368.22,97.34,340.77,15A454,454,0,0,1,191.61,39.79,454,454,0,0,1,42.45,15L15,97.34a540.61,540.61,0,0,0,176.61,29.24A540.66,540.66,0,0,0,368.22,97.34Z"/>
              <path class="cls-2" d="M366.22,94.34,338.77,12A454,454,0,0,1,189.61,36.79,454,454,0,0,1,40.45,12L13,94.34a540.61,540.61,0,0,0,176.61,29.24A540.66,540.66,0,0,0,366.22,94.34Z"/>
              <path class="cls-2" d="M366.22,99.34,338.77,17A454,454,0,0,1,189.61,41.79,454,454,0,0,1,40.45,17L13,99.34a540.61,540.61,0,0,0,176.61,29.24A540.66,540.66,0,0,0,366.22,99.34Z"/>
              <path class="cls-2" d="M366.22,92.34,338.77,10A454,454,0,0,1,189.61,34.79,454,454,0,0,1,40.45,10L13,92.34a540.61,540.61,0,0,0,176.61,29.24A540.66,540.66,0,0,0,366.22,92.34Z"/>
              <path class="cls-2" d="M366.22,97.34,338.77,15A454,454,0,0,1,189.61,39.79,454,454,0,0,1,40.45,15L13,97.34a540.61,540.61,0,0,0,176.61,29.24A540.66,540.66,0,0,0,366.22,97.34Z"/>
            </g>
            <g>
              <g>
                <path class="cls-2" d="M370.22,91.34,342.77,9A454,454,0,0,1,193.61,33.79,454,454,0,0,1,44.45,9L17,91.34a540.61,540.61,0,0,0,176.61,29.24A540.66,540.66,0,0,0,370.22,91.34Z"/>
                <path class="cls-2" d="M370.22,96.34,342.77,14A454,454,0,0,1,193.61,38.79,454,454,0,0,1,44.45,14L17,96.34a540.61,540.61,0,0,0,176.61,29.24A540.66,540.66,0,0,0,370.22,96.34Z"/>
                <path class="cls-2" d="M370.22,89.34,342.77,7A454,454,0,0,1,193.61,31.79,454,454,0,0,1,44.45,7L17,89.34a540.61,540.61,0,0,0,176.61,29.24A540.66,540.66,0,0,0,370.22,89.34Z"/>
                <path class="cls-2" d="M370.22,94.34,342.77,12A454,454,0,0,1,193.61,36.79,454,454,0,0,1,44.45,12L17,94.34a540.61,540.61,0,0,0,176.61,29.24A540.66,540.66,0,0,0,370.22,94.34Z"/>
                <path class="cls-2" d="M368.22,91.34,340.77,9A454,454,0,0,1,191.61,33.79,454,454,0,0,1,42.45,9L15,91.34a540.61,540.61,0,0,0,176.61,29.24A540.66,540.66,0,0,0,368.22,91.34Z"/>
                <path class="cls-2" d="M368.22,96.34,340.77,14A454,454,0,0,1,191.61,38.79,454,454,0,0,1,42.45,14L15,96.34a540.61,540.61,0,0,0,176.61,29.24A540.66,540.66,0,0,0,368.22,96.34Z"/>
                <path class="cls-2" d="M368.22,89.34,340.77,7A454,454,0,0,1,191.61,31.79,454,454,0,0,1,42.45,7L15,89.34a540.61,540.61,0,0,0,176.61,29.24A540.66,540.66,0,0,0,368.22,89.34Z"/>
                <path class="cls-2" d="M368.22,94.34,340.77,12A454,454,0,0,1,191.61,36.79,454,454,0,0,1,42.45,12L15,94.34a540.61,540.61,0,0,0,176.61,29.24A540.66,540.66,0,0,0,368.22,94.34Z"/>
              </g>
              <g>
                <g>
                  <path class="cls-2" d="M370.22,94.34,342.77,12A454,454,0,0,1,193.61,36.79,454,454,0,0,1,44.45,12L17,94.34a540.61,540.61,0,0,0,176.61,29.24A540.66,540.66,0,0,0,370.22,94.34Z"/>
                  <path class="cls-2" d="M370.22,99.34,342.77,17A454,454,0,0,1,193.61,41.79,454,454,0,0,1,44.45,17L17,99.34a540.61,540.61,0,0,0,176.61,29.24A540.66,540.66,0,0,0,370.22,99.34Z"/>
                  <path class="cls-2" d="M370.22,92.34,342.77,10A454,454,0,0,1,193.61,34.79,454,454,0,0,1,44.45,10L17,92.34a540.61,540.61,0,0,0,176.61,29.24A540.66,540.66,0,0,0,370.22,92.34Z"/>
                  <path class="cls-2" d="M370.22,97.34,342.77,15A454,454,0,0,1,193.61,39.79,454,454,0,0,1,44.45,15L17,97.34a540.61,540.61,0,0,0,176.61,29.24A540.66,540.66,0,0,0,370.22,97.34Z"/>
                </g>
                <g>
                  <g>
                    <path class="cls-2" d="M368.22,94.34,340.77,12A454,454,0,0,1,191.61,36.79,454,454,0,0,1,42.45,12L15,94.34a540.61,540.61,0,0,0,176.61,29.24A540.66,540.66,0,0,0,368.22,94.34Z"/>
                    <path class="cls-2" d="M368.22,99.34,340.77,17A454,454,0,0,1,191.61,41.79,454,454,0,0,1,42.45,17L15,99.34a540.61,540.61,0,0,0,176.61,29.24A540.66,540.66,0,0,0,368.22,99.34Z"/>
                  </g>
                  <g>
                    <path d="M368.22,92.34,340.77,10A454,454,0,0,1,191.61,34.79,454,454,0,0,1,42.45,10L15,92.34a540.61,540.61,0,0,0,176.61,29.24A540.66,540.66,0,0,0,368.22,92.34Z"/>
                    <path class="cls-3" d="M368.22,97.34,340.77,15A454,454,0,0,1,191.61,39.79,454,454,0,0,1,42.45,15L15,97.34a540.61,540.61,0,0,0,176.61,29.24A540.66,540.66,0,0,0,368.22,97.34Z"/>
                  </g>
                </g>
              </g>
            </g>
          </g>
        </g>
        <g>
          <path class="cls-4" d="M142.52,107.47l.36-3.56h-.14c-2.47,2.85-4.94,3.65-7.94,3.35-7.59-.77-10.12-8.48-8.27-26.79,1.58-15.74,5.62-25.11,14.61-24.21,8.14.82,10.05,7.7,9.36,17.41l-5.29-.54c.31-7.35-.92-11.13-4.61-11.5-4.6-.47-6.76,5.65-8.15,19.43-1.53,15.12-.95,20.59,4.06,21.1,4.18.42,6.27-4.3,6.76-9.17a42.76,42.76,0,0,0,.31-4.47l-6.05-.61.49-5,11.63,1.18-2.4,23.81Z"/>
          <path class="cls-5" d="M155.1,108.45l2.57-50.2,5.66.29L161,103.49l13.43.69-.27,5.24Z"/>
          <path class="cls-6" d="M197.36,109.6l-2.13-13.93-9.94,0-2.21,13.93-5.74,0,9-50.23,8,0,8.8,50.28ZM186.08,90.53l8.33,0-4-26.26h-.21Z"/>
          <path class="cls-7" d="M221.28,72c-.56-5.79-2.25-8.87-5.67-8.71-3.15.15-4.45,2.32-4.27,5.95.55,11.68,16.15,12.69,16.86,27.58.36,7.55-3.27,12.42-10.26,12.75s-10.35-4-11.28-13.2l5.31-.46c.79,6.34,2.31,8.79,5.87,8.62,3.29-.15,5.06-2.76,4.86-6.81-.57-12.1-16.11-13.19-16.79-27.66-.33-7,3-11.49,9.32-11.79,7.27-.35,10.38,4.62,11.14,13.27Z"/>
          <path class="cls-8" d="M245.66,70c-.82-5.76-2.66-8.75-6.07-8.43-3.14.3-4.33,2.52-4,6.15,1.11,11.64,16.74,11.91,18.16,26.75.71,7.53-2.68,12.56-9.65,13.22s-10.53-3.5-11.89-12.65l5.28-.71c1.09,6.29,2.72,8.67,6.28,8.33,3.27-.31,4.91-3,4.53-7-1.15-12-16.72-12.4-18.09-26.83-.66-7,2.48-11.62,8.75-12.22,7.25-.69,10.59,4.13,11.76,12.73Z"/>
        </g>
      </g>
    </g>
  </g>
</svg>
