<svg xmlns="http://www.w3.org/2000/svg" xmlns:xlink="http://www.w3.org/1999/xlink" viewBox="0 0 582.06 134.15">
  <defs>
    <style>
      .cls-1 {
        fill: url(#linear-gradient);
      }

      .cls-2 {
        fill: #363556;
      }

      .cls-3 {
        fill: url(#linear-gradient-2);
      }

      .cls-4 {
        fill: url(#New_Gradient_Swatch_copy_3);
      }

      .cls-5 {
        fill: url(#New_Gradient_Swatch_copy_3-2);
      }

      .cls-6 {
        fill: url(#New_Gradient_Swatch_copy_3-3);
      }

      .cls-7 {
        fill: url(#New_Gradient_Swatch_copy_3-4);
      }

      .cls-8 {
        fill: url(#New_Gradient_Swatch_copy_3-5);
      }
    </style>
    <linearGradient id="linear-gradient" x1="291.03" y1="134.15" x2="291.03" gradientUnits="userSpaceOnUse">
      <stop offset="0" stop-color="#5e5b86"/>
      <stop offset="1" stop-color="#9287b4"/>
    </linearGradient>
    <linearGradient id="linear-gradient-2" x1="291.03" y1="15" x2="291.03" y2="119.15" gradientUnits="userSpaceOnUse">
      <stop offset="0" stop-color="#f7f6fb"/>
      <stop offset="0.26" stop-color="#b4b4b4"/>
      <stop offset="0.88" stop-color="#b4b4b4"/>
      <stop offset="1" stop-color="#c0c0c1"/>
    </linearGradient>
    <linearGradient id="New_Gradient_Swatch_copy_3" data-name="New Gradient Swatch copy 3" x1="238.36" y1="40.8" x2="238.36" y2="92.19" gradientUnits="userSpaceOnUse">
      <stop offset="0" stop-color="#444362"/>
      <stop offset="0.68" stop-color="#212121"/>
      <stop offset="1" stop-color="#444362"/>
    </linearGradient>
    <linearGradient id="New_Gradient_Swatch_copy_3-2" x1="265.06" y1="41.36" x2="265.06" y2="91.63" xlink:href="#New_Gradient_Swatch_copy_3"/>
    <linearGradient id="New_Gradient_Swatch_copy_3-3" x1="293.37" y1="40.8" x2="293.37" y2="92.19" xlink:href="#New_Gradient_Swatch_copy_3"/>
    <linearGradient id="New_Gradient_Swatch_copy_3-4" x1="320.95" y1="41.36" x2="320.95" y2="91.63" xlink:href="#New_Gradient_Swatch_copy_3"/>
    <linearGradient id="New_Gradient_Swatch_copy_3-5" x1="344.05" y1="40.8" x2="344.05" y2="92.19" xlink:href="#New_Gradient_Swatch_copy_3"/>
  </defs>
  <g id="Layer_2" data-name="Layer 2">
    <g id="buttons">
      <g>
        <g id="shoes">
          <path class="cls-1" d="M567.06,15h0m0,0C498.15,79.07,400,119.15,291,119.15S83.91,79.07,15,15H567.06m0-15H15A15,15,0,0,0,4.79,26C41.17,59.81,84.17,86.43,132.6,105.1A438.85,438.85,0,0,0,291,134.15,438.85,438.85,0,0,0,449.46,105.1c48.38-18.65,91.34-45.23,127.7-79A15,15,0,0,0,567.07,0Zm0,30h0Z"/>
          <g>
            <g>
              <path class="cls-2" d="M291,113.15c109,0,207.12-40.08,276-104.15H15C83.91,73.07,182.07,113.15,291,113.15Z"/>
              <path class="cls-2" d="M291,118.15c109,0,207.12-40.08,276-104.15H15C83.91,78.07,182.07,118.15,291,118.15Z"/>
              <path class="cls-2" d="M291,111.15c109,0,207.12-40.08,276-104.15H15C83.91,71.07,182.07,111.15,291,111.15Z"/>
              <path class="cls-2" d="M291,116.15c109,0,207.12-40.08,276-104.15H15C83.91,76.07,182.07,116.15,291,116.15Z"/>
              <path class="cls-2" d="M289,113.15c109,0,207.12-40.08,276-104.15H13C81.91,73.07,180.07,113.15,289,113.15Z"/>
              <path class="cls-2" d="M289,118.15c109,0,207.12-40.08,276-104.15H13C81.91,78.07,180.07,118.15,289,118.15Z"/>
              <path class="cls-2" d="M289,111.15c109,0,207.12-40.08,276-104.15H13C81.91,71.07,180.07,111.15,289,111.15Z"/>
              <path class="cls-2" d="M289,116.15c109,0,207.12-40.08,276-104.15H13C81.91,76.07,180.07,116.15,289,116.15Z"/>
              <path class="cls-2" d="M291,116.15c109,0,207.12-40.08,276-104.15H15C83.91,76.07,182.07,116.15,291,116.15Z"/>
              <path class="cls-2" d="M291,121.15c109,0,207.12-40.08,276-104.15H15C83.91,81.07,182.07,121.15,291,121.15Z"/>
              <path class="cls-2" d="M291,114.15c109,0,207.12-40.08,276-104.15H15C83.91,74.07,182.07,114.15,291,114.15Z"/>
              <path class="cls-2" d="M291,119.15c109,0,207.12-40.08,276-104.15H15C83.91,79.07,182.07,119.15,291,119.15Z"/>
              <path class="cls-2" d="M289,116.15c109,0,207.12-40.08,276-104.15H13C81.91,76.07,180.07,116.15,289,116.15Z"/>
              <path class="cls-2" d="M289,121.15c109,0,207.12-40.08,276-104.15H13C81.91,81.07,180.07,121.15,289,121.15Z"/>
              <path class="cls-2" d="M289,114.15c109,0,207.12-40.08,276-104.15H13C81.91,74.07,180.07,114.15,289,114.15Z"/>
              <path class="cls-2" d="M289,119.15c109,0,207.12-40.08,276-104.15H13C81.91,79.07,180.07,119.15,289,119.15Z"/>
            </g>
            <g>
              <g>
                <path class="cls-2" d="M293,113.15c109,0,207.12-40.08,276-104.15H17C85.91,73.07,184.07,113.15,293,113.15Z"/>
                <path class="cls-2" d="M293,118.15c109,0,207.12-40.08,276-104.15H17C85.91,78.07,184.07,118.15,293,118.15Z"/>
                <path class="cls-2" d="M293,111.15c109,0,207.12-40.08,276-104.15H17C85.91,71.07,184.07,111.15,293,111.15Z"/>
                <path class="cls-2" d="M293,116.15c109,0,207.12-40.08,276-104.15H17C85.91,76.07,184.07,116.15,293,116.15Z"/>
                <path class="cls-2" d="M291,113.15c109,0,207.12-40.08,276-104.15H15C83.91,73.07,182.07,113.15,291,113.15Z"/>
                <path class="cls-2" d="M291,118.15c109,0,207.12-40.08,276-104.15H15C83.91,78.07,182.07,118.15,291,118.15Z"/>
                <path class="cls-2" d="M291,111.15c109,0,207.12-40.08,276-104.15H15C83.91,71.07,182.07,111.15,291,111.15Z"/>
                <path class="cls-2" d="M291,116.15c109,0,207.12-40.08,276-104.15H15C83.91,76.07,182.07,116.15,291,116.15Z"/>
              </g>
              <g>
                <g>
                  <path class="cls-2" d="M293,116.15c109,0,207.12-40.08,276-104.15H17C85.91,76.07,184.07,116.15,293,116.15Z"/>
                  <path class="cls-2" d="M293,121.15c109,0,207.12-40.08,276-104.15H17C85.91,81.07,184.07,121.15,293,121.15Z"/>
                  <path class="cls-2" d="M293,114.15c109,0,207.12-40.08,276-104.15H17C85.91,74.07,184.07,114.15,293,114.15Z"/>
                  <path class="cls-2" d="M293,119.15c109,0,207.12-40.08,276-104.15H17C85.91,79.07,184.07,119.15,293,119.15Z"/>
                </g>
                <g>
                  <g>
                    <path class="cls-2" d="M291,116.15c109,0,207.12-40.08,276-104.15H15C83.91,76.07,182.07,116.15,291,116.15Z"/>
                    <path class="cls-2" d="M291,121.15c109,0,207.12-40.08,276-104.15H15C83.91,81.07,182.07,121.15,291,121.15Z"/>
                  </g>
                  <g>
                    <path d="M291,114.15c109,0,207.12-40.08,276-104.15H15C83.91,74.07,182.07,114.15,291,114.15Z"/>
                    <path class="cls-3" d="M291,119.15c109,0,207.12-40.08,276-104.15H15C83.91,79.07,182.07,119.15,291,119.15Z"/>
                  </g>
                </g>
              </g>
            </g>
          </g>
        </g>
        <g>
          <path class="cls-4" d="M243.36,54.81c-.28-5.81-1.82-9-5.25-9-3.15,0-4.55,2.1-4.55,5.74,0,11.69,15.54,13.44,15.54,28.35,0,7.56-3.85,12.25-10.85,12.25s-10.15-4.48-10.64-13.72l5.32-.21c.49,6.37,1.89,8.89,5.46,8.89,3.29,0,5.18-2.52,5.18-6.58,0-12.11-15.47-13.93-15.47-28.42,0-7,3.57-11.35,9.87-11.35,7.28,0,10.15,5.12,10.5,13.8Z"/>
          <path class="cls-5" d="M270.1,91.63V67.9h-10V91.63h-5.67V41.36h5.67V62.72h10V41.36h5.6V91.63Z"/>
          <path class="cls-6" d="M281.51,66.36c0-18.2,3.43-25.56,11.9-25.56s11.83,7.36,11.83,25.56c0,17.57-3.36,25.83-11.83,25.83S281.51,83.93,281.51,66.36Zm17.85,0c0-14.7-1.68-20.37-5.95-20.37s-6,5.67-6,20.37,1.89,20.72,6,20.72S299.36,81,299.36,66.36Z"/>
          <path class="cls-7" d="M311.12,91.63V41.36H330v5.26H316.79V63h10.15v5.18H316.79v18.2h14v5.25Z"/>
          <path class="cls-8" d="M349.06,54.81c-.28-5.81-1.82-9-5.25-9-3.15,0-4.55,2.1-4.55,5.74,0,11.69,15.54,13.44,15.54,28.35,0,7.56-3.85,12.25-10.85,12.25s-10.15-4.48-10.64-13.72l5.32-.21c.49,6.37,1.89,8.89,5.46,8.89,3.29,0,5.18-2.52,5.18-6.58,0-12.11-15.47-13.93-15.47-28.42,0-7,3.57-11.35,9.87-11.35,7.28,0,10.15,5.12,10.5,13.8Z"/>
        </g>
      </g>
    </g>
  </g>
</svg>
