<svg xmlns="http://www.w3.org/2000/svg" xmlns:xlink="http://www.w3.org/1999/xlink" viewBox="0 0 724.78 203.77">
  <defs>
    <style>
      .cls-1 {
        fill: #363556;
      }

      .cls-2 {
        fill: url(#linear-gradient);
      }

      .cls-3 {
        fill: url(#linear-gradient-2);
      }

      .cls-4 {
        fill: url(#linear-gradient-3);
      }

      .cls-5 {
        fill: url(#linear-gradient-4);
      }

      .cls-6 {
        fill: url(#linear-gradient-5);
      }

      .cls-7 {
        fill: url(#linear-gradient-6);
      }

      .cls-8 {
        fill: url(#linear-gradient-7);
      }

      .cls-9 {
        fill: url(#linear-gradient-8);
      }

      .cls-10 {
        fill: url(#linear-gradient-9);
      }

      .cls-11 {
        fill: url(#linear-gradient-10);
      }

      .cls-12 {
        fill: url(#linear-gradient-11);
      }

      .cls-13 {
        fill: url(#linear-gradient-12);
      }
    </style>
    <linearGradient id="linear-gradient" x1="35.58" y1="200.56" x2="35.58" y2="129.05" gradientUnits="userSpaceOnUse">
      <stop offset="0" stop-color="#b4b4b4"/>
      <stop offset="0.79" stop-color="#c0c0c1"/>
      <stop offset="1" stop-color="#b4b4b4"/>
    </linearGradient>
    <linearGradient id="linear-gradient-2" x1="92.07" y1="158.77" x2="92.07" y2="89.56" xlink:href="#linear-gradient"/>
    <linearGradient id="linear-gradient-3" x1="140.75" y1="126.96" x2="140.75" y2="52.95" xlink:href="#linear-gradient"/>
    <linearGradient id="linear-gradient-4" x1="204.5" y1="103.07" x2="204.5" y2="35.94" xlink:href="#linear-gradient"/>
    <linearGradient id="linear-gradient-5" x1="258.96" y1="80.68" x2="258.96" y2="6.09" xlink:href="#linear-gradient"/>
    <linearGradient id="linear-gradient-6" x1="365.02" y1="61.23" x2="365.02" y2="0" xlink:href="#linear-gradient"/>
    <linearGradient id="linear-gradient-7" x1="430.66" y1="71.04" x2="430.66" y2="5.86" xlink:href="#linear-gradient"/>
    <linearGradient id="linear-gradient-8" x1="490.89" y1="81.08" x2="490.89" y2="19.44" xlink:href="#linear-gradient"/>
    <linearGradient id="linear-gradient-9" x1="550.22" y1="112.45" x2="550.22" y2="32.26" xlink:href="#linear-gradient"/>
    <linearGradient id="linear-gradient-10" x1="598.02" y1="129.39" x2="598.02" y2="64.99" xlink:href="#linear-gradient"/>
    <linearGradient id="linear-gradient-11" x1="641.11" y1="162.75" x2="641.11" y2="82.58" xlink:href="#linear-gradient"/>
    <linearGradient id="linear-gradient-12" x1="688.14" y1="200.77" x2="688.14" y2="124.91" xlink:href="#linear-gradient"/>
  </defs>
  <g id="Layer_2" data-name="Layer 2">
    <g id="decoration">
      <g>
        <g>
          <path class="cls-1" d="M39.27,203.56l-1.76-2.05a26.05,26.05,0,0,0,3-2.93,4.66,4.66,0,0,0,1.15-2.48,4.43,4.43,0,0,0-.74-2.69,24.73,24.73,0,0,0-2.62-3.5L13.86,161.64a19.33,19.33,0,0,0-3.42-3.29,3.79,3.79,0,0,0-2.57-.75,6,6,0,0,0-2.58,1.1,34.57,34.57,0,0,1-3.47,2L0,158.63a27.67,27.67,0,0,0,3-2.15c1-.81,2-1.65,3-2.52q2-1.71,3.65-3.28t3.28-3.12q1.59-1.56,3.34-3.18c1.16-1.09,2.45-2.24,3.85-3.45a38.75,38.75,0,0,1,11.28-7,26.16,26.16,0,0,1,11.19-1.81,25.38,25.38,0,0,1,10.71,3.29,37,37,0,0,1,9.81,8.23,35.81,35.81,0,0,1,6.55,10.64A22.82,22.82,0,0,1,71,165.46a29.42,29.42,0,0,1-4.4,11.72,53.63,53.63,0,0,1-10.79,12.11ZM57.5,183.17q7.75-6.71,7.36-14.74T55.58,150.1q-8.84-10.22-17.25-11.45T22,144.3l-2.63,2.27a20,20,0,0,0-1.89,1.81,2.91,2.91,0,0,0-.78,1.62,3.37,3.37,0,0,0,.44,1.83,13.6,13.6,0,0,0,1.74,2.42L45.2,184.76A15.09,15.09,0,0,0,48,187.4a3.69,3.69,0,0,0,2.34.71,4.69,4.69,0,0,0,2.34-1q1.2-.87,2.85-2.28Z"/>
          <path class="cls-1" d="M128.65,124.33a9,9,0,0,1,1.1,2.42,9.71,9.71,0,0,1,.43,3.2,10.05,10.05,0,0,1-.66,3.31,5.63,5.63,0,0,1-2.11,2.68c-2.9,2-5.4,3-7.48,2.95a10.93,10.93,0,0,1-6.48-2.78q-2.81-2.22-5.9-4.83a49.45,49.45,0,0,0-6.15-4.5,19.06,19.06,0,0,0-6-2.5,6.9,6.9,0,0,0-5.54,1.17l-2.14,1.49c-1.29.89-1.84,1.68-1.65,2.35l11.15,16q3.35,4.81,9.91.24l1.54,2.22-20.13,14L87,159.55q6.28-4.37,2.94-9.17l-24.3-34.95q-3.29-4.73-10.07,0L54,113.13l8.92-6.21c1.57-1.09,2.89-2,4-2.81s2.11-1.56,3.1-2.32,2.06-1.56,3.2-2.39,2.56-1.83,4.22-3a21.77,21.77,0,0,1,6.43-3.1,17.91,17.91,0,0,1,6.44-.7A15,15,0,0,1,96,94.3a12.52,12.52,0,0,1,4.48,4,13.19,13.19,0,0,1,2.26,5.23,12.89,12.89,0,0,1-.19,5.28,18.91,18.91,0,0,1-2.22,5.27,29.71,29.71,0,0,1-3.93,5.15l.15.22a22.31,22.31,0,0,1,8.63.31,17.68,17.68,0,0,1,6.45,2.8l3.47,2.85a40.11,40.11,0,0,0,4,3,15.83,15.83,0,0,0,3.93,1.93,3.64,3.64,0,0,0,3.33-.4q1.71-1.19.18-5.06Zm-39.74-2.51a35.55,35.55,0,0,0,3.93-3.17,10.52,10.52,0,0,0,2.64-3.81,9,9,0,0,0,.48-4.72,14.38,14.38,0,0,0-2.68-5.91,12.24,12.24,0,0,0-4.2-4A9.75,9.75,0,0,0,84.55,99a12.15,12.15,0,0,0-4.44.84,18.54,18.54,0,0,0-4,2.09l-3.43,2.38c-1.81,1.26-1.75,3.26.17,6l9.81,14.12a1.88,1.88,0,0,0,2.49-.09Z"/>
          <path class="cls-1" d="M135,130l-1.3-2.36q7-3.85,4.19-9l-19.64-35.8q-3.64-6.65-11.19-2.5l-1.29-2.37,40.08-22,8.7,14.42L152.38,72a22.36,22.36,0,0,0-5.69-5.49,10.81,10.81,0,0,0-5.24-1.7,11.7,11.7,0,0,0-5.2,1.11c-1.74.79-3.61,1.72-5.59,2.81l-2.13,1.17q-5.79,3.18-3.85,6.73l7.75,14.12c.87,1.58,1.91,2,3.13,1.37l2.59-1.43a32.76,32.76,0,0,0,3.43-2.14,7.62,7.62,0,0,0,2.34-2.61,6.82,6.82,0,0,0,.67-3.65A16.62,16.62,0,0,0,143.16,77L146,75.5l11.21,20.43-2.82,1.55a23.36,23.36,0,0,0-3.44-4.11,6.52,6.52,0,0,0-3.18-1.65,6.94,6.94,0,0,0-3.47.37,30,30,0,0,0-4.27,2l-.91.5q-3.51,1.92-2.08,4.53l8.27,15.07q2.46,4.5,8.56,1.15l2.36-1.3a36.61,36.61,0,0,0,7.33-5,12.84,12.84,0,0,0,3.46-5,13.58,13.58,0,0,0,.71-5.67c-.16-2-.47-4.37-.92-7l2.41-.5,6.51,16.75Z"/>
          <path class="cls-1" d="M210,93.08l-1-2.5,2.24-1.3a23.12,23.12,0,0,0,2.09-1.34,7.75,7.75,0,0,0,1.43-1.31,1.18,1.18,0,0,0,.33-1.16,5.25,5.25,0,0,1-.51-.91,5.47,5.47,0,0,0-1.08-1.36l-7.8-8.77q-1.77-1.8-5.79-.17l-12,4.89q-3.06,1.26-2.82,3.67l.78,9.74a6,6,0,0,0,.55,2.29q1.56,3.81,8.64.92l1.19,2.92-18.11,7.38-1.19-2.91a7,7,0,0,0,3.31-3.29,12.42,12.42,0,0,0,1-5.46l-.09-55.47H184l39.26,41.73a8.51,8.51,0,0,0,2.65,1.44,4.47,4.47,0,0,0,1.52-.08c.86-.12,2.06-.27,3.62-.45l1,2.5Zm-25.25-41.9.06,20.39a8.9,8.9,0,0,0,.27,3.19c.34.84,1.5.85,3.48,0l10.14-4.13c1.61-.66,2.28-1.32,2-2a15.06,15.06,0,0,0-2-2.39Z"/>
          <path class="cls-1" d="M276.45,72.72l-.64-2.63q7.43-1.8,5.88-8.19l-10.5-40.52L265.3,75.43l-2.36.58L231.78,31.82l9.05,38.64q1.78,7.73,10.32,5.64l.64,2.62-20.35,5-.64-2.62q7.68-1.87,6.06-10.39L228,31.44l-.21-.87a7.08,7.08,0,0,0-.64-1.7,2.66,2.66,0,0,0-1.44-1.14,7,7,0,0,0-2.8-.29,27.32,27.32,0,0,0-4.64.81l-.63-2.63,17.39-4.24,27.86,40.18,5.5-48.3,17.14-4.17.64,2.62a20,20,0,0,0-4.3,1.46,5.68,5.68,0,0,0-2.13,1.73,3.35,3.35,0,0,0-.59,2,9.36,9.36,0,0,0,.28,2.07l10.78,40.24q1.71,7,9.39,5.13l.64,2.63Z"/>
          <path class="cls-1" d="M375.57,63.68l.06-2.7q7.64.18,7.79-6.39l.33-41.86L364.1,63.43l-2.44-.06L343,12.63,341.74,52.3q-.27,7.92,8.51,8.12l-.06,2.7-20.94-.47.06-2.7q7.9.18,8.54-8.47l1.59-40.18,0-.9a6.92,6.92,0,0,0-.17-1.81,2.64,2.64,0,0,0-1.1-1.46,6.87,6.87,0,0,0-2.63-1,26.85,26.85,0,0,0-4.69-.42l.06-2.7,17.9.4,16.54,46L383.16,4.17l17.64.39-.06,2.7a19.62,19.62,0,0,0-4.53.31,5.54,5.54,0,0,0-2.5,1.11,3.33,3.33,0,0,0-1.09,1.74,9.76,9.76,0,0,0-.26,2.06l0,41.66q-.15,7.22,7.75,7.39l-.06,2.7Z"/>
          <path class="cls-1" d="M435.66,70.07l.45-2.67,2.59.08a21.94,21.94,0,0,0,2.47,0,7.92,7.92,0,0,0,1.91-.36c.53-.18.83-.45.89-.81a6.81,6.81,0,0,1,0-1,4.93,4.93,0,0,0-.19-1.72l-2-11.57c-.36-1.64-2-2.71-4.83-3.19l-12.77-2.17c-2.17-.37-3.61.18-4.33,1.63l-4.47,8.69a6.09,6.09,0,0,0-.73,2.24c-.46,2.71,1.82,4.48,6.85,5.34l-.53,3.1-19.28-3.26.53-3.11a7,7,0,0,0,4.54-1.05,12.5,12.5,0,0,0,3.74-4.11L439.68,8.86l2.39,1.5,11.38,56.15a8.6,8.6,0,0,0,1.49,2.62,4.32,4.32,0,0,0,1.34.73c.79.35,1.89.86,3.31,1.52L459.14,74Zm.62-48.92-10.7,17.36a9,9,0,0,0-1.46,2.86c-.15.88.84,1.51,2.95,1.86l10.8,1.83c1.71.29,2.63.08,2.75-.63a15.33,15.33,0,0,0-.45-3.08Z"/>
          <path class="cls-1" d="M509.89,71.75a22.49,22.49,0,0,1-5.12,7,20.35,20.35,0,0,1-6.64,4,22.37,22.37,0,0,1-7.65,1.33,27.42,27.42,0,0,1-8-1.18,26.42,26.42,0,0,1-10.05-5.39A25.55,25.55,0,0,1,466,69a28.31,28.31,0,0,1-2.5-10.76,36.1,36.1,0,0,1,1.57-12,36.81,36.81,0,0,1,5.76-11.71,32.17,32.17,0,0,1,8.51-8,26.4,26.4,0,0,1,10.12-3.84,24.06,24.06,0,0,1,10.71.75,21.64,21.64,0,0,1,10.89,7.57,11.34,11.34,0,0,1,7.08-1.83,7.39,7.39,0,0,1,.17,2.16A39.57,39.57,0,0,1,518,36c-.22,1.88-.57,4-1,6.36s-1.07,4.82-1.83,7.35l-2.83-.85q.56-8.85-2.95-14.45a17,17,0,0,0-9.83-7.49,15.07,15.07,0,0,0-8.43-.3,17.16,17.16,0,0,0-6.92,3.75,25.3,25.3,0,0,0-5.3,6.64,41,41,0,0,0-3.53,8.34A60.86,60.86,0,0,0,473,57a30.29,30.29,0,0,0,.59,10,17.84,17.84,0,0,0,4,7.78,16.8,16.8,0,0,0,7.92,4.75,22.93,22.93,0,0,0,5.91,1,13.52,13.52,0,0,0,5.37-1,18.23,18.23,0,0,0,5.28-3.41,45.16,45.16,0,0,0,5.61-6.17Z"/>
          <path class="cls-1" d="M543.45,105.05l1.11-2.46q7.85,3.55,10.41-2.09l7.79-17.12c-.58-1.25-2.4-2.58-5.46-4l-14.24-6.48a16.62,16.62,0,0,0-3.13-1.08,11.38,11.38,0,0,0-3.12-.28L529,88.69q-2.58,5.66,4.71,9l-1.12,2.45L509.43,89.57l1.12-2.46q8.07,3.67,10.64-2L537.8,48.6q3.29-7.22-4.78-10.89l1.12-2.45L557.32,45.8l-1.12,2.46q-7.28-3.32-10.57,3.92l-6.4,14.06a19,19,0,0,0,5.29,3.5l14.24,6.48q4.43,2,6.42,1.83L571.58,64q3.28-7.23-4.54-10.8l1.12-2.46L591,61.13l-1.12,2.46q-7.2-3.27-10.48,4L562.8,104.05q-2.56,5.67,4.63,8.94l-1.12,2.46Z"/>
          <path class="cls-1" d="M572.21,119.65l1.36-2.33q7.13,4.17,10.27-1.19l20.29-34.61q4-6.85-3.41-11.2L602.08,68l21.75,12.75-1.37,2.33q-6.9-4-10.91,2.8l-20.29,34.61q-3.13,5.35,4.06,9.58L594,132.39Z"/>
          <path class="cls-1" d="M639.51,165l-1.83-63.56-21.07,29.52q-6.23,8.72,1.06,13.92L616.11,147l-17-12.11,1.57-2.2q5.94,4.24,12.17-4.49L636,95.86c1.47-2-.14-4.75-4.8-8.08l1.56-2.2,12.94,9.23,1.58,56.31L666,124.84q5.76-8.07-1.45-13.23l1.56-2.19,17,12.12-1.57,2.19q-6.51-4.64-12.27,3.43l-27.54,38.59Z"/>
          <path class="cls-1" d="M651.5,173.11l1.78-2q6,5.28,9.88.88l27-30.67q5-5.69-1.46-11.37l1.78-2,34.33,30.19-10.59,13.1-2.26-1.51a22.78,22.78,0,0,0,3.23-7.23,10.73,10.73,0,0,0-.2-5.5,11.63,11.63,0,0,0-2.81-4.51c-1.33-1.37-2.85-2.81-4.55-4.3l-1.82-1.61q-5-4.36-7.64-1.32l-10.64,12.1q-1.79,2-.21,3.4l2.21,1.95a33,33,0,0,0,3.19,2.5,7.57,7.57,0,0,0,3.25,1.31,6.85,6.85,0,0,0,3.66-.62,16.35,16.35,0,0,0,4.43-3.12l2.41,2.13-15.39,17.5-2.42-2.12a23.63,23.63,0,0,0,2.7-4.65,6.55,6.55,0,0,0,.46-3.55,6.91,6.91,0,0,0-1.52-3.13,29.48,29.48,0,0,0-3.32-3.34l-.78-.69c-2-1.76-3.66-1.9-5-.41l-11.35,12.91q-3.39,3.86,1.83,8.44l2,1.78a37.12,37.12,0,0,0,7.18,5.19,13,13,0,0,0,5.87,1.56,13.48,13.48,0,0,0,5.57-1.28q2.79-1.26,6.26-3.23l1.29,2.09-13.53,11.83Z"/>
        </g>
        <g>
          <path class="cls-2" d="M39.27,200.56l-1.76-2.05a26.05,26.05,0,0,0,3-2.93,4.66,4.66,0,0,0,1.15-2.48,4.43,4.43,0,0,0-.74-2.69,24.73,24.73,0,0,0-2.62-3.5L13.86,158.64a19.33,19.33,0,0,0-3.42-3.29,3.79,3.79,0,0,0-2.57-.75,6,6,0,0,0-2.58,1.1,34.57,34.57,0,0,1-3.47,2L0,155.63a27.67,27.67,0,0,0,3-2.15c1-.81,2-1.65,3-2.52q2-1.71,3.65-3.28t3.28-3.12q1.59-1.56,3.34-3.18c1.16-1.09,2.45-2.24,3.85-3.45a38.75,38.75,0,0,1,11.28-7,26.16,26.16,0,0,1,11.19-1.81,25.38,25.38,0,0,1,10.71,3.29,37,37,0,0,1,9.81,8.23,35.81,35.81,0,0,1,6.55,10.64A22.82,22.82,0,0,1,71,162.46a29.42,29.42,0,0,1-4.4,11.72,53.63,53.63,0,0,1-10.79,12.11ZM57.5,180.17q7.75-6.71,7.36-14.74T55.58,147.1q-8.84-10.22-17.25-11.45T22,141.3l-2.63,2.27a20,20,0,0,0-1.89,1.81,2.91,2.91,0,0,0-.78,1.62,3.37,3.37,0,0,0,.44,1.83,13.6,13.6,0,0,0,1.74,2.42L45.2,181.76A15.09,15.09,0,0,0,48,184.4a3.69,3.69,0,0,0,2.34.71,4.69,4.69,0,0,0,2.34-1q1.2-.87,2.85-2.28Z"/>
          <path class="cls-3" d="M128.65,121.33a9,9,0,0,1,1.1,2.42,9.71,9.71,0,0,1,.43,3.2,10.05,10.05,0,0,1-.66,3.31,5.63,5.63,0,0,1-2.11,2.68c-2.9,2-5.4,3-7.48,2.95a10.93,10.93,0,0,1-6.48-2.78q-2.81-2.22-5.9-4.83a49.45,49.45,0,0,0-6.15-4.5,19.06,19.06,0,0,0-6-2.5,6.9,6.9,0,0,0-5.54,1.17l-2.14,1.49c-1.29.89-1.84,1.68-1.65,2.35l11.15,16q3.35,4.81,9.91.24l1.54,2.22-20.13,14L87,156.55q6.28-4.37,2.94-9.17l-24.3-34.95q-3.29-4.73-10.07,0L54,110.13l8.92-6.21c1.57-1.09,2.89-2,4-2.81S69,99.55,70,98.79s2.06-1.56,3.2-2.39,2.56-1.83,4.22-3a21.77,21.77,0,0,1,6.43-3.1,17.91,17.91,0,0,1,6.44-.7A15,15,0,0,1,96,91.3a12.52,12.52,0,0,1,4.48,4,13.19,13.19,0,0,1,2.26,5.23,12.89,12.89,0,0,1-.19,5.28,18.91,18.91,0,0,1-2.22,5.27,29.71,29.71,0,0,1-3.93,5.15l.15.22a22.31,22.31,0,0,1,8.63.31,17.68,17.68,0,0,1,6.45,2.8l3.47,2.85a40.11,40.11,0,0,0,4,3,15.83,15.83,0,0,0,3.93,1.93,3.64,3.64,0,0,0,3.33-.4q1.71-1.18.18-5.06Zm-39.74-2.51a35.55,35.55,0,0,0,3.93-3.17,10.52,10.52,0,0,0,2.64-3.81,9,9,0,0,0,.48-4.72,14.38,14.38,0,0,0-2.68-5.91,12.24,12.24,0,0,0-4.2-4A9.75,9.75,0,0,0,84.55,96a12.15,12.15,0,0,0-4.44.84,18.54,18.54,0,0,0-4,2.09l-3.43,2.38c-1.81,1.26-1.75,3.26.17,6l9.81,14.12a1.88,1.88,0,0,0,2.49-.09Z"/>
          <path class="cls-4" d="M135,127l-1.3-2.36q7-3.85,4.19-9l-19.64-35.8q-3.64-6.65-11.19-2.5l-1.29-2.37,40.08-22,8.7,14.42L152.38,69a22.36,22.36,0,0,0-5.69-5.49,10.81,10.81,0,0,0-5.24-1.7,11.7,11.7,0,0,0-5.2,1.11c-1.74.79-3.61,1.72-5.59,2.81l-2.13,1.17q-5.79,3.18-3.85,6.73l7.75,14.12c.87,1.58,1.91,2,3.13,1.37l2.59-1.43a32.76,32.76,0,0,0,3.43-2.14,7.62,7.62,0,0,0,2.34-2.61,6.82,6.82,0,0,0,.67-3.65A16.62,16.62,0,0,0,143.16,74L146,72.5l11.21,20.43-2.82,1.55a23.36,23.36,0,0,0-3.44-4.11,6.52,6.52,0,0,0-3.18-1.65,6.94,6.94,0,0,0-3.47.37,30,30,0,0,0-4.27,2l-.91.5q-3.51,1.92-2.08,4.53l8.27,15.07q2.46,4.5,8.56,1.15l2.36-1.3a36.61,36.61,0,0,0,7.33-5,12.84,12.84,0,0,0,3.46-5,13.58,13.58,0,0,0,.71-5.67c-.16-2-.47-4.37-.92-7l2.41-.5,6.51,16.75Z"/>
          <path class="cls-5" d="M210,90.08l-1-2.5,2.24-1.3a23.12,23.12,0,0,0,2.09-1.34,7.75,7.75,0,0,0,1.43-1.31,1.18,1.18,0,0,0,.33-1.16,5.25,5.25,0,0,1-.51-.91,5.47,5.47,0,0,0-1.08-1.36l-7.8-8.77q-1.77-1.8-5.79-.17l-12,4.89q-3.06,1.26-2.82,3.67l.78,9.74a6,6,0,0,0,.55,2.29q1.56,3.81,8.64.92l1.19,2.92-18.11,7.38-1.19-2.91a7,7,0,0,0,3.31-3.29,12.42,12.42,0,0,0,1-5.46l-.09-55.47H184l39.26,41.73a8.51,8.51,0,0,0,2.65,1.44,4.47,4.47,0,0,0,1.52-.08c.86-.12,2.06-.27,3.62-.45l1,2.5Zm-25.25-41.9.06,20.39a8.9,8.9,0,0,0,.27,3.19c.34.84,1.5.85,3.48,0l10.14-4.13c1.61-.66,2.28-1.32,2-2a15.06,15.06,0,0,0-2-2.39Z"/>
          <path class="cls-6" d="M276.45,69.72l-.64-2.63q7.43-1.8,5.88-8.19l-10.5-40.52L265.3,72.43l-2.36.58L231.78,28.82l9.05,38.64q1.78,7.73,10.32,5.64l.64,2.62-20.35,5-.64-2.62q7.68-1.87,6.06-10.39L228,28.44l-.21-.87a7.08,7.08,0,0,0-.64-1.7,2.66,2.66,0,0,0-1.44-1.14,7,7,0,0,0-2.8-.29,27.32,27.32,0,0,0-4.64.81l-.63-2.63,17.39-4.24,27.86,40.18,5.5-48.3,17.14-4.17.64,2.62a20,20,0,0,0-4.3,1.46,5.68,5.68,0,0,0-2.13,1.73,3.35,3.35,0,0,0-.59,1.95,9.36,9.36,0,0,0,.28,2.07l10.78,40.24q1.71,7,9.39,5.13l.64,2.63Z"/>
          <path class="cls-7" d="M375.57,60.68l.06-2.7q7.64.18,7.79-6.39l.33-41.86L364.1,60.43l-2.44-.06L343,9.63,341.74,49.3q-.27,7.92,8.51,8.12l-.06,2.7-20.94-.47.06-2.7q7.9.18,8.54-8.47L339.44,8.3l0-.9a6.92,6.92,0,0,0-.17-1.81,2.64,2.64,0,0,0-1.1-1.46,6.87,6.87,0,0,0-2.63-1,26.85,26.85,0,0,0-4.69-.42l.06-2.7,17.9.4,16.54,46L383.16,1.17l17.64.39-.06,2.7a19.62,19.62,0,0,0-4.53.31,5.54,5.54,0,0,0-2.5,1.11,3.33,3.33,0,0,0-1.09,1.74,9.76,9.76,0,0,0-.26,2.06l0,41.66q-.15,7.22,7.75,7.39l-.06,2.7Z"/>
          <path class="cls-8" d="M435.66,67.07l.45-2.67,2.59.08a21.94,21.94,0,0,0,2.47,0,7.92,7.92,0,0,0,1.91-.36c.53-.18.83-.45.89-.81a6.81,6.81,0,0,1,0-1,4.93,4.93,0,0,0-.19-1.72l-2-11.57c-.36-1.64-2-2.71-4.83-3.19l-12.77-2.17c-2.17-.37-3.61.18-4.33,1.63l-4.47,8.69a6.09,6.09,0,0,0-.73,2.24c-.46,2.71,1.82,4.48,6.85,5.34l-.53,3.1-19.28-3.26.53-3.11a7,7,0,0,0,4.54-1.05,12.5,12.5,0,0,0,3.74-4.11L439.68,5.86l2.39,1.5,11.38,56.15a8.6,8.6,0,0,0,1.49,2.62,4.32,4.32,0,0,0,1.34.73c.79.35,1.89.86,3.31,1.52L459.14,71Zm.62-48.92-10.7,17.36a9,9,0,0,0-1.46,2.86c-.15.88.84,1.51,2.95,1.86l10.8,1.83c1.71.29,2.63.08,2.75-.63a15.33,15.33,0,0,0-.45-3.08Z"/>
          <path class="cls-9" d="M509.89,68.75a22.49,22.49,0,0,1-5.12,7,20.35,20.35,0,0,1-6.64,4,22.37,22.37,0,0,1-7.65,1.33,27.42,27.42,0,0,1-8-1.18,26.42,26.42,0,0,1-10.05-5.39A25.55,25.55,0,0,1,466,66a28.31,28.31,0,0,1-2.5-10.76,36.1,36.1,0,0,1,1.57-12,36.81,36.81,0,0,1,5.76-11.71,32.17,32.17,0,0,1,8.51-8,26.4,26.4,0,0,1,10.12-3.84,24.06,24.06,0,0,1,10.71.75,21.64,21.64,0,0,1,10.89,7.57,11.34,11.34,0,0,1,7.08-1.83,7.39,7.39,0,0,1,.17,2.16A39.57,39.57,0,0,1,518,33c-.22,1.88-.57,4-1,6.36s-1.07,4.82-1.83,7.35l-2.83-.85q.56-8.85-2.95-14.45a17,17,0,0,0-9.83-7.49,15.07,15.07,0,0,0-8.43-.3,17.16,17.16,0,0,0-6.92,3.75,25.3,25.3,0,0,0-5.3,6.64,41,41,0,0,0-3.53,8.34A60.86,60.86,0,0,0,473,54a30.29,30.29,0,0,0,.59,10,17.84,17.84,0,0,0,4,7.78,16.8,16.8,0,0,0,7.92,4.75,22.93,22.93,0,0,0,5.91,1,13.52,13.52,0,0,0,5.37-1,18.23,18.23,0,0,0,5.28-3.41,45.16,45.16,0,0,0,5.61-6.17Z"/>
          <path class="cls-10" d="M543.45,102.05l1.11-2.46q7.85,3.55,10.41-2.09l7.79-17.12c-.58-1.25-2.4-2.58-5.46-4l-14.24-6.48a16.62,16.62,0,0,0-3.13-1.08,11.38,11.38,0,0,0-3.12-.28L529,85.69q-2.58,5.66,4.71,9l-1.12,2.45L509.43,86.57l1.12-2.46q8.07,3.67,10.64-2L537.8,45.6q3.29-7.22-4.78-10.89l1.12-2.45L557.32,42.8l-1.12,2.46q-7.28-3.32-10.57,3.92l-6.4,14.06a19,19,0,0,0,5.29,3.5l14.24,6.48q4.43,2,6.42,1.83L571.58,61q3.28-7.23-4.54-10.8l1.12-2.46L591,58.13l-1.12,2.46q-7.2-3.27-10.48,4L562.8,101.05q-2.56,5.67,4.63,8.94l-1.12,2.46Z"/>
          <path class="cls-11" d="M572.21,116.65l1.36-2.33q7.13,4.17,10.27-1.19l20.29-34.61q4-6.85-3.41-11.2L602.08,65l21.75,12.75-1.37,2.33q-6.9-4-10.91,2.8l-20.29,34.61q-3.13,5.35,4.06,9.58L594,129.39Z"/>
          <path class="cls-12" d="M639.51,162l-1.83-63.56-21.07,29.52q-6.23,8.72,1.06,13.92L616.11,144l-17-12.11,1.57-2.2q5.94,4.24,12.17-4.49L636,92.86c1.47-2-.14-4.75-4.8-8.08l1.56-2.2,12.94,9.23,1.58,56.31L666,121.84q5.76-8.07-1.45-13.23l1.56-2.19,17,12.12-1.57,2.19q-6.51-4.64-12.27,3.43l-27.54,38.59Z"/>
          <path class="cls-13" d="M651.5,170.11l1.78-2q6,5.28,9.88.88l27-30.67q5-5.69-1.46-11.37l1.78-2,34.33,30.19-10.59,13.1-2.26-1.51a22.78,22.78,0,0,0,3.23-7.23,10.73,10.73,0,0,0-.2-5.5,11.63,11.63,0,0,0-2.81-4.51c-1.33-1.37-2.85-2.81-4.55-4.3l-1.82-1.61q-5-4.36-7.64-1.32l-10.64,12.1q-1.79,2-.21,3.4l2.21,1.95a33,33,0,0,0,3.19,2.5,7.57,7.57,0,0,0,3.25,1.31,6.85,6.85,0,0,0,3.66-.62,16.35,16.35,0,0,0,4.43-3.12l2.41,2.13-15.39,17.5-2.42-2.12a23.63,23.63,0,0,0,2.7-4.65,6.55,6.55,0,0,0,.46-3.55,6.91,6.91,0,0,0-1.52-3.13,29.48,29.48,0,0,0-3.32-3.34l-.78-.69c-2-1.76-3.66-1.9-5-.41l-11.35,12.91q-3.39,3.86,1.83,8.44l2,1.78a37.12,37.12,0,0,0,7.18,5.19,13,13,0,0,0,5.87,1.56,13.48,13.48,0,0,0,5.57-1.28q2.79-1.26,6.26-3.23l1.29,2.09-13.53,11.83Z"/>
        </g>
      </g>
    </g>
  </g>
</svg>
