<svg xmlns="http://www.w3.org/2000/svg" xmlns:xlink="http://www.w3.org/1999/xlink" viewBox="0 0 215.52 142.28">
  <defs>
    <style>
      .cls-1 {
        fill: url(#linear-gradient);
      }

      .cls-2 {
        fill: #363556;
      }

      .cls-3 {
        fill: url(#linear-gradient-2);
      }

      .cls-4 {
        fill: url(#New_Gradient_Swatch_copy_3);
      }

      .cls-5 {
        fill: url(#New_Gradient_Swatch_copy_3-2);
      }

      .cls-6 {
        fill: url(#New_Gradient_Swatch_copy_3-3);
      }
    </style>
    <linearGradient id="linear-gradient" x1="107.76" y1="142.28" x2="107.76" gradientUnits="userSpaceOnUse">
      <stop offset="0" stop-color="#5e5b86"/>
      <stop offset="1" stop-color="#9287b4"/>
    </linearGradient>
    <linearGradient id="linear-gradient-2" x1="107.76" y1="15" x2="107.76" y2="127.28" gradientUnits="userSpaceOnUse">
      <stop offset="0" stop-color="#f7f6fb"/>
      <stop offset="0.26" stop-color="#b4b4b4"/>
      <stop offset="0.88" stop-color="#b4b4b4"/>
      <stop offset="1" stop-color="#c0c0c1"/>
    </linearGradient>
    <linearGradient id="New_Gradient_Swatch_copy_3" data-name="New Gradient Swatch copy 3" x1="81.15" y1="45.86" x2="81.15" y2="96.13" gradientUnits="userSpaceOnUse">
      <stop offset="0" stop-color="#444362"/>
      <stop offset="0.68" stop-color="#212121"/>
      <stop offset="1" stop-color="#444362"/>
    </linearGradient>
    <linearGradient id="New_Gradient_Swatch_copy_3-2" x1="108.56" y1="45.86" x2="108.56" y2="96.13" xlink:href="#New_Gradient_Swatch_copy_3"/>
    <linearGradient id="New_Gradient_Swatch_copy_3-3" x1="135.05" y1="45.3" x2="135.05" y2="96.69" xlink:href="#New_Gradient_Swatch_copy_3"/>
  </defs>
  <g id="Layer_2" data-name="Layer 2">
    <g id="buttons">
      <g id="vhs_left_rect" data-name="vhs left rect">
        <path class="cls-1" d="M200.52,15V127.28H55a40,40,0,0,1-40-40V55A40,40,0,0,1,55,15H200.52m0-15H55A55.06,55.06,0,0,0,0,55V87.28a55.06,55.06,0,0,0,55,55H200.52a15,15,0,0,0,15-15V15a15,15,0,0,0-15-15Z"/>
        <g>
          <g>
            <path class="cls-2" d="M206.52,121.28H61a40,40,0,0,1-40-40V49A40,40,0,0,1,61,9H206.52Z"/>
            <path class="cls-2" d="M206.52,126.28H61a40,40,0,0,1-40-40V54A40,40,0,0,1,61,14H206.52Z"/>
            <path class="cls-2" d="M201.52,121.28H56a40,40,0,0,1-40-40V49A40,40,0,0,1,56,9H201.52Z"/>
            <path class="cls-2" d="M201.52,126.28H56a40,40,0,0,1-40-40V54A40,40,0,0,1,56,14H201.52Z"/>
            <path class="cls-2" d="M206.52,119.28H61a40,40,0,0,1-40-40V47A40,40,0,0,1,61,7H206.52Z"/>
            <path class="cls-2" d="M206.52,124.28H61a40,40,0,0,1-40-40V52A40,40,0,0,1,61,12H206.52Z"/>
            <path class="cls-2" d="M201.52,119.28H56a40,40,0,0,1-40-40V47A40,40,0,0,1,56,7H201.52Z"/>
            <path class="cls-2" d="M201.52,124.28H56a40,40,0,0,1-40-40V52A40,40,0,0,1,56,12H201.52Z"/>
            <path class="cls-2" d="M203.52,121.28H58a40,40,0,0,1-40-40V49A40,40,0,0,1,58,9H203.52Z"/>
            <path class="cls-2" d="M203.52,126.28H58a40,40,0,0,1-40-40V54A40,40,0,0,1,58,14H203.52Z"/>
            <path class="cls-2" d="M198.52,121.28H53a40,40,0,0,1-40-40V49A40,40,0,0,1,53,9H198.52Z"/>
            <path class="cls-2" d="M198.52,126.28H53a40,40,0,0,1-40-40V54A40,40,0,0,1,53,14H198.52Z"/>
            <path class="cls-2" d="M203.52,119.28H58a40,40,0,0,1-40-40V47A40,40,0,0,1,58,7H203.52Z"/>
            <path class="cls-2" d="M203.52,124.28H58a40,40,0,0,1-40-40V52A40,40,0,0,1,58,12H203.52Z"/>
            <path class="cls-2" d="M198.52,119.28H53a40,40,0,0,1-40-40V47A40,40,0,0,1,53,7H198.52Z"/>
            <path class="cls-2" d="M198.52,124.28H53a40,40,0,0,1-40-40V52A40,40,0,0,1,53,12H198.52Z"/>
            <path class="cls-2" d="M206.52,124.28H61a40,40,0,0,1-40-40V52A40,40,0,0,1,61,12H206.52Z"/>
            <path class="cls-2" d="M206.52,129.28H61a40,40,0,0,1-40-40V57A40,40,0,0,1,61,17H206.52Z"/>
            <path class="cls-2" d="M201.52,124.28H56a40,40,0,0,1-40-40V52A40,40,0,0,1,56,12H201.52Z"/>
            <path class="cls-2" d="M201.52,129.28H56a40,40,0,0,1-40-40V57A40,40,0,0,1,56,17H201.52Z"/>
            <path class="cls-2" d="M206.52,122.28H61a40,40,0,0,1-40-40V50A40,40,0,0,1,61,10H206.52Z"/>
            <path class="cls-2" d="M206.52,127.28H61a40,40,0,0,1-40-40V55A40,40,0,0,1,61,15H206.52Z"/>
            <path class="cls-2" d="M201.52,122.28H56a40,40,0,0,1-40-40V50A40,40,0,0,1,56,10H201.52Z"/>
            <path class="cls-2" d="M201.52,127.28H56a40,40,0,0,1-40-40V55A40,40,0,0,1,56,15H201.52Z"/>
            <path class="cls-2" d="M203.52,124.28H58a40,40,0,0,1-40-40V52A40,40,0,0,1,58,12H203.52Z"/>
            <path class="cls-2" d="M203.52,129.28H58a40,40,0,0,1-40-40V57A40,40,0,0,1,58,17H203.52Z"/>
            <path class="cls-2" d="M198.52,124.28H53a40,40,0,0,1-40-40V52A40,40,0,0,1,53,12H198.52Z"/>
            <path class="cls-2" d="M198.52,129.28H53a40,40,0,0,1-40-40V57A40,40,0,0,1,53,17H198.52Z"/>
            <path class="cls-2" d="M203.52,122.28H58a40,40,0,0,1-40-40V50A40,40,0,0,1,58,10H203.52Z"/>
            <path class="cls-2" d="M203.52,127.28H58a40,40,0,0,1-40-40V55A40,40,0,0,1,58,15H203.52Z"/>
            <path class="cls-2" d="M198.52,122.28H53a40,40,0,0,1-40-40V50A40,40,0,0,1,53,10H198.52Z"/>
            <path class="cls-2" d="M198.52,127.28H53a40,40,0,0,1-40-40V55A40,40,0,0,1,53,15H198.52Z"/>
          </g>
          <g>
            <g>
              <path class="cls-2" d="M208.52,121.28H63a40,40,0,0,1-40-40V49A40,40,0,0,1,63,9H208.52Z"/>
              <path class="cls-2" d="M208.52,126.28H63a40,40,0,0,1-40-40V54A40,40,0,0,1,63,14H208.52Z"/>
              <path class="cls-2" d="M203.52,121.28H58a40,40,0,0,1-40-40V49A40,40,0,0,1,58,9H203.52Z"/>
              <path class="cls-2" d="M203.52,126.28H58a40,40,0,0,1-40-40V54A40,40,0,0,1,58,14H203.52Z"/>
              <path class="cls-2" d="M208.52,119.28H63a40,40,0,0,1-40-40V47A40,40,0,0,1,63,7H208.52Z"/>
              <path class="cls-2" d="M208.52,124.28H63a40,40,0,0,1-40-40V52A40,40,0,0,1,63,12H208.52Z"/>
              <path class="cls-2" d="M203.52,119.28H58a40,40,0,0,1-40-40V47A40,40,0,0,1,58,7H203.52Z"/>
              <path class="cls-2" d="M203.52,124.28H58a40,40,0,0,1-40-40V52A40,40,0,0,1,58,12H203.52Z"/>
              <path class="cls-2" d="M205.52,121.28H60a40,40,0,0,1-40-40V49A40,40,0,0,1,60,9H205.52Z"/>
              <path class="cls-2" d="M205.52,126.28H60a40,40,0,0,1-40-40V54A40,40,0,0,1,60,14H205.52Z"/>
              <path class="cls-2" d="M200.52,121.28H55a40,40,0,0,1-40-40V49A40,40,0,0,1,55,9H200.52Z"/>
              <path class="cls-2" d="M200.52,126.28H55a40,40,0,0,1-40-40V54A40,40,0,0,1,55,14H200.52Z"/>
              <path class="cls-2" d="M205.52,119.28H60a40,40,0,0,1-40-40V47A40,40,0,0,1,60,7H205.52Z"/>
              <path class="cls-2" d="M205.52,124.28H60a40,40,0,0,1-40-40V52A40,40,0,0,1,60,12H205.52Z"/>
              <path class="cls-2" d="M200.52,119.28H55a40,40,0,0,1-40-40V47A40,40,0,0,1,55,7H200.52Z"/>
              <path class="cls-2" d="M200.52,124.28H55a40,40,0,0,1-40-40V52A40,40,0,0,1,55,12H200.52Z"/>
            </g>
            <g>
              <g>
                <path class="cls-2" d="M208.52,124.28H63a40,40,0,0,1-40-40V52A40,40,0,0,1,63,12H208.52Z"/>
                <path class="cls-2" d="M208.52,129.28H63a40,40,0,0,1-40-40V57A40,40,0,0,1,63,17H208.52Z"/>
                <path class="cls-2" d="M203.52,124.28H58a40,40,0,0,1-40-40V52A40,40,0,0,1,58,12H203.52Z"/>
                <path class="cls-2" d="M203.52,129.28H58a40,40,0,0,1-40-40V57A40,40,0,0,1,58,17H203.52Z"/>
                <path class="cls-2" d="M208.52,122.28H63a40,40,0,0,1-40-40V50A40,40,0,0,1,63,10H208.52Z"/>
                <path class="cls-2" d="M208.52,127.28H63a40,40,0,0,1-40-40V55A40,40,0,0,1,63,15H208.52Z"/>
                <path class="cls-2" d="M203.52,122.28H58a40,40,0,0,1-40-40V50A40,40,0,0,1,58,10H203.52Z"/>
                <path class="cls-2" d="M203.52,127.28H58a40,40,0,0,1-40-40V55A40,40,0,0,1,58,15H203.52Z"/>
              </g>
              <g>
                <g>
                  <path class="cls-2" d="M205.52,124.28H60a40,40,0,0,1-40-40V52A40,40,0,0,1,60,12H205.52Z"/>
                  <path class="cls-2" d="M205.52,129.28H60a40,40,0,0,1-40-40V57A40,40,0,0,1,60,17H205.52Z"/>
                  <path class="cls-2" d="M200.52,124.28H55a40,40,0,0,1-40-40V52A40,40,0,0,1,55,12H200.52Z"/>
                  <path class="cls-2" d="M200.52,129.28H55a40,40,0,0,1-40-40V57A40,40,0,0,1,55,17H200.52Z"/>
                </g>
                <g>
                  <g>
                    <path d="M205.52,122.28H60a40,40,0,0,1-40-40V50A40,40,0,0,1,60,10H205.52Z"/>
                    <path d="M205.52,127.28H60a40,40,0,0,1-40-40V55A40,40,0,0,1,60,15H205.52Z"/>
                  </g>
                  <g>
                    <path d="M200.52,122.28H55a40,40,0,0,1-40-40V50A40,40,0,0,1,55,10H200.52Z"/>
                    <path class="cls-3" d="M200.52,127.28H55a40,40,0,0,1-40-40V55A40,40,0,0,1,55,15H200.52Z"/>
                  </g>
                </g>
              </g>
            </g>
          </g>
        </g>
      </g>
      <g>
        <path class="cls-4" d="M78.32,96.13,68.59,45.86h5.88l6.65,38.72h.14l6.51-38.72h6L84.06,96.13Z"/>
        <path class="cls-5" d="M113.6,96.13V72.4h-10V96.13H97.92V45.86h5.67V67.22h10V45.86h5.6V96.13Z"/>
        <path class="cls-6" d="M140.06,59.31c-.28-5.81-1.82-9-5.25-9-3.15,0-4.55,2.1-4.55,5.74,0,11.69,15.54,13.44,15.54,28.35C145.8,92,142,96.69,135,96.69S124.8,92.21,124.31,83l5.32-.21c.49,6.37,1.89,8.89,5.46,8.89,3.29,0,5.18-2.52,5.18-6.58,0-12.11-15.47-13.93-15.47-28.42,0-7,3.57-11.35,9.87-11.35,7.28,0,10.15,5.12,10.5,13.8Z"/>
      </g>
    </g>
  </g>
</svg>
