<svg xmlns="http://www.w3.org/2000/svg" xmlns:xlink="http://www.w3.org/1999/xlink" viewBox="0 0 215.52 142.28">
  <defs>
    <style>
      .cls-1 {
        fill: url(#linear-gradient);
      }

      .cls-2 {
        fill: #363556;
      }

      .cls-3 {
        fill: url(#linear-gradient-2);
      }

      .cls-4 {
        fill: url(#New_Gradient_Swatch_copy_3);
      }

      .cls-5 {
        fill: url(#New_Gradient_Swatch_copy_3-2);
      }

      .cls-6 {
        fill: url(#New_Gradient_Swatch_copy_3-3);
      }

      .cls-7 {
        fill: url(#New_Gradient_Swatch_copy_3-4);
      }
    </style>
    <linearGradient id="linear-gradient" x1="107.76" y1="142.28" x2="107.76" gradientUnits="userSpaceOnUse">
      <stop offset="0" stop-color="#5e5b86"/>
      <stop offset="1" stop-color="#9287b4"/>
    </linearGradient>
    <linearGradient id="linear-gradient-2" x1="107.76" y1="15" x2="107.76" y2="127.28" gradientUnits="userSpaceOnUse">
      <stop offset="0" stop-color="#f7f6fb"/>
      <stop offset="0.26" stop-color="#b4b4b4"/>
      <stop offset="0.88" stop-color="#b4b4b4"/>
      <stop offset="1" stop-color="#c0c0c1"/>
    </linearGradient>
    <linearGradient id="New_Gradient_Swatch_copy_3" data-name="New Gradient Swatch copy 3" x1="62.87" y1="45.29" x2="62.87" y2="96.99" gradientUnits="userSpaceOnUse">
      <stop offset="0" stop-color="#444362"/>
      <stop offset="0.68" stop-color="#212121"/>
      <stop offset="1" stop-color="#444362"/>
    </linearGradient>
    <linearGradient id="New_Gradient_Swatch_copy_3-2" x1="91.17" y1="44.71" x2="91.17" y2="97.56" xlink:href="#New_Gradient_Swatch_copy_3"/>
    <linearGradient id="New_Gradient_Swatch_copy_3-3" x1="117.52" y1="45.29" x2="117.52" y2="96.99" xlink:href="#New_Gradient_Swatch_copy_3"/>
    <linearGradient id="New_Gradient_Swatch_copy_3-4" x1="155.43" y1="45.29" x2="155.43" y2="96.99" xlink:href="#New_Gradient_Swatch_copy_3"/>
  </defs>
  <g id="Layer_2" data-name="Layer 2">
    <g id="Layer_6" data-name="Layer 6">
      <g>
        <g id="vhs_left_rect" data-name="vhs left rect">
          <path class="cls-1" d="M200.52,15V127.28H55a40,40,0,0,1-40-40V55A40,40,0,0,1,55,15H200.52m0-15H55A55.06,55.06,0,0,0,0,55V87.28a55.06,55.06,0,0,0,55,55H200.52a15,15,0,0,0,15-15V15a15,15,0,0,0-15-15Z"/>
          <g>
            <g>
              <path class="cls-2" d="M206.52,121.28H61a40,40,0,0,1-40-40V49A40,40,0,0,1,61,9H206.52Z"/>
              <path class="cls-2" d="M206.52,126.28H61a40,40,0,0,1-40-40V54A40,40,0,0,1,61,14H206.52Z"/>
              <path class="cls-2" d="M201.52,121.28H56a40,40,0,0,1-40-40V49A40,40,0,0,1,56,9H201.52Z"/>
              <path class="cls-2" d="M201.52,126.28H56a40,40,0,0,1-40-40V54A40,40,0,0,1,56,14H201.52Z"/>
              <path class="cls-2" d="M206.52,119.28H61a40,40,0,0,1-40-40V47A40,40,0,0,1,61,7H206.52Z"/>
              <path class="cls-2" d="M206.52,124.28H61a40,40,0,0,1-40-40V52A40,40,0,0,1,61,12H206.52Z"/>
              <path class="cls-2" d="M201.52,119.28H56a40,40,0,0,1-40-40V47A40,40,0,0,1,56,7H201.52Z"/>
              <path class="cls-2" d="M201.52,124.28H56a40,40,0,0,1-40-40V52A40,40,0,0,1,56,12H201.52Z"/>
              <path class="cls-2" d="M203.52,121.28H58a40,40,0,0,1-40-40V49A40,40,0,0,1,58,9H203.52Z"/>
              <path class="cls-2" d="M203.52,126.28H58a40,40,0,0,1-40-40V54A40,40,0,0,1,58,14H203.52Z"/>
              <path class="cls-2" d="M198.52,121.28H53a40,40,0,0,1-40-40V49A40,40,0,0,1,53,9H198.52Z"/>
              <path class="cls-2" d="M198.52,126.28H53a40,40,0,0,1-40-40V54A40,40,0,0,1,53,14H198.52Z"/>
              <path class="cls-2" d="M203.52,119.28H58a40,40,0,0,1-40-40V47A40,40,0,0,1,58,7H203.52Z"/>
              <path class="cls-2" d="M203.52,124.28H58a40,40,0,0,1-40-40V52A40,40,0,0,1,58,12H203.52Z"/>
              <path class="cls-2" d="M198.52,119.28H53a40,40,0,0,1-40-40V47A40,40,0,0,1,53,7H198.52Z"/>
              <path class="cls-2" d="M198.52,124.28H53a40,40,0,0,1-40-40V52A40,40,0,0,1,53,12H198.52Z"/>
              <path class="cls-2" d="M206.52,124.28H61a40,40,0,0,1-40-40V52A40,40,0,0,1,61,12H206.52Z"/>
              <path class="cls-2" d="M206.52,129.28H61a40,40,0,0,1-40-40V57A40,40,0,0,1,61,17H206.52Z"/>
              <path class="cls-2" d="M201.52,124.28H56a40,40,0,0,1-40-40V52A40,40,0,0,1,56,12H201.52Z"/>
              <path class="cls-2" d="M201.52,129.28H56a40,40,0,0,1-40-40V57A40,40,0,0,1,56,17H201.52Z"/>
              <path class="cls-2" d="M206.52,122.28H61a40,40,0,0,1-40-40V50A40,40,0,0,1,61,10H206.52Z"/>
              <path class="cls-2" d="M206.52,127.28H61a40,40,0,0,1-40-40V55A40,40,0,0,1,61,15H206.52Z"/>
              <path class="cls-2" d="M201.52,122.28H56a40,40,0,0,1-40-40V50A40,40,0,0,1,56,10H201.52Z"/>
              <path class="cls-2" d="M201.52,127.28H56a40,40,0,0,1-40-40V55A40,40,0,0,1,56,15H201.52Z"/>
              <path class="cls-2" d="M203.52,124.28H58a40,40,0,0,1-40-40V52A40,40,0,0,1,58,12H203.52Z"/>
              <path class="cls-2" d="M203.52,129.28H58a40,40,0,0,1-40-40V57A40,40,0,0,1,58,17H203.52Z"/>
              <path class="cls-2" d="M198.52,124.28H53a40,40,0,0,1-40-40V52A40,40,0,0,1,53,12H198.52Z"/>
              <path class="cls-2" d="M198.52,129.28H53a40,40,0,0,1-40-40V57A40,40,0,0,1,53,17H198.52Z"/>
              <path class="cls-2" d="M203.52,122.28H58a40,40,0,0,1-40-40V50A40,40,0,0,1,58,10H203.52Z"/>
              <path class="cls-2" d="M203.52,127.28H58a40,40,0,0,1-40-40V55A40,40,0,0,1,58,15H203.52Z"/>
              <path class="cls-2" d="M198.52,122.28H53a40,40,0,0,1-40-40V50A40,40,0,0,1,53,10H198.52Z"/>
              <path class="cls-2" d="M198.52,127.28H53a40,40,0,0,1-40-40V55A40,40,0,0,1,53,15H198.52Z"/>
            </g>
            <g>
              <g>
                <path class="cls-2" d="M208.52,121.28H63a40,40,0,0,1-40-40V49A40,40,0,0,1,63,9H208.52Z"/>
                <path class="cls-2" d="M208.52,126.28H63a40,40,0,0,1-40-40V54A40,40,0,0,1,63,14H208.52Z"/>
                <path class="cls-2" d="M203.52,121.28H58a40,40,0,0,1-40-40V49A40,40,0,0,1,58,9H203.52Z"/>
                <path class="cls-2" d="M203.52,126.28H58a40,40,0,0,1-40-40V54A40,40,0,0,1,58,14H203.52Z"/>
                <path class="cls-2" d="M208.52,119.28H63a40,40,0,0,1-40-40V47A40,40,0,0,1,63,7H208.52Z"/>
                <path class="cls-2" d="M208.52,124.28H63a40,40,0,0,1-40-40V52A40,40,0,0,1,63,12H208.52Z"/>
                <path class="cls-2" d="M203.52,119.28H58a40,40,0,0,1-40-40V47A40,40,0,0,1,58,7H203.52Z"/>
                <path class="cls-2" d="M203.52,124.28H58a40,40,0,0,1-40-40V52A40,40,0,0,1,58,12H203.52Z"/>
                <path class="cls-2" d="M205.52,121.28H60a40,40,0,0,1-40-40V49A40,40,0,0,1,60,9H205.52Z"/>
                <path class="cls-2" d="M205.52,126.28H60a40,40,0,0,1-40-40V54A40,40,0,0,1,60,14H205.52Z"/>
                <path class="cls-2" d="M200.52,121.28H55a40,40,0,0,1-40-40V49A40,40,0,0,1,55,9H200.52Z"/>
                <path class="cls-2" d="M200.52,126.28H55a40,40,0,0,1-40-40V54A40,40,0,0,1,55,14H200.52Z"/>
                <path class="cls-2" d="M205.52,119.28H60a40,40,0,0,1-40-40V47A40,40,0,0,1,60,7H205.52Z"/>
                <path class="cls-2" d="M205.52,124.28H60a40,40,0,0,1-40-40V52A40,40,0,0,1,60,12H205.52Z"/>
                <path class="cls-2" d="M200.52,119.28H55a40,40,0,0,1-40-40V47A40,40,0,0,1,55,7H200.52Z"/>
                <path class="cls-2" d="M200.52,124.28H55a40,40,0,0,1-40-40V52A40,40,0,0,1,55,12H200.52Z"/>
              </g>
              <g>
                <g>
                  <path class="cls-2" d="M208.52,124.28H63a40,40,0,0,1-40-40V52A40,40,0,0,1,63,12H208.52Z"/>
                  <path class="cls-2" d="M208.52,129.28H63a40,40,0,0,1-40-40V57A40,40,0,0,1,63,17H208.52Z"/>
                  <path class="cls-2" d="M203.52,124.28H58a40,40,0,0,1-40-40V52A40,40,0,0,1,58,12H203.52Z"/>
                  <path class="cls-2" d="M203.52,129.28H58a40,40,0,0,1-40-40V57A40,40,0,0,1,58,17H203.52Z"/>
                  <path class="cls-2" d="M208.52,122.28H63a40,40,0,0,1-40-40V50A40,40,0,0,1,63,10H208.52Z"/>
                  <path class="cls-2" d="M208.52,127.28H63a40,40,0,0,1-40-40V55A40,40,0,0,1,63,15H208.52Z"/>
                  <path class="cls-2" d="M203.52,122.28H58a40,40,0,0,1-40-40V50A40,40,0,0,1,58,10H203.52Z"/>
                  <path class="cls-2" d="M203.52,127.28H58a40,40,0,0,1-40-40V55A40,40,0,0,1,58,15H203.52Z"/>
                </g>
                <g>
                  <g>
                    <path class="cls-2" d="M205.52,124.28H60a40,40,0,0,1-40-40V52A40,40,0,0,1,60,12H205.52Z"/>
                    <path class="cls-2" d="M205.52,129.28H60a40,40,0,0,1-40-40V57A40,40,0,0,1,60,17H205.52Z"/>
                    <path class="cls-2" d="M200.52,124.28H55a40,40,0,0,1-40-40V52A40,40,0,0,1,55,12H200.52Z"/>
                    <path class="cls-2" d="M200.52,129.28H55a40,40,0,0,1-40-40V57A40,40,0,0,1,55,17H200.52Z"/>
                  </g>
                  <g>
                    <g>
                      <path d="M205.52,122.28H60a40,40,0,0,1-40-40V50A40,40,0,0,1,60,10H205.52Z"/>
                      <path d="M205.52,127.28H60a40,40,0,0,1-40-40V55A40,40,0,0,1,60,15H205.52Z"/>
                    </g>
                    <g>
                      <path d="M200.52,122.28H55a40,40,0,0,1-40-40V50A40,40,0,0,1,55,10H200.52Z"/>
                      <path class="cls-3" d="M200.52,127.28H55a40,40,0,0,1-40-40V55A40,40,0,0,1,55,15H200.52Z"/>
                    </g>
                  </g>
                </g>
              </g>
            </g>
          </g>
        </g>
        <g>
          <path class="cls-4" d="M51.17,97V45.29h9c8.93,0,13.68,3.38,13.68,13.1,0,5.69-2.45,9.29-6.26,11.16v.15c5,1.87,7,6.62,7,12.67C74.57,93.1,69.6,97,60,97Zm8.57-29.52c5.61,0,8.21-3,8.21-8.86,0-6.19-2.88-8-7.13-8H56.93V67.47Zm.86,24.19c5.4,0,7.92-2.3,7.92-9.5,0-7-2.3-9.65-8.57-9.65h-3V91.66Z"/>
          <path class="cls-5" d="M79,71c0-18.72,3.53-26.28,12.24-26.28S103.37,52.27,103.37,71c0,18.08-3.45,26.57-12.17,26.57S79,89.07,79,71Zm18.36,0C97.32,55.87,95.59,50,91.2,50S85.08,55.87,85.08,71s2,21.32,6.12,21.32S97.32,86,97.32,71Z"/>
          <path class="cls-6" d="M124.18,97,117.55,77.4h-.14L110.64,97h-6l9.5-26.72-8.78-25h6.12l5.9,17.64h.14l6.2-17.64h6L120.8,70.13,130.37,97Z"/>
          <path class="cls-7" d="M147.15,97v-4.9h5.9V51.55l-6.55,1.23v-4.4l7.63-3.09h4.46v46.8h5.76V97Z"/>
        </g>
      </g>
    </g>
  </g>
</svg>
