<svg xmlns="http://www.w3.org/2000/svg" xmlns:xlink="http://www.w3.org/1999/xlink" viewBox="0 0 245.52 142.28">
  <defs>
    <style>
      .cls-1 {
        fill: url(#linear-gradient);
      }

      .cls-2 {
        fill: #666;
      }

      .cls-3 {
        fill: #4d4d4d;
      }

      .cls-4 {
        fill: url(#linear-gradient-2);
      }

      .cls-5 {
        fill: url(#New_Gradient_Swatch_copy_3);
      }

      .cls-6 {
        fill: url(#New_Gradient_Swatch_copy_3-2);
      }

      .cls-7 {
        fill: url(#New_Gradient_Swatch_copy_3-3);
      }

      .cls-8 {
        fill: url(#New_Gradient_Swatch_copy_3-4);
      }
    </style>
    <linearGradient id="linear-gradient" x1="122.76" y1="142.28" x2="122.76" gradientUnits="userSpaceOnUse">
      <stop offset="0" stop-color="#5e5b86"/>
      <stop offset="1" stop-color="#9287b4"/>
    </linearGradient>
    <linearGradient id="linear-gradient-2" x1="122.76" y1="15" x2="122.76" y2="127.28" gradientUnits="userSpaceOnUse">
      <stop offset="0" stop-color="#c0c0c1"/>
      <stop offset="0.17" stop-color="#b4b4b4"/>
      <stop offset="0.88" stop-color="#a4a5a5"/>
    </linearGradient>
    <linearGradient id="New_Gradient_Swatch_copy_3" data-name="New Gradient Swatch copy 3" x1="77.11" y1="45.29" x2="77.11" y2="96.99" gradientUnits="userSpaceOnUse">
      <stop offset="0" stop-color="#444362"/>
      <stop offset="0.68" stop-color="#212121"/>
      <stop offset="1" stop-color="#444362"/>
    </linearGradient>
    <linearGradient id="New_Gradient_Swatch_copy_3-2" x1="105.41" y1="44.71" x2="105.41" y2="97.56" xlink:href="#New_Gradient_Swatch_copy_3"/>
    <linearGradient id="New_Gradient_Swatch_copy_3-3" x1="131.76" y1="45.29" x2="131.76" y2="96.99" xlink:href="#New_Gradient_Swatch_copy_3"/>
    <linearGradient id="New_Gradient_Swatch_copy_3-4" x1="169.09" y1="44.71" x2="169.09" y2="96.99" xlink:href="#New_Gradient_Swatch_copy_3"/>
  </defs>
  <g id="Layer_2" data-name="Layer 2">
    <g id="Layer_6" data-name="Layer 6">
      <g>
        <g id="cds_rect" data-name="cds rect">
          <path class="cls-1" d="M230.52,15V127.28H15V15H230.52m0-15H15A15,15,0,0,0,0,15V127.28a15,15,0,0,0,15,15H230.52a15,15,0,0,0,15-15V15a15,15,0,0,0-15-15Z"/>
          <g>
            <g>
              <rect class="cls-2" x="15" y="15" width="215.52" height="112.28"/>
              <rect class="cls-2" x="15" y="16" width="215.52" height="112.28"/>
              <rect class="cls-2" x="14" y="15" width="215.52" height="112.28"/>
              <rect class="cls-2" x="14" y="16" width="215.52" height="112.28"/>
              <rect class="cls-2" x="15" y="14" width="215.52" height="112.28"/>
              <rect class="cls-2" x="15" y="15" width="215.52" height="112.28"/>
              <rect class="cls-2" x="14" y="14" width="215.52" height="112.28"/>
              <rect class="cls-2" x="14" y="15" width="215.52" height="112.28"/>
            </g>
            <g>
              <g>
                <rect class="cls-3" x="16" y="15" width="215.52" height="112.28"/>
                <rect class="cls-3" x="16" y="16" width="215.52" height="112.28"/>
                <rect class="cls-3" x="15" y="15" width="215.52" height="112.28"/>
                <rect class="cls-3" x="15" y="16" width="215.52" height="112.28"/>
              </g>
              <g>
                <g>
                  <rect class="cls-2" x="16" y="14" width="215.52" height="112.28"/>
                  <rect class="cls-2" x="16" y="15" width="215.52" height="112.28"/>
                </g>
                <g>
                  <rect class="cls-2" x="15" y="14" width="215.52" height="112.28"/>
                  <rect class="cls-4" x="15" y="15" width="215.52" height="112.28"/>
                </g>
              </g>
            </g>
          </g>
        </g>
        <g>
          <path class="cls-5" d="M65.41,97V45.29h9c8.93,0,13.69,3.38,13.69,13.1,0,5.69-2.45,9.29-6.27,11.16v.15c5,1.87,7,6.62,7,12.67C88.82,93.1,83.85,97,74.2,97ZM74,67.47c5.62,0,8.21-3,8.21-8.86,0-6.19-2.88-8-7.13-8H71.17V67.47Zm.87,24.19c5.4,0,7.92-2.3,7.92-9.5,0-7-2.31-9.65-8.57-9.65h-3V91.66Z"/>
          <path class="cls-6" d="M93.21,71c0-18.72,3.52-26.28,12.24-26.28S117.61,52.27,117.61,71c0,18.08-3.45,26.57-12.16,26.57S93.21,89.07,93.21,71Zm18.36,0c0-15.12-1.73-20.95-6.12-20.95S99.33,55.87,99.33,71s1.94,21.32,6.12,21.32S111.57,86,111.57,71Z"/>
          <path class="cls-7" d="M138.42,97,131.8,77.4h-.14L124.89,97h-6l9.5-26.72-8.78-25h6.12l5.91,17.64h.14L138,45.29h6L135,70.13,144.62,97Z"/>
          <path class="cls-8" d="M158.08,97V94.4c0-4.54,2.08-9,4.68-13.4,4.82-7.77,11.66-15.19,11.66-22.68,0-4.54-1.08-8.5-5.18-8.5-3.6,0-5.33,3.1-5.62,9.73h-5.26c.29-10,3.82-14.84,10.95-14.84,8,0,10.8,5.76,10.8,13.32,0,8.72-8,17.79-12.74,25.57-1.88,3-3.24,5.76-3.39,8.2h16.13V97Z"/>
        </g>
      </g>
    </g>
  </g>
</svg>
