<svg xmlns="http://www.w3.org/2000/svg" xmlns:xlink="http://www.w3.org/1999/xlink" viewBox="0 0 245.52 142.28">
  <defs>
    <style>
      .cls-1 {
        fill: url(#linear-gradient);
      }

      .cls-2 {
        fill: #363556;
      }

      .cls-3 {
        fill: url(#linear-gradient-2);
      }

      .cls-4 {
        fill: url(#New_Gradient_Swatch_copy_3);
      }

      .cls-5 {
        fill: url(#New_Gradient_Swatch_copy_3-2);
      }

      .cls-6 {
        fill: url(#New_Gradient_Swatch_copy_3-3);
      }

      .cls-7 {
        fill: url(#New_Gradient_Swatch_copy_3-4);
      }
    </style>
    <linearGradient id="linear-gradient" x1="122.76" y1="142.28" x2="122.76" gradientUnits="userSpaceOnUse">
      <stop offset="0" stop-color="#5e5b86"/>
      <stop offset="1" stop-color="#9287b4"/>
    </linearGradient>
    <linearGradient id="linear-gradient-2" x1="122.76" y1="15" x2="122.76" y2="127.28" gradientUnits="userSpaceOnUse">
      <stop offset="0" stop-color="#f7f6fb"/>
      <stop offset="0.26" stop-color="#b4b4b4"/>
      <stop offset="0.88" stop-color="#b4b4b4"/>
      <stop offset="1" stop-color="#c0c0c1"/>
    </linearGradient>
    <linearGradient id="New_Gradient_Swatch_copy_3" data-name="New Gradient Swatch copy 3" x1="77.01" y1="45.29" x2="77.01" y2="96.99" gradientUnits="userSpaceOnUse">
      <stop offset="0" stop-color="#444362"/>
      <stop offset="0.68" stop-color="#212121"/>
      <stop offset="1" stop-color="#444362"/>
    </linearGradient>
    <linearGradient id="New_Gradient_Swatch_copy_3-2" x1="105.3" y1="44.71" x2="105.3" y2="97.56" xlink:href="#New_Gradient_Swatch_copy_3"/>
    <linearGradient id="New_Gradient_Swatch_copy_3-3" x1="131.66" y1="45.29" x2="131.66" y2="96.99" xlink:href="#New_Gradient_Swatch_copy_3"/>
    <linearGradient id="New_Gradient_Swatch_copy_3-4" x1="168.73" y1="44.71" x2="168.73" y2="97.56" xlink:href="#New_Gradient_Swatch_copy_3"/>
  </defs>
  <g id="Layer_2" data-name="Layer 2">
    <g id="Layer_6" data-name="Layer 6">
      <g>
        <g id="art_rect" data-name="art rect">
          <path class="cls-1" d="M230.52,15V127.28H15V15H230.52m0-15H15A15,15,0,0,0,0,15V127.28a15,15,0,0,0,15,15H230.52a15,15,0,0,0,15-15V15a15,15,0,0,0-15-15Z"/>
          <g>
            <g>
              <rect class="cls-2" x="9" y="9" width="215.52" height="112.28"/>
              <rect class="cls-2" x="9" y="14" width="215.52" height="112.28"/>
              <rect class="cls-2" x="14" y="9" width="215.52" height="112.28"/>
              <rect class="cls-2" x="14" y="14" width="215.52" height="112.28"/>
              <rect class="cls-2" x="9" y="7" width="215.52" height="112.28"/>
              <rect class="cls-2" x="9" y="12" width="215.52" height="112.28"/>
              <rect class="cls-2" x="14" y="7" width="215.52" height="112.28"/>
              <rect class="cls-2" x="14" y="12" width="215.52" height="112.28"/>
              <rect class="cls-2" x="12" y="9" width="215.52" height="112.28"/>
              <rect class="cls-2" x="12" y="14" width="215.52" height="112.28"/>
              <rect class="cls-2" x="17" y="9" width="215.52" height="112.28"/>
              <rect class="cls-2" x="17" y="14" width="215.52" height="112.28"/>
              <rect class="cls-2" x="12" y="7" width="215.52" height="112.28"/>
              <rect class="cls-2" x="12" y="12" width="215.52" height="112.28"/>
              <rect class="cls-2" x="17" y="7" width="215.52" height="112.28"/>
              <rect class="cls-2" x="17" y="12" width="215.52" height="112.28"/>
              <rect class="cls-2" x="9" y="12" width="215.52" height="112.28"/>
              <rect class="cls-2" x="9" y="17" width="215.52" height="112.28"/>
              <rect class="cls-2" x="14" y="12" width="215.52" height="112.28"/>
              <rect class="cls-2" x="14" y="17" width="215.52" height="112.28"/>
              <rect class="cls-2" x="9" y="10" width="215.52" height="112.28"/>
              <rect class="cls-2" x="9" y="15" width="215.52" height="112.28"/>
              <rect class="cls-2" x="14" y="10" width="215.52" height="112.28"/>
              <rect class="cls-2" x="14" y="15" width="215.52" height="112.28"/>
              <rect class="cls-2" x="12" y="12" width="215.52" height="112.28"/>
              <rect class="cls-2" x="12" y="17" width="215.52" height="112.28"/>
              <rect class="cls-2" x="17" y="12" width="215.52" height="112.28"/>
              <rect class="cls-2" x="17" y="17" width="215.52" height="112.28"/>
              <rect class="cls-2" x="12" y="10" width="215.52" height="112.28"/>
              <rect class="cls-2" x="12" y="15" width="215.52" height="112.28"/>
              <rect class="cls-2" x="17" y="10" width="215.52" height="112.28"/>
              <rect class="cls-2" x="17" y="15" width="215.52" height="112.28"/>
            </g>
            <g>
              <g>
                <rect class="cls-2" x="7" y="9" width="215.52" height="112.28"/>
                <rect class="cls-2" x="7" y="14" width="215.52" height="112.28"/>
                <rect class="cls-2" x="12" y="9" width="215.52" height="112.28"/>
                <rect class="cls-2" x="12" y="14" width="215.52" height="112.28"/>
                <rect class="cls-2" x="7" y="7" width="215.52" height="112.28"/>
                <rect class="cls-2" x="7" y="12" width="215.52" height="112.28"/>
                <rect class="cls-2" x="12" y="7" width="215.52" height="112.28"/>
                <rect class="cls-2" x="12" y="12" width="215.52" height="112.28"/>
                <rect class="cls-2" x="10" y="9" width="215.52" height="112.28"/>
                <rect class="cls-2" x="10" y="14" width="215.52" height="112.28"/>
                <rect class="cls-2" x="15" y="9" width="215.52" height="112.28"/>
                <rect class="cls-2" x="15" y="14" width="215.52" height="112.28"/>
                <rect class="cls-2" x="10" y="7" width="215.52" height="112.28"/>
                <rect class="cls-2" x="10" y="12" width="215.52" height="112.28"/>
                <rect class="cls-2" x="15" y="7" width="215.52" height="112.28"/>
                <rect class="cls-2" x="15" y="12" width="215.52" height="112.28"/>
              </g>
              <g>
                <g>
                  <rect class="cls-2" x="7" y="12" width="215.52" height="112.28"/>
                  <rect class="cls-2" x="7" y="17" width="215.52" height="112.28"/>
                  <rect class="cls-2" x="12" y="12" width="215.52" height="112.28"/>
                  <rect class="cls-2" x="12" y="17" width="215.52" height="112.28"/>
                  <rect class="cls-2" x="7" y="10" width="215.52" height="112.28"/>
                  <rect class="cls-2" x="7" y="15" width="215.52" height="112.28"/>
                  <rect class="cls-2" x="12" y="10" width="215.52" height="112.28"/>
                  <rect class="cls-2" x="12" y="15" width="215.52" height="112.28"/>
                </g>
                <g>
                  <g>
                    <rect class="cls-2" x="10" y="12" width="215.52" height="112.28"/>
                    <rect class="cls-2" x="10" y="17" width="215.52" height="112.28"/>
                    <rect class="cls-2" x="15" y="12" width="215.52" height="112.28"/>
                    <rect class="cls-2" x="15" y="17" width="215.52" height="112.28"/>
                  </g>
                  <g>
                    <g>
                      <rect x="10" y="10" width="215.52" height="112.28"/>
                      <rect x="10" y="15" width="215.52" height="112.28"/>
                    </g>
                    <g>
                      <rect x="15" y="10" width="215.52" height="112.28"/>
                      <rect class="cls-3" x="15" y="15" width="215.52" height="112.28"/>
                    </g>
                  </g>
                </g>
              </g>
            </g>
          </g>
        </g>
        <g>
          <path class="cls-4" d="M65.3,97V45.29h9c8.92,0,13.68,3.38,13.68,13.1,0,5.69-2.45,9.29-6.27,11.16v.15c5,1.87,7,6.62,7,12.67,0,10.73-5,14.62-14.62,14.62Zm8.57-29.52c5.62,0,8.21-3,8.21-8.86,0-6.19-2.88-8-7.13-8H71.07V67.47Zm.87,24.19c5.4,0,7.92-2.3,7.92-9.5,0-7-2.31-9.65-8.57-9.65h-3V91.66Z"/>
          <path class="cls-5" d="M93.1,71c0-18.72,3.53-26.28,12.24-26.28S117.51,52.27,117.51,71c0,18.08-3.46,26.57-12.17,26.57S93.1,89.07,93.1,71Zm18.36,0c0-15.12-1.73-20.95-6.12-20.95S99.22,55.87,99.22,71s1.94,21.32,6.12,21.32S111.46,86,111.46,71Z"/>
          <path class="cls-6" d="M138.32,97,131.69,77.4h-.14L124.78,97h-6l9.51-26.72-8.79-25h6.12l5.91,17.64h.14l6.19-17.64h6l-8.93,24.84L144.51,97Z"/>
          <path class="cls-7" d="M168.19,97.56c-7.05,0-10.44-4.6-10.94-13.1l5.4-.5c.36,5.54,2.16,8.42,5.62,8.42,4,0,6.19-3.74,6.19-9.87,0-6.48-2.23-10.65-8.64-10.65h-1.15V66.75h1.22c6.05,0,8.06-3.6,8.06-8.93s-2.16-8-5.25-8c-2.74,0-4.68,1.66-5.26,6l-5.26-.36c.73-6.91,4.4-10.73,10.73-10.73,7.06,0,10.81,5,10.81,12.46,0,6.12-2.38,9.79-6.56,12v.15c4.75,2.23,7.06,6.19,7.06,13.61C180.22,91.88,175.61,97.56,168.19,97.56Z"/>
        </g>
      </g>
    </g>
  </g>
</svg>
