<svg xmlns="http://www.w3.org/2000/svg" xmlns:xlink="http://www.w3.org/1999/xlink" viewBox="0 0 215.52 142.28">
  <defs>
    <style>
      .cls-1 {
        fill: url(#linear-gradient);
      }

      .cls-2 {
        fill: #666;
      }

      .cls-3 {
        fill: url(#linear-gradient-2);
      }

      .cls-4 {
        fill: url(#New_Gradient_Swatch_copy_3);
      }

      .cls-5 {
        fill: url(#New_Gradient_Swatch_copy_3-2);
      }

      .cls-6 {
        fill: url(#New_Gradient_Swatch_copy_3-3);
      }

      .cls-7 {
        fill: url(#New_Gradient_Swatch_copy_3-4);
      }
    </style>
    <linearGradient id="linear-gradient" x1="107.76" y1="142.28" x2="107.76" gradientUnits="userSpaceOnUse">
      <stop offset="0" stop-color="#5e5b86"/>
      <stop offset="1" stop-color="#9287b4"/>
    </linearGradient>
    <linearGradient id="linear-gradient-2" x1="107.76" y1="15" x2="107.76" y2="127.28" gradientUnits="userSpaceOnUse">
      <stop offset="0" stop-color="#c0c0c1"/>
      <stop offset="0.17" stop-color="#b4b4b4"/>
      <stop offset="0.88" stop-color="#a4a5a5"/>
    </linearGradient>
    <linearGradient id="New_Gradient_Swatch_copy_3" data-name="New Gradient Swatch copy 3" x1="61.25" y1="45.29" x2="61.25" y2="96.99" gradientUnits="userSpaceOnUse">
      <stop offset="0" stop-color="#444362"/>
      <stop offset="0.68" stop-color="#212121"/>
      <stop offset="1" stop-color="#444362"/>
    </linearGradient>
    <linearGradient id="New_Gradient_Swatch_copy_3-2" x1="89.55" y1="44.71" x2="89.55" y2="97.56" xlink:href="#New_Gradient_Swatch_copy_3"/>
    <linearGradient id="New_Gradient_Swatch_copy_3-3" x1="115.9" y1="45.29" x2="115.9" y2="96.99" xlink:href="#New_Gradient_Swatch_copy_3"/>
    <linearGradient id="New_Gradient_Swatch_copy_3-4" x1="153.63" y1="45.22" x2="153.63" y2="96.99" xlink:href="#New_Gradient_Swatch_copy_3"/>
  </defs>
  <g id="Layer_2" data-name="Layer 2">
    <g id="Layer_6" data-name="Layer 6">
      <g>
        <g id="vhs_right_rect" data-name="vhs right rect">
          <path class="cls-1" d="M160.52,15a40,40,0,0,1,40,40V87.28a40,40,0,0,1-40,40H15V15H160.52m0-15H15A15,15,0,0,0,0,15V127.28a15,15,0,0,0,15,15H160.52a55.06,55.06,0,0,0,55-55V55a55.06,55.06,0,0,0-55-55Z"/>
          <g>
            <g>
              <path class="cls-2" d="M160.52,127.28H15V15H160.52a40,40,0,0,1,40,40V87.28A40,40,0,0,1,160.52,127.28Z"/>
              <path class="cls-2" d="M160.52,128.28H15V16H160.52a40,40,0,0,1,40,40V88.28A40,40,0,0,1,160.52,128.28Z"/>
              <path class="cls-2" d="M161.52,127.28H16V15H161.52a40,40,0,0,1,40,40V87.28A40,40,0,0,1,161.52,127.28Z"/>
              <path class="cls-2" d="M161.52,128.28H16V16H161.52a40,40,0,0,1,40,40V88.28A40,40,0,0,1,161.52,128.28Z"/>
              <path class="cls-2" d="M160.52,126.28H15V14H160.52a40,40,0,0,1,40,40V86.28A40,40,0,0,1,160.52,126.28Z"/>
              <path class="cls-2" d="M160.52,127.28H15V15H160.52a40,40,0,0,1,40,40V87.28A40,40,0,0,1,160.52,127.28Z"/>
              <path class="cls-2" d="M161.52,126.28H16V14H161.52a40,40,0,0,1,40,40V86.28A40,40,0,0,1,161.52,126.28Z"/>
              <path class="cls-2" d="M161.52,127.28H16V15H161.52a40,40,0,0,1,40,40V87.28A40,40,0,0,1,161.52,127.28Z"/>
            </g>
            <g>
              <g>
                <path class="cls-2" d="M159.52,127.28H14V15H159.52a40,40,0,0,1,40,40V87.28A40,40,0,0,1,159.52,127.28Z"/>
                <path class="cls-2" d="M159.52,128.28H14V16H159.52a40,40,0,0,1,40,40V88.28A40,40,0,0,1,159.52,128.28Z"/>
                <path class="cls-2" d="M160.52,127.28H15V15H160.52a40,40,0,0,1,40,40V87.28A40,40,0,0,1,160.52,127.28Z"/>
                <path class="cls-2" d="M160.52,128.28H15V16H160.52a40,40,0,0,1,40,40V88.28A40,40,0,0,1,160.52,128.28Z"/>
              </g>
              <g>
                <g>
                  <path class="cls-2" d="M159.52,126.28H14V14H159.52a40,40,0,0,1,40,40V86.28A40,40,0,0,1,159.52,126.28Z"/>
                  <path class="cls-2" d="M159.52,127.28H14V15H159.52a40,40,0,0,1,40,40V87.28A40,40,0,0,1,159.52,127.28Z"/>
                </g>
                <g>
                  <path class="cls-2" d="M160.52,126.28H15V14H160.52a40,40,0,0,1,40,40V86.28A40,40,0,0,1,160.52,126.28Z"/>
                  <path class="cls-3" d="M160.52,127.28H15V15H160.52a40,40,0,0,1,40,40V87.28A40,40,0,0,1,160.52,127.28Z"/>
                </g>
              </g>
            </g>
          </g>
        </g>
        <g>
          <path class="cls-4" d="M49.55,97V45.29h9c8.93,0,13.68,3.38,13.68,13.1,0,5.69-2.45,9.29-6.26,11.16v.15c5,1.87,7,6.62,7,12.67C73,93.1,68,97,58.33,97Zm8.57-29.52c5.61,0,8.21-3,8.21-8.86,0-6.19-2.88-8-7.13-8H55.31V67.47ZM59,91.66c5.4,0,7.92-2.3,7.92-9.5,0-7-2.3-9.65-8.57-9.65h-3V91.66Z"/>
          <path class="cls-5" d="M77.34,71c0-18.72,3.53-26.28,12.24-26.28S101.75,52.27,101.75,71c0,18.08-3.45,26.57-12.17,26.57S77.34,89.07,77.34,71ZM95.7,71C95.7,55.87,94,50,89.58,50S83.46,55.87,83.46,71s2,21.32,6.12,21.32S95.7,86,95.7,71Z"/>
          <path class="cls-6" d="M122.56,97,115.93,77.4h-.14L109,97h-6l9.5-26.72-8.78-25h6.12l5.9,17.64h.14l6.2-17.64h6l-8.92,24.84L128.75,97Z"/>
          <path class="cls-7" d="M155.39,97V85H141.28V79.71l12.31-34.49h7v35H166V85h-5.4V97Zm0-43.13h-.14L146,80.21h9.36Z"/>
        </g>
      </g>
    </g>
  </g>
</svg>
