<svg xmlns="http://www.w3.org/2000/svg" viewBox="0 0 412.27 34.26"><defs><style>.cls-1{isolation:isolate;}.cls-2{mix-blend-mode:multiply;}.cls-3{fill:#363556;}.cls-4{fill:#4d4d4d;}</style></defs><g class="cls-1"><g id="Layer_2" data-name="Layer 2"><g id="Layer_6" data-name="Layer 6"><g class="cls-2"><path class="cls-3" d="M.19,33.54V32.1A14.51,14.51,0,0,0,2.5,32a2.67,2.67,0,0,0,1.37-.6A2.28,2.28,0,0,0,4.54,30a13.38,13.38,0,0,0,.16-2.33V7.77a10.42,10.42,0,0,0-.23-2.52,2,2,0,0,0-.81-1.2,3.49,3.49,0,0,0-1.47-.46A19.15,19.15,0,0,1,0,3.21V1.72a16,16,0,0,0,2,.17l2.16,0c1,0,1.86,0,2.71,0s1.68-.07,2.49-.12l2.55-.12c.88,0,1.83,0,2.85,0A21.88,21.88,0,0,1,22,2.68a14.52,14.52,0,0,1,5.33,3.17,13.34,13.34,0,0,1,3.29,5.06,19.11,19.11,0,0,1,1.13,6.75,18.4,18.4,0,0,1-1.11,6.57,12.09,12.09,0,0,1-3.48,5,16.5,16.5,0,0,1-6.07,3.2,30.71,30.71,0,0,1-8.88,1.12Zm15-1.87q5.66,0,8.4-3.38T26.3,17.66q0-7.2-3.07-10.64T14.35,3.59H12.43A14.12,14.12,0,0,0,11,3.66a1.59,1.59,0,0,0-.91.39,1.81,1.81,0,0,0-.48.89,6.61,6.61,0,0,0-.14,1.58V28a7.76,7.76,0,0,0,.21,2,2,2,0,0,0,.72,1.11,2.68,2.68,0,0,0,1.32.43c.55,0,1.22.07,2,.07Z"/><path class="cls-3" d="M66.72,29.37a4.82,4.82,0,0,1-.26,1.39,5.21,5.21,0,0,1-.82,1.54,5.67,5.67,0,0,1-1.34,1.24,3.12,3.12,0,0,1-1.8.53,7.58,7.58,0,0,1-4.32-1,5.84,5.84,0,0,1-2.07-3.19c-.38-1.22-.77-2.52-1.15-3.92a25.77,25.77,0,0,0-1.37-3.84,10,10,0,0,0-1.94-2.92A3.85,3.85,0,0,0,48.77,18H47.33c-.87,0-1.36.18-1.49.53V29q0,3.12,4.42,3.12v1.44H36.72V32.1c2.82,0,4.22-1,4.22-3.12V6.28q0-3.07-4.56-3.07V1.72h6l2.69,0c.74,0,1.45,0,2.14-.08l2.21-.07,2.85,0a12.38,12.38,0,0,1,3.89.6A10,10,0,0,1,59.3,3.78a8.05,8.05,0,0,1,2.09,2.5,6.55,6.55,0,0,1,.77,3.12,6.9,6.9,0,0,1-.62,3,6.82,6.82,0,0,1-1.76,2.25,10.46,10.46,0,0,1-2.66,1.63,17,17,0,0,1-3.41,1.06v.14a12.39,12.39,0,0,1,3.82,2.76,9.38,9.38,0,0,1,2,3.2c.19.64.41,1.4.67,2.3a22.25,22.25,0,0,0,.89,2.54,8.6,8.6,0,0,0,1.17,2,2,2,0,0,0,1.64.84q1.14,0,1.68-2.16ZM49.49,16.17A20.81,20.81,0,0,0,52.27,16a6,6,0,0,0,2.4-.87,4.93,4.93,0,0,0,1.71-1.92A7.51,7.51,0,0,0,57,9.78a6.34,6.34,0,0,0-.64-3,5.45,5.45,0,0,0-1.68-1.9,6.82,6.82,0,0,0-2.28-1A11.06,11.06,0,0,0,50,3.59H47.66c-1.21,0-1.82.9-1.82,2.69v9.17c.13.48.51.72,1.15.72Z"/><path class="cls-3" d="M68.69,33.54V32.1q4.41,0,4.41-3.12V7.2q0-4-4.75-4V1.72H93.6l.38,9-1.48.19a11.83,11.83,0,0,0-1.3-4,5.81,5.81,0,0,0-2.09-2.14A6.69,6.69,0,0,0,86.3,3.9c-1-.08-2.21-.12-3.45-.12H81.5c-2.43,0-3.65.72-3.65,2.16v8.6c0,1,.39,1.44,1.16,1.44h1.63a19.37,19.37,0,0,0,2.23-.12,4.24,4.24,0,0,0,1.83-.63A3.66,3.66,0,0,0,86,13.7a8.63,8.63,0,0,0,.7-2.81h1.77V23.32H86.69a12,12,0,0,0-.58-2.81A3.46,3.46,0,0,0,85,18.93a3.85,3.85,0,0,0-1.78-.72A17.06,17.06,0,0,0,80.64,18h-.58c-1.47,0-2.21.53-2.21,1.58v9.17q0,2.75,3.85,2.74h1.48a20.62,20.62,0,0,0,4.87-.46,7,7,0,0,0,3-1.44,7.11,7.11,0,0,0,1.85-2.47c.47-1,.94-2.16,1.42-3.5l1.3.38-1.3,9.5Z"/><path class="cls-3" d="M115.82,33.54V32.1l1.42-.19a11.17,11.17,0,0,0,1.34-.24,3.83,3.83,0,0,0,1-.36c.27-.14.41-.31.41-.5a3,3,0,0,1-.07-.55,2.81,2.81,0,0,0-.27-.89l-2.16-5.91c-.35-.83-1.33-1.24-2.93-1.24h-7.15c-1.21,0-2,.41-2.21,1.24l-1.63,5a3.18,3.18,0,0,0-.19,1.25q0,2.19,4.22,2.19v1.68H96.81V31.86a3.92,3.92,0,0,0,2.38-.95,6.62,6.62,0,0,0,1.66-2.5L112.37,1l1.44.58,11.37,28.51a4.61,4.61,0,0,0,1.06,1.25,2.61,2.61,0,0,0,.79.26l1.94.5v1.44ZM111.65,7.77l-4.23,10.08a4.82,4.82,0,0,0-.53,1.63c0,.48.6.72,1.78.72h6c1,0,1.44-.19,1.44-.58a8.33,8.33,0,0,0-.53-1.58Z"/><path class="cls-3" d="M155.47,33.54V32.1c2.81,0,4.22-1.16,4.22-3.5l-.33-22.32L149.13,33.54h-1.34L136.84,6.71l-.19,21.17c0,2.82,1.57,4.22,4.8,4.22v1.44H129.88V32.1c2.92,0,4.45-1.53,4.61-4.61L134.88,6V5.56a3.6,3.6,0,0,0-.12-1,1.41,1.41,0,0,0-.63-.77,3.86,3.86,0,0,0-1.46-.5,15.89,15.89,0,0,0-2.59-.17V1.72H140l9.7,24.34,9.26-24.34h9.75V3.16a11,11,0,0,0-2.5.22A3.12,3.12,0,0,0,164.8,4a1.8,1.8,0,0,0-.57.94,4.94,4.94,0,0,0-.12,1.1l.53,22.22q0,3.84,4.36,3.84v1.44Z"/><path class="cls-3" d="M212.68,33.54V32.1c2.82,0,4.23-1.16,4.23-3.5l-.34-22.32L206.35,33.54H205L194.06,6.71l-.19,21.17c0,2.82,1.57,4.22,4.8,4.22v1.44H187.1V32.1c2.91,0,4.45-1.53,4.61-4.61L192.09,6V5.56a3.6,3.6,0,0,0-.12-1,1.44,1.44,0,0,0-.62-.77,4,4,0,0,0-1.47-.5,15.89,15.89,0,0,0-2.59-.17V1.72h9.89l9.7,24.34,9.26-24.34h9.74V3.16a10.93,10.93,0,0,0-2.49.22A3.07,3.07,0,0,0,222,4a1.82,1.82,0,0,0-.58.94,4.94,4.94,0,0,0-.12,1.1l.53,22.22q0,3.84,4.37,3.84v1.44Z"/><path class="cls-3" d="M247.34,33.54V32.1l1.42-.19a11.17,11.17,0,0,0,1.34-.24,4,4,0,0,0,1-.36c.27-.14.41-.31.41-.5a2.84,2.84,0,0,1-.08-.55,2.52,2.52,0,0,0-.26-.89L249,23.46c-.35-.83-1.33-1.24-2.93-1.24h-7.15c-1.22,0-1.95.41-2.21,1.24l-1.63,5a3.18,3.18,0,0,0-.19,1.25q0,2.19,4.22,2.19v1.68h-10.8V31.86a3.92,3.92,0,0,0,2.38-.95,6.6,6.6,0,0,0,1.65-2.5L243.88,1l1.44.58L256.7,30.09a4.61,4.61,0,0,0,1.06,1.25,2.5,2.5,0,0,0,.79.26l1.94.5v1.44ZM243.16,7.77l-4.22,10.08a4.82,4.82,0,0,0-.53,1.63c0,.48.59.72,1.78.72h6.05c1,0,1.44-.19,1.44-.58a8.33,8.33,0,0,0-.53-1.58Z"/><path class="cls-3" d="M288,24.38a11.83,11.83,0,0,1-1.61,4.34,11.13,11.13,0,0,1-2.88,3.07,12.66,12.66,0,0,1-3.84,1.85,15.57,15.57,0,0,1-4.44.62A15,15,0,0,1,269,33a14,14,0,0,1-4.73-3.38,15,15,0,0,1-3-5.12,18.54,18.54,0,0,1-1.06-6.36,19,19,0,0,1,1.2-6.86,17.13,17.13,0,0,1,3.24-5.38,14.58,14.58,0,0,1,4.76-3.5,13.65,13.65,0,0,1,5.78-1.25,12.24,12.24,0,0,1,7,2.21,6.38,6.38,0,0,1,3.46-2A4.45,4.45,0,0,1,286,2.46a23,23,0,0,1,.55,2.43c.17,1,.33,2.13.46,3.41s.19,2.62.19,4H285.6a12.72,12.72,0,0,0-3.84-6.94,9.59,9.59,0,0,0-6.39-2.33,8.6,8.6,0,0,0-4.51,1.13,9.4,9.4,0,0,0-3.07,3,13,13,0,0,0-1.75,4.2,20.86,20.86,0,0,0-.56,4.8,31.23,31.23,0,0,0,.6,6.31,15.84,15.84,0,0,0,1.9,5,9.65,9.65,0,0,0,3.36,3.36,9.45,9.45,0,0,0,4.94,1.22,12.82,12.82,0,0,0,3.29-.38,7.68,7.68,0,0,0,2.69-1.32,9.77,9.77,0,0,0,2.26-2.54,24.93,24.93,0,0,0,2-4Z"/><path class="cls-3" d="M312.24,33.54V32.1c3.16,0,4.75-1.1,4.75-3.31v-10c-.58-.48-1.8-.72-3.65-.72H304.7a9.61,9.61,0,0,0-1.82.17,6.09,6.09,0,0,0-1.64.55v10q0,3.32,4.42,3.31v1.44H291.59V32.1q4.91,0,4.9-3.31V7.39q0-4.23-4.9-4.23V1.72h14.07V3.16q-4.43,0-4.42,4.24v8.24a11,11,0,0,0,3.46.53h8.64a8.53,8.53,0,0,0,3.65-.53V7.4c0-2.83-1.59-4.24-4.75-4.24V1.72h13.87V3.16c-2.92,0-4.37,1.41-4.37,4.23v21.4c0,2.21,1.45,3.31,4.37,3.31v1.44Z"/><path class="cls-3" d="M330.91,33.54V32.1q4.56,0,4.56-3.31V7.39q0-4.23-4.76-4.23V1.72h13.92V3.16q-4.41,0-4.41,4.23v21.4c0,2.21,1.53,3.31,4.61,3.31v1.44Z"/><path class="cls-3" d="M376.5,34.07l-21.21-27V26.39q0,5.71,4.94,5.71v1.44H348.71V32.1c2.69,0,4-1.9,4-5.72V5.18q0-2-4.76-2V1.72h8.78l18.77,24V8.45q0-5.29-4.89-5.29V1.72h11.52V3.16q-4.43,0-4.42,5.29V33.73Z"/><path class="cls-3" d="M385.34,33.54V32.1q4.41,0,4.41-3.12V7.2q0-4-4.75-4V1.72h25.25l.38,9-1.48.19a11.83,11.83,0,0,0-1.3-4,5.81,5.81,0,0,0-2.09-2.14A6.64,6.64,0,0,0,403,3.9q-1.57-.12-3.45-.12h-1.35c-2.43,0-3.65.72-3.65,2.16v8.6c0,1,.39,1.44,1.16,1.44h1.63a19.37,19.37,0,0,0,2.23-.12,4.24,4.24,0,0,0,1.83-.63,3.66,3.66,0,0,0,1.29-1.53,8.63,8.63,0,0,0,.7-2.81h1.77V23.32h-1.77a12,12,0,0,0-.58-2.81,3.46,3.46,0,0,0-1.1-1.58,3.85,3.85,0,0,0-1.78-.72,17.06,17.06,0,0,0-2.59-.17h-.58c-1.47,0-2.21.53-2.21,1.58v9.17c0,1.83,1.29,2.74,3.85,2.74h1.48a20.77,20.77,0,0,0,4.88-.46,7.12,7.12,0,0,0,3-1.44,7.21,7.21,0,0,0,1.84-2.47c.47-1,.94-2.16,1.42-3.5l1.3.38-1.3,9.5Z"/></g><path class="cls-4" d="M.19,32.54V31.1A14.51,14.51,0,0,0,2.5,31a2.67,2.67,0,0,0,1.37-.6A2.28,2.28,0,0,0,4.54,29a13.38,13.38,0,0,0,.16-2.33V6.77a10.42,10.42,0,0,0-.23-2.52,2,2,0,0,0-.81-1.2,3.49,3.49,0,0,0-1.47-.46A19.15,19.15,0,0,1,0,2.21V.72A16,16,0,0,0,2,.89l2.16,0c1,0,1.86,0,2.71-.05S8.57.79,9.38.74L11.93.62c.88,0,1.83,0,2.85,0A21.88,21.88,0,0,1,22,1.68a14.52,14.52,0,0,1,5.33,3.17,13.34,13.34,0,0,1,3.29,5.06,19.11,19.11,0,0,1,1.13,6.75,18.4,18.4,0,0,1-1.11,6.57,12.09,12.09,0,0,1-3.48,5,16.5,16.5,0,0,1-6.07,3.2,30.71,30.71,0,0,1-8.88,1.12Zm15-1.87q5.66,0,8.4-3.38T26.3,16.66q0-7.2-3.07-10.64T14.35,2.59H12.43A14.12,14.12,0,0,0,11,2.66a1.59,1.59,0,0,0-.91.39,1.81,1.81,0,0,0-.48.89,6.61,6.61,0,0,0-.14,1.58V27a7.76,7.76,0,0,0,.21,2,2,2,0,0,0,.72,1.11,2.68,2.68,0,0,0,1.32.43c.55,0,1.22.07,2,.07Z"/><path class="cls-4" d="M66.72,28.37a4.82,4.82,0,0,1-.26,1.39,5.21,5.21,0,0,1-.82,1.54,5.67,5.67,0,0,1-1.34,1.24,3.12,3.12,0,0,1-1.8.53,7.58,7.58,0,0,1-4.32-1,5.84,5.84,0,0,1-2.07-3.19c-.38-1.22-.77-2.52-1.15-3.92a25.77,25.77,0,0,0-1.37-3.84,10,10,0,0,0-1.94-2.92A3.85,3.85,0,0,0,48.77,17H47.33c-.87,0-1.36.18-1.49.53V28q0,3.12,4.42,3.12v1.44H36.72V31.1c2.82,0,4.22-1,4.22-3.12V5.28q0-3.07-4.56-3.07V.72h6l2.69,0c.74,0,1.45,0,2.14-.08L49.42.55l2.85,0a12.38,12.38,0,0,1,3.89.6A10,10,0,0,1,59.3,2.78a8.05,8.05,0,0,1,2.09,2.5,6.55,6.55,0,0,1,.77,3.12,6.9,6.9,0,0,1-.62,3,6.82,6.82,0,0,1-1.76,2.25,10.46,10.46,0,0,1-2.66,1.63,17,17,0,0,1-3.41,1.06v.14a12.39,12.39,0,0,1,3.82,2.76,9.38,9.38,0,0,1,2,3.2c.19.64.41,1.4.67,2.3a22.25,22.25,0,0,0,.89,2.54,8.6,8.6,0,0,0,1.17,2,2,2,0,0,0,1.64.84q1.14,0,1.68-2.16ZM49.49,15.17A20.81,20.81,0,0,0,52.27,15a6,6,0,0,0,2.4-.87,4.93,4.93,0,0,0,1.71-1.92A7.51,7.51,0,0,0,57,8.78a6.34,6.34,0,0,0-.64-3,5.45,5.45,0,0,0-1.68-1.9,6.82,6.82,0,0,0-2.28-1A11.06,11.06,0,0,0,50,2.59H47.66c-1.21,0-1.82.9-1.82,2.69v9.17c.13.48.51.72,1.15.72Z"/><path class="cls-4" d="M68.69,32.54V31.1q4.41,0,4.41-3.12V6.2q0-4-4.75-4V.72H93.6l.38,9-1.48.19a11.83,11.83,0,0,0-1.3-4,5.81,5.81,0,0,0-2.09-2.14A6.69,6.69,0,0,0,86.3,2.9c-1-.08-2.21-.12-3.45-.12H81.5c-2.43,0-3.65.72-3.65,2.16v8.6c0,1,.39,1.44,1.16,1.44h1.63a19.37,19.37,0,0,0,2.23-.12,4.24,4.24,0,0,0,1.83-.63A3.66,3.66,0,0,0,86,12.7a8.63,8.63,0,0,0,.7-2.81h1.77V22.32H86.69a12,12,0,0,0-.58-2.81A3.46,3.46,0,0,0,85,17.93a3.85,3.85,0,0,0-1.78-.72A17.06,17.06,0,0,0,80.64,17h-.58c-1.47,0-2.21.53-2.21,1.58v9.17q0,2.75,3.85,2.74h1.48a20.62,20.62,0,0,0,4.87-.46,7,7,0,0,0,3-1.44,7.11,7.11,0,0,0,1.85-2.47c.47-1,.94-2.16,1.42-3.5l1.3.38-1.3,9.5Z"/><path class="cls-4" d="M115.82,32.54V31.1l1.42-.19a11.17,11.17,0,0,0,1.34-.24,3.83,3.83,0,0,0,1-.36c.27-.14.41-.31.41-.5a3,3,0,0,1-.07-.55,2.81,2.81,0,0,0-.27-.89l-2.16-5.91c-.35-.83-1.33-1.24-2.93-1.24h-7.15c-1.21,0-2,.41-2.21,1.24l-1.63,5a3.18,3.18,0,0,0-.19,1.25q0,2.19,4.22,2.19v1.68H96.81V30.86a3.92,3.92,0,0,0,2.38-.95,6.62,6.62,0,0,0,1.66-2.5L112.37,0l1.44.58,11.37,28.51a4.61,4.61,0,0,0,1.06,1.25,2.61,2.61,0,0,0,.79.26l1.94.5v1.44ZM111.65,6.77l-4.23,10.08a4.82,4.82,0,0,0-.53,1.63c0,.48.6.72,1.78.72h6c1,0,1.44-.19,1.44-.58a8.33,8.33,0,0,0-.53-1.58Z"/><path class="cls-4" d="M155.47,32.54V31.1c2.81,0,4.22-1.16,4.22-3.5l-.33-22.32L149.13,32.54h-1.34L136.84,5.71l-.19,21.17c0,2.82,1.57,4.22,4.8,4.22v1.44H129.88V31.1c2.92,0,4.45-1.53,4.61-4.61L134.88,5V4.56a3.6,3.6,0,0,0-.12-1,1.41,1.41,0,0,0-.63-.77,3.86,3.86,0,0,0-1.46-.5,15.89,15.89,0,0,0-2.59-.17V.72H140l9.7,24.34L158.92.72h9.75V2.16a11,11,0,0,0-2.5.22A3.12,3.12,0,0,0,164.8,3a1.8,1.8,0,0,0-.57.94,4.94,4.94,0,0,0-.12,1.1l.53,22.22q0,3.84,4.36,3.84v1.44Z"/><path class="cls-4" d="M212.68,32.54V31.1c2.82,0,4.23-1.16,4.23-3.5l-.34-22.32L206.35,32.54H205L194.06,5.71l-.19,21.17c0,2.82,1.57,4.22,4.8,4.22v1.44H187.1V31.1c2.91,0,4.45-1.53,4.61-4.61L192.09,5V4.56a3.6,3.6,0,0,0-.12-1,1.44,1.44,0,0,0-.62-.77,4,4,0,0,0-1.47-.5,15.89,15.89,0,0,0-2.59-.17V.72h9.89l9.7,24.34L216.14.72h9.74V2.16a10.93,10.93,0,0,0-2.49.22A3.07,3.07,0,0,0,222,3a1.82,1.82,0,0,0-.58.94,4.94,4.94,0,0,0-.12,1.1l.53,22.22q0,3.84,4.37,3.84v1.44Z"/><path class="cls-4" d="M247.34,32.54V31.1l1.42-.19a11.17,11.17,0,0,0,1.34-.24,4,4,0,0,0,1-.36c.27-.14.41-.31.41-.5a2.84,2.84,0,0,1-.08-.55,2.52,2.52,0,0,0-.26-.89L249,22.46c-.35-.83-1.33-1.24-2.93-1.24h-7.15c-1.22,0-1.95.41-2.21,1.24l-1.63,5a3.18,3.18,0,0,0-.19,1.25q0,2.19,4.22,2.19v1.68h-10.8V30.86a3.92,3.92,0,0,0,2.38-.95,6.6,6.6,0,0,0,1.65-2.5L243.88,0l1.44.58L256.7,29.09a4.61,4.61,0,0,0,1.06,1.25,2.5,2.5,0,0,0,.79.26l1.94.5v1.44ZM243.16,6.77l-4.22,10.08a4.82,4.82,0,0,0-.53,1.63c0,.48.59.72,1.78.72h6.05c1,0,1.44-.19,1.44-.58a8.33,8.33,0,0,0-.53-1.58Z"/><path class="cls-4" d="M288,23.38a11.83,11.83,0,0,1-1.61,4.34,11.13,11.13,0,0,1-2.88,3.07,12.66,12.66,0,0,1-3.84,1.85,15.57,15.57,0,0,1-4.44.62A15,15,0,0,1,269,32a14,14,0,0,1-4.73-3.38,15,15,0,0,1-3-5.12,18.54,18.54,0,0,1-1.06-6.36,19,19,0,0,1,1.2-6.86,17.13,17.13,0,0,1,3.24-5.38,14.58,14.58,0,0,1,4.76-3.5A13.65,13.65,0,0,1,275.18.19a12.24,12.24,0,0,1,7,2.21,6.38,6.38,0,0,1,3.46-2A4.45,4.45,0,0,1,286,1.46a23,23,0,0,1,.55,2.43c.17,1,.33,2.13.46,3.41s.19,2.62.19,4H285.6a12.72,12.72,0,0,0-3.84-6.94,9.59,9.59,0,0,0-6.39-2.33,8.6,8.6,0,0,0-4.51,1.13,9.4,9.4,0,0,0-3.07,3,13,13,0,0,0-1.75,4.2,20.86,20.86,0,0,0-.56,4.8,31.23,31.23,0,0,0,.6,6.31,15.84,15.84,0,0,0,1.9,5,9.65,9.65,0,0,0,3.36,3.36,9.45,9.45,0,0,0,4.94,1.22,12.82,12.82,0,0,0,3.29-.38,7.68,7.68,0,0,0,2.69-1.32,9.77,9.77,0,0,0,2.26-2.54,24.93,24.93,0,0,0,2-4Z"/><path class="cls-4" d="M312.24,32.54V31.1c3.16,0,4.75-1.1,4.75-3.31v-10c-.58-.48-1.8-.72-3.65-.72H304.7a9.61,9.61,0,0,0-1.82.17,6.09,6.09,0,0,0-1.64.55v10q0,3.32,4.42,3.31v1.44H291.59V31.1q4.91,0,4.9-3.31V6.39q0-4.23-4.9-4.23V.72h14.07V2.16q-4.43,0-4.42,4.24v8.24a11,11,0,0,0,3.46.53h8.64a8.53,8.53,0,0,0,3.65-.53V6.4c0-2.83-1.59-4.24-4.75-4.24V.72h13.87V2.16c-2.92,0-4.37,1.41-4.37,4.23v21.4c0,2.21,1.45,3.31,4.37,3.31v1.44Z"/><path class="cls-4" d="M330.91,32.54V31.1q4.56,0,4.56-3.31V6.39q0-4.23-4.76-4.23V.72h13.92V2.16q-4.41,0-4.41,4.23v21.4c0,2.21,1.53,3.31,4.61,3.31v1.44Z"/><path class="cls-4" d="M376.5,33.07l-21.21-27V25.39q0,5.71,4.94,5.71v1.44H348.71V31.1c2.69,0,4-1.9,4-5.72V4.18q0-2-4.76-2V.72h8.78l18.77,24V7.45q0-5.29-4.89-5.29V.72h11.52V2.16q-4.43,0-4.42,5.29V32.73Z"/><path class="cls-4" d="M385.34,32.54V31.1q4.41,0,4.41-3.12V6.2q0-4-4.75-4V.72h25.25l.38,9-1.48.19a11.83,11.83,0,0,0-1.3-4,5.81,5.81,0,0,0-2.09-2.14A6.64,6.64,0,0,0,403,2.9q-1.57-.12-3.45-.12h-1.35c-2.43,0-3.65.72-3.65,2.16v8.6c0,1,.39,1.44,1.16,1.44h1.63a19.37,19.37,0,0,0,2.23-.12,4.24,4.24,0,0,0,1.83-.63,3.66,3.66,0,0,0,1.29-1.53,8.63,8.63,0,0,0,.7-2.81h1.77V22.32h-1.77a12,12,0,0,0-.58-2.81,3.46,3.46,0,0,0-1.1-1.58,3.85,3.85,0,0,0-1.78-.72,17.06,17.06,0,0,0-2.59-.17h-.58c-1.47,0-2.21.53-2.21,1.58v9.17c0,1.83,1.29,2.74,3.85,2.74h1.48a20.77,20.77,0,0,0,4.88-.46,7.12,7.12,0,0,0,3-1.44,7.21,7.21,0,0,0,1.84-2.47c.47-1,.94-2.16,1.42-3.5l1.3.38-1.3,9.5Z"/></g></g></g></svg>