<svg xmlns="http://www.w3.org/2000/svg" xmlns:xlink="http://www.w3.org/1999/xlink" viewBox="0 0 114 114">
  <defs>
    <style>
      .cls-1 {
        fill: url(#linear-gradient);
      }

      .cls-2 {
        fill: url(#radial-gradient);
      }

      .cls-3 {
        fill: url(#radial-gradient-2);
      }
    </style>
    <linearGradient id="linear-gradient" x1="57" y1="114" x2="57" gradientUnits="userSpaceOnUse">
      <stop offset="0" stop-color="silver"/>
      <stop offset="1" stop-color="#d9d9d9"/>
    </linearGradient>
    <radialGradient id="radial-gradient" cx="57" cy="57" r="42" gradientUnits="userSpaceOnUse">
      <stop offset="0.02" stop-color="#e6e6e6"/>
      <stop offset="0.23" stop-color="#e1e1e1"/>
      <stop offset="0.5" stop-color="#d2d3d2"/>
      <stop offset="0.78" stop-color="#b9bbba"/>
      <stop offset="0.99" stop-color="#a3a5a4"/>
    </radialGradient>
    <radialGradient id="radial-gradient-2" cx="57.04" cy="54.69" r="21.46" gradientUnits="userSpaceOnUse">
      <stop offset="0" stop-color="#5e5b86"/>
      <stop offset="0.49" stop-color="#4c4a71"/>
      <stop offset="1" stop-color="#363556"/>
    </radialGradient>
  </defs>
  <g id="Layer_2" data-name="Layer 2">
    <g id="Layer_4" data-name="Layer 4">
      <g>
        <g>
          <path class="cls-1" d="M57,15A42,42,0,1,1,15,57,42,42,0,0,1,57,15M57,0a57,57,0,1,0,57,57A57.06,57.06,0,0,0,57,0Z"/>
          <circle class="cls-2" cx="57" cy="57" r="42"/>
        </g>
        <path class="cls-3" d="M56.45,32.92l-20,15a1,1,0,0,0-.41.81v27a1,1,0,0,0,1,1H50.55a1,1,0,0,0,1-1v-16h11v16a1,1,0,0,0,1,1H77a1,1,0,0,0,1-1V48.7a1,1,0,0,0-.41-.81l-20-15A1,1,0,0,0,56.45,32.92Z"/>
      </g>
    </g>
  </g>
</svg>
